<svg xmlns="http://www.w3.org/2000/svg">
<defs>
<font id="RusulicaScriptAntiqueW00-Rg" horiz-adv-x="530" >
  <font-face 
    font-family="RusulicaScriptAntiqueW00-Rg"
    font-weight="400"
    font-style="italic"
    font-stretch="normal"
    units-per-em="1000"
    panose-1="1 0 0 0 0 0 0 0 0 0"
    ascent="800"
    descent="-200"
    x-height="396"
    cap-height="731"
    bbox="-401 -359 1497 971"
    underline-thickness="50"
    underline-position="-125"
    slope="-30"
    unicode-range="U+0020-FB02"
  />
<missing-glyph horiz-adv-x="708" 
d="M469 835l20 -2l22 2l19 -1l13 -1l20 2l26 -2l18 2l15 -2l22 2l18 -2h26l14 2l27 -2l14 1h26l15 1l24 -1h16l20 -1h47l13 2h41l18 -1h28l15 -1l20 1h24l6 -16l-10 -18l-5 -18l-19 -17l-2 -15l-14 -17l-11 -19l-8 -15l-7 -19l-12 -15l-13 -18l-11 -17l-10 -18l-9 -15
l-13 -18l-7 -17l-8 -16l-7 -18l-12 -17l-15 -16l-10 -17l-3 -19l-9 -15l-16 -18l-4 -16l-17 -18l-11 -17l-10 -16l-7 -19l-14 -15l-5 -18l-7 -17l-17 -16l-3 -17l-18 -18l-5 -18l-8 -16l-11 -16l-16 -19l-3 -16l-15 -18l-9 -16l-5 -18l-14 -15l-12 -18l-7 -17l-15 -17
l-5 -16l-15 -17l-6 -19l-10 -16l-11 -16l-11 -19l-6 -15l-9 -18l-28 -17h-24l-17 1l-20 -2l-25 1h-16l-23 1h-38l-17 -1l-24 1h-19l-24 -1l-14 1l-20 -1l-23 1h-45l-18 -1l-14 1h-24l-19 -2l-24 1h-12l-28 1l-14 -2h-27l-13 2l-22 -2h-45l-13 1l-25 -1h-19l-12 18l18 17
l5 17l17 35l11 17l11 16l10 19l12 16l9 16l15 18l1 17l13 16l15 17l2 18l18 18l4 16l15 16l9 18l10 16l6 18l14 17l11 17l9 17l11 17l6 18l15 15l7 17l7 18l12 17l15 18l2 17l10 17l17 15l4 17l9 19l17 15l3 17l17 19l7 17l8 15l12 18l8 18l12 17l9 17l12 16l10 16l11 19
l9 16l5 18l17 16l2 17l13 17l8 17l9 16l32 18h61h24zM361 735l-9 -17l-11 -17l-3 -18l-15 -15l-9 -17l-14 -17l-10 -18l-2 -18l-13 -15l-8 -19l-12 -16l-13 -16l-7 -17l-14 -19l-10 -17l-4 -16l-11 -17l-11 -18l-8 -15l-12 -18l-13 -17l-8 -16l-13 -17l-4 -17l-12 -19

<glyph glyph-name="uniFB01" unicode="fi" horiz-adv-x="547" 
d="M269 349l-20 -2l-20 1l-5 -7l-9 -18l-10 -19l-7 -19l-12 -18l-11 -17l-17 -35l-12 -16l-8 -20l-7 -15l-9 -19l-11 -17l-8 -15l-6 -17l-14 -19l-9 -16l-11 -18l-14 -15l-11 -19l-5 -16l-10 -16l-8 -19l-17 -17l-6 -17l-11 -15l-10 -18l-13 -18l-6 -17l-15 -17l-8 -16
l-11 -17l-13 -16l-8 -15l-14 -18l-8 -14l-17 -17l-8 -17l-32 -14l-19 1l-16 -2l-14 14l7 14l9 14l13 15l13 15l13 13l13 17l9 15l9 13l8 18l11 14l13 18l7 15l18 18l8 15l8 17l11 18l14 16l12 17l8 19l13 19l7 17l11 17l14 19l5 18l12 18l10 18l6 18l18 18l8 20l8 19l14 18
l2 19l16 20l4 19l10 19l14 18l9 20l9 12l-21 -2l-17 2h-16l-30 -2l-6 16l7 19l35 11h18l19 1h22l12 -1l13 19l4 16l13 20l12 23l8 11l11 18l6 17l10 16l29 34l10 15l7 15l22 17l11 12l9 13l22 12l18 13l11 9l44 13l11 4l28 3l31 -2l27 -1l16 -5l16 -7l20 -11l13 -12l16 -19
l11 -15l6 -20v-32l-8 -21l-18 -13l-17 -11h-28l-23 9l-17 15l-3 29l9 24l20 13l17 2l2 1l-7 17l-17 11l-21 6l-38 2l-15 -5l-15 -6l-18 -10l-21 -11l-13 -10l-13 -15l-15 -15l-20 -31l-14 -15l-17 -16l-8 -18l-12 -16l-15 -28l-11 -27l-11 -18l-9 -19l9 1h20l22 -1h36l19 -4
v-11l-14 -23l-30 -5l-21 -1zM612 130l-10 -15l-8 -15l-18 -15l-10 -16l-18 -13l-7 -13l-22 -14l-10 -12l-17 -9l-20 -11l-13 -9l-21 -5l-22 -5l-14 -5l-44 1l-17 4l-18 6l-13 12l-9 14l-14 15l-2 19l6 20l2 20l8 21l2 17l20 34l8 18l8 19l16 18l5 17l9 19l9 17l10 18l12 19
l13 17l11 19l8 15l14 20l22 15h25l13 1l15 -17l-11 -18l-14 -15l-9 -19l-9 -16l-11 -16l-12 -18l-7 -18l-11 -15l-8 -19l-13 -15l-5 -17l-14 -19l-13 -35l-14 -20l-1 -20l-6 -21l1 -19l17 -19l20 -7l31 -2l23 7l36 16l15 13l23 14l12 14l14 15l16 14l6 17l18 19l22 15l10 -8
z" />
    <glyph glyph-name="uniFB02" unicode="fl" horiz-adv-x="541" 
d="M678 645l-6 -17l-14 -17l-5 -20l-10 -17l-7 -19l-13 -18l-10 -17l-9 -17l-14 -20l-10 -17l-10 -17l-9 -18l-9 -20l-11 -15l-23 -36l-11 -16l-7 -16l-12 -18l-5 -18l-9 -15l-9 -17l-15 -17l-5 -18l-9 -18l-14 -17l-11 -17l-7 -15l-22 -37l-7 -18l-9 -22l4 -21v-19l14 -18
l20 -14l29 1l20 6l22 8l30 8l11 16l7 13l17 15l19 15l10 16l11 16l14 19l23 12l11 -7l-10 -17l-16 -17l-5 -16l-17 -15l-11 -13l-16 -14l-6 -15l-19 -12l-11 -10l-17 -13l-22 -9l-14 -9l-19 -6l-33 -8l-41 -1l-18 6l-17 7l-18 9l-15 13l-7 17l2 19l-3 21l3 20l8 20l6 18
l23 34l7 16l9 19l12 18l7 18l15 17l10 19l3 18l14 17l8 20l6 16l11 18l13 17l16 35l14 18l9 19l9 19l9 16l17 19l6 19l9 17l16 18l7 18l9 17l-5 22l-6 16l-17 16l-16 9l-19 5l-44 -2l-29 -13l-21 -12l-15 -12l-13 -14l-14 -15l-15 -17l-8 -14l-17 -18l-10 -18l-8 -15l-6 -18
l-15 -19l-11 -18l-13 -19l-3 -16l-12 -20l13 -1l14 1l24 1l13 -2l28 1l7 -15l-8 -14l-33 -17h-13l-24 1h-20l-20 -1l-11 1l-4 -8l-8 -16l-4 -20l-14 -16l-2 -18l-10 -18l-11 -17l-8 -17l-7 -17l-15 -15l-9 -17l-14 -18l-10 -16l-8 -17l-13 -17l-7 -19l-9 -16l-13 -18l-7 -15
l-13 -18l-3 -18l-13 -17l-8 -17l-12 -17l-11 -15l-7 -19l-11 -17l-15 -16l-11 -17l-12 -16l-11 -19l-9 -15l-12 -18l-11 -17l-7 -15l-10 -16l-11 -16l-19 -16l-24 -16l-22 1l-21 -2l-7 16l7 12l10 15l11 14l12 15l6 14l13 14l10 16l8 15l14 17l14 14l13 16l7 18l15 17l10 15
l8 19l13 17l6 15l14 20l7 16l14 19l5 17l17 20l9 18l11 16l11 20l6 18l13 16l6 18l12 19l7 19l12 18l14 20l4 19l8 19l17 19l11 20l4 17l5 13h-16l-23 -2h-37l-6 16l9 16l23 14l25 1l14 -2h25l11 1l8 17l16 18l1 20l10 17l23 36l16 16l10 18l10 18l10 15l17 17l13 16l14 15
l8 16l13 14l24 12l10 11l17 8l25 6l19 6l21 4h32l28 -6l15 -7l15 -10l24 -12l9 -15l7 -22l2 -2l14 20l7 18l8 16l26 20l19 -1l26 1l8 -19z" />
    <glyph glyph-name="K_i.liga" unicode="Ki" horiz-adv-x="1089" 
d="M513 427l-10 -19l-10 -30l-14 -26l-8 -18l-9 -16l-10 -18l-10 -15l-5 -19l-12 -17l-17 -17l-7 -15l-12 -18l-13 -17l-10 -16l-9 -16l-8 -15l-10 -17l-18 -14l-13 -17l-16 -13l-15 -14l-15 -15l-12 -13l-14 -10l-17 -11l-17 -10l-22 -9l-13 -6l-19 -2l-22 -3h-38l-19 5
l-20 9l-17 13l-9 14l-4 17l-7 20l2 19l2 22l10 18l7 17l12 19l10 15l20 5l10 -8l-2 -16l-16 -16l-10 -15l-13 -18l-5 -18l1 -21l8 -18l15 -15l14 -12l24 -16l22 -3l24 11l13 12l11 11l16 10l21 14l15 14l13 14l13 17l5 15l16 17l17 17l12 19l8 18l9 17l9 19l12 16l17 20
l8 19l12 19l11 18l11 20l5 20l8 17l19 37l10 19l16 19l5 17l14 17l11 16l7 16l12 17l24 35l13 14l16 16l13 14l8 16l21 11l18 13l18 10l11 11l21 9v2l-38 4l-47 8l-18 2l-18 1l-18 1l-18 1l-27 1l-33 2l-48 -7l-20 -4l-12 -5l-45 -14l-15 -10l-14 -9l-17 -13l-14 -12
l-21 -15l-13 -16l-12 -37l-6 -19l-9 -24l2 -15l15 -18l8 -15l31 -14l35 8l13 5l21 8l23 10l18 14l6 15l14 16l19 9l12 -9l-3 -16l-11 -15l-20 -14l-10 -13l-22 -11l-18 -10l-23 -5l-20 -5l-12 -5l-43 2l-22 2l-17 4l-23 7l-16 9l-11 14l-8 14l-8 18l-2 21l4 17l7 19l18 34
l13 16l7 13l19 15l10 12l22 9l10 10l18 10l22 8l14 9l19 7l26 7l14 3l16 6l21 1l24 3l22 2l13 3h49l10 -1l25 -1l21 -3l15 -1l41 -5l20 -2l14 -5l24 -1l17 -5l39 -6l33 -1l3 -19l-14 -18l-24 -4l-15 -6l-19 -10l-15 -10l-15 -11l-26 -27l-13 -16l-16 -15l-14 -18l-9 -16
l-12 -18l-15 -20l-11 -18l-12 -16zM1155 116l-12 -16l-10 -17l-16 -15l-14 -15l-5 -14l-22 -12l-9 -14l-22 -11l-15 -10l-15 -12l-16 -7l-34 -11l-25 -5l-36 1l-16 5l-23 5l-10 11l-13 13l-10 17v21l2 19l-24 -17l-7 -11l-26 -11l-9 -9l-21 -9l-14 -8l-20 -7l-21 -7l-16 -6
l-21 -2l-25 -3l-35 -1l-26 5l-9 8l-16 11l-17 14l-2 17l-11 20l4 19l2 21l13 18l1 17l27 37l10 17l9 17l13 14l8 17l28 36l4 17v19l-3 15l-14 10l-21 8l-23 4l-54 2l-1 16l20 15l34 3l11 3l43 16l17 12l16 13l19 11l14 15l13 15l13 14l10 17l13 16l9 16l29 32l12 15l14 18
l10 14l20 15l9 13l15 14l20 12l12 12l21 8l24 9l18 7l18 4l19 2l41 -1l18 -3l20 -6l27 -9l13 -10l16 -13l9 -16l13 -18l6 -20l10 -30l2 -33l-11 -18l-21 -14l-29 -7l-32 15l-8 15l-5 21l3 20l14 17l14 11l4 19l-7 18l-15 17l-15 10l-33 12l-44 -7l-20 -5l-21 -10l-7 -11
l-23 -13l-6 -12l-15 -16l-17 -14l-9 -17l-7 -17l-14 -14l-10 -18l-16 -14l-5 -16l-11 -17l-22 -15l-9 -12l-13 -15l-14 -12l-22 -13l-8 -10l-25 -10l-10 -9l-22 -8l-26 -3v-3l24 -1l20 -6l17 -8l19 -15l8 -18v-18l-7 -18l-6 -19l-9 -16l-5 -18l-11 -14l-19 -16l-11 -18
l-5 -16l-29 -34v-20l-12 -20l-2 -20l7 -18l22 -15l16 -6l40 -1l17 4l25 5l19 8l16 8l13 10l25 10l17 14l13 11l17 13l3 8l4 18l21 33l4 18l18 17l3 19l14 18l5 19l11 18l12 17l7 19l15 17l6 19l14 17l7 16l32 18l14 -1h20l11 -15l-4 -19l-17 -15l-3 -18l-11 -18l-17 -17
l-8 -17l-11 -17l-10 -16l-5 -18l-13 -15l-13 -19l-9 -17l-12 -36l-10 -17l-8 -22l-6 -20l4 -21l9 -16l24 -11l38 2l20 4l23 8l16 10l16 12l15 12l16 16l9 15l17 16l9 16l16 17l22 11l10 -6z" />
    <glyph glyph-name="K_j.liga" unicode="Kj" horiz-adv-x="1070" 
d="M411 234l-7 -17l-11 -18l-17 -16l-8 -18l-14 -15l-10 -17l-14 -15l-6 -16l-41 -44l-22 -13l-14 -13l-14 -10l-14 -12l-16 -9l-17 -9l-41 -10l-24 -4l-39 3l-16 5l-12 9l-18 12l-18 14l-8 17l-2 21l-1 20l7 18l12 20l11 19l13 15l9 16l13 7l12 -2l-2 -24l-18 -15l-10 -15
l-2 -19l-9 -17l-1 -21l2 -19l18 -14l10 -11l22 -19l34 1l11 4l17 17l20 10l24 24l16 14l15 16l18 16l6 16l13 16l11 16l14 18l9 19l11 18l17 17l10 19l13 18l13 21l6 19l9 18l13 19l10 19l8 19l17 36l13 18l9 20l6 17l14 16l9 18l6 17l16 15l9 18l11 14l20 17l8 14l20 17
l11 14l16 12l19 12l13 11l18 9l21 7v3l-30 5l-18 3l-20 1l-17 5l-17 1l-26 1l-13 4l-21 -1l-28 3h-40l-11 -3l-25 -3l-24 -4l-14 -5l-20 -7l-16 -7l-19 -11l-20 -9l-17 -14l-12 -12l-12 -15l-10 -17l-21 -35l-11 -18l-5 -21l3 -20l15 -17l14 -18l25 -11l25 3l25 10l21 8
l19 11l18 12l15 17l12 15l18 11l7 -12l-2 -14l-19 -14l-9 -15l-21 -12l-15 -13l-13 -8l-26 -7l-21 -6l-12 -1l-39 -2l-24 4l-19 4l-19 5l-13 12l-18 11l-13 17l-9 19l3 19l2 18l8 18l19 34l15 16l7 13l12 14l16 11l17 11l18 10l17 11l19 7l19 9l13 7l21 6l19 6l19 3l24 4
l16 3h28l15 3l44 -1h15l39 -3l21 -2l38 -7l23 -3l18 -1l20 -5l18 -3l11 -3l20 -3l32 -2l11 -11l-9 -22l-44 -13l-22 -9l-17 -10l-16 -13l-10 -11l-17 -16l-15 -15l-15 -16l-7 -17l-12 -17l-14 -16l-7 -18l-14 -19l-6 -19l-13 -19l-10 -17l-14 -33l-16 -21l-7 -20l-3 -16
l-12 -18l-14 -17l-9 -16l-10 -18zM1152 492l-17 -13l-31 -3l-28 12l-17 26l7 30l10 15l16 30l-1 20l-19 17l-8 11l-19 6l-40 1l-22 -3l-22 -6l-31 -21l-12 -11l-15 -14l-10 -15l-13 -15l-14 -16l-8 -16l-18 -16l-7 -17l-9 -15l-17 -16l-5 -16l-18 -14l-12 -13l-16 -15
l-18 -14l-16 -11l-9 -12l-40 -18l-11 -9l-31 -3v-2l24 -5l40 -12l18 -13l8 -18l2 -17l-10 -19l-6 -19l-13 -16l-7 -18l-13 -14l-5 -16l-13 -16l-13 -16l-21 -32l-4 -22l-5 -20l-3 -21l4 -20l14 -13l23 -7l34 -1l23 2l19 6l21 7l13 10l17 11l24 9l11 12l24 15l6 18l11 19
l22 33l12 18l5 17l17 17l10 16l3 17l12 18l26 35l7 18l13 18l11 17l6 18l24 18l26 -1l14 2l11 -19l-11 -16l-3 -18l-12 -16l-12 -18l-11 -16l-13 -16l-10 -19l-9 -15l-5 -19l-17 -15l-8 -18l-11 -18l-4 -15l-11 -17l-7 -18l-12 -16l-15 -19l-12 -16l-9 -17l-4 -18l-10 -15
l-8 -19l-10 -15l-13 -17l-12 -18l-7 -16l-15 -17l-9 -17l-19 -35l-9 -16l-9 -18l-18 -14l-14 -16l-8 -15l-13 -13l-16 -14l-21 -13l-12 -11l-14 -8l-41 -17l-17 -5l-24 -5l-16 -3l-42 -1l-20 4l-18 5l-13 7l-33 27l-4 17l-3 20l9 19l24 34l7 13l15 15l17 11l14 11l17 9l20 6
l19 7l14 7l19 4l23 6l15 1l25 1l18 3l-2 -14l-20 -11l-18 -4l-22 -1l-21 -6l-14 -5l-24 -6l-13 -10l-19 -11l-15 -11l-16 -15l-18 -34l-9 -22l9 -21l11 -24l24 -7l40 -2l21 8l13 8l35 34l13 12l15 14l14 16l15 17l10 17l17 16l9 19l21 34l6 20l17 16l4 18l10 20l11 17l9 17
l18 19l6 15l5 13l-7 -9l-16 -12l-12 -9l-21 -10l-13 -8l-24 -8l-17 -4l-18 -7l-21 -4h-17h-43l-21 4l-21 7l-14 11l-12 12l-9 20l-3 19l6 18l4 21l8 20l5 16l20 30l16 24l5 16l15 15l15 19l12 17l8 16l4 19l7 16l-13 15l-9 13l-22 7l-20 4l-43 2l-12 14l9 15l60 10l16 7
l19 7l12 13l23 10l16 14l17 14l12 14l10 16l9 16l13 17l17 14l15 16l13 16l5 17l12 16l18 14l13 15l13 15l22 13l10 12l15 10l26 11l14 8l19 6l20 5l25 2l32 -1l30 -2l13 -7l19 -9l21 -10l13 -14l18 -16l5 -19l10 -18l1 -19l7 -44z" />
    <glyph glyph-name="T_h.liga" unicode="Th" horiz-adv-x="1098" 
d="M1161 130l-16 -15l-9 -15l-14 -17l-11 -13l-18 -14l-16 -14l-15 -13l-15 -9l-17 -12l-17 -9l-18 -7l-19 -7l-18 -4l-20 -3h-35l-22 3l-20 7l-14 12l-9 12l-8 18l-5 18v21l3 19l10 19l5 19l14 34l8 15l17 13l8 17l16 16l15 32l10 19l14 22l-5 20l-11 19l-14 15l-18 6
l-27 4l-25 -6l-21 -9l-15 -9l-12 -13l-21 -13l-17 -19l-5 -10l-10 -16l-11 -13l-24 -36l-11 -17l-10 -18l-8 -16l-15 -17l-2 -17l-18 -19l-3 -17l-10 -15l-13 -18l-7 -16l-8 -18l-10 -18l-31 -15l-23 -1l-14 1l-14 16l14 20l5 15l17 17l1 19l15 16l7 18l8 17l18 17l2 17
l11 16l13 18l7 18l17 17l7 18l9 22l14 17l7 17l9 16l11 14l8 17l11 19l18 34l12 17l14 18l10 16l5 16l13 19l6 15l10 19l18 15l6 17l12 26l-33 -7l-39 -1l-39 7l-13 7l-18 9l-21 8l-13 11l-13 -10l-17 -12l-20 -15l-10 -13l-15 -18l-14 -16l-4 -18l-14 -15l-13 -20l-10 -16
l-10 -18l-7 -18l-9 -20l-17 -37l-14 -18l-5 -16l-14 -18l-9 -18l-6 -17l-17 -16l-10 -16l-3 -17l-17 -19l-3 -15l-16 -17l-7 -16l-15 -18l-9 -15l-11 -17l-15 -15l-28 -28l-10 -14l-16 -13l-20 -13l-18 -14l-15 -9l-15 -11l-20 -7l-13 -7l-19 -2l-17 -4l-44 1l-15 6l-21 7
l-11 12l-20 16l-3 18l-5 18l3 21v21l6 17l13 18l12 18l18 16l20 5l4 -13l-20 -27l-18 -15l-4 -18l-8 -18v-21l6 -19l9 -16l17 -10l16 -6l41 -2l13 4l21 8l16 10l16 11l15 13l6 13l17 15l11 16l13 16l16 17l15 17l9 17l15 20l10 16l13 18l8 21l13 18l3 20l18 19l3 19l12 19
l7 19l10 19l25 36l12 17l6 20l6 18l10 16l12 19l15 18l9 16l9 17l21 17l11 16l13 15l19 13l13 7l18 13l27 7l-16 12l-19 11l-16 8l-18 10l-21 6l-18 6l-15 4l-26 1l-42 1l-17 -3l-18 -2l-23 -5l-20 -8l-21 -5l-16 -8l-13 -10l-19 -9l-16 -14l-11 -11l-22 -15l-14 -22
l-11 -27l-7 -19l-10 -21l-1 -20l15 -21l9 -13l31 -10l49 8l15 5l22 9l18 10l10 14l14 12l16 15l13 11l17 -8l-10 -16l-16 -13l-7 -14l-18 -12l-17 -11l-21 -9l-16 -10l-19 -5l-19 -5l-12 -2l-46 -1l-16 3l-21 3l-15 7l-22 11l-17 13l-10 16l2 18l-3 19v18l13 27l15 25l12 15
l19 13l7 15l24 12l10 9l19 10l14 10l26 7l10 10l24 6l19 5l22 6l13 5l22 2l20 2l22 3l19 1h42l19 -2l15 -1l27 -3l22 -4l15 -3l17 -5l20 -7l19 -6l18 -6l23 -9l22 -5l18 -9l17 -5l21 -6l14 -1l20 -3h48l13 2l25 3l24 5l17 7l19 10l25 7l15 12l22 6l1 -14l-15 -22l-17 -11
l-18 -13l-14 -11l-12 -20l-13 -20l-6 -17l-9 -20l-12 -17l-14 -18l-8 -17l-7 -20l-7 -18l-9 -18l-10 -18l-13 -16l-21 -34l-19 -28h3l17 15l21 11l17 9l12 10l19 4l26 4l35 2l22 -4l14 -8l17 -12l21 -13l7 -18l1 -18l6 -20l-3 -21l-5 -19l-12 -18l-20 -31l-13 -15l-5 -15
l-18 -14l-3 -16l-21 -35l-11 -17l-3 -22l4 -19v-19l14 -14l21 -9l40 1l16 3l16 10l24 9l20 13l8 13l18 14l11 14l12 17l20 16l13 16l16 14l9 -8z" />
    <glyph glyph-name="T_i.liga" unicode="Ti" horiz-adv-x="816" 
d="M1002 674l-10 -15l-13 -12l-21 -14l-18 -12l-12 -11l-34 -18l-18 -8l-18 -8l-23 -7l-15 -3l-41 -1l-16 5l-27 5l-12 6l-18 9l-17 11l-22 9l-11 6l-3 -3l-18 -17l-10 -13l-17 -16l-8 -15l-15 -17l-12 -18l-12 -15l-8 -18l-13 -19l-11 -19l-5 -18l-9 -19l-18 -34l-17 -19
l-9 -17l-8 -19l-5 -15l-11 -17l-10 -18l-6 -18l-10 -17l-14 -16l-7 -18l-15 -15l-11 -17l-14 -15l-8 -17l-9 -15l-19 -16l-11 -14l-12 -17l-10 -13l-17 -12l-22 -15l-8 -12l-23 -9l-12 -11l-18 -6l-18 -6l-17 -6l-58 -2l-27 5l-13 9l-18 13l-12 15l-6 18l-4 18l4 20l4 21
l8 20l1 18l19 16l14 15l21 5l7 -7l-12 -17l-11 -13l-7 -16l-15 -20l-6 -18v-21l5 -17l12 -15l19 -11l19 -9l35 1l15 5l12 6l23 8l11 11l14 15l30 27l8 18l16 16l10 15l18 19l13 18l9 18l8 16l15 20l10 17l13 19l10 21l4 18l14 20l11 19l6 17l15 20l21 37l7 19l6 16l11 20
l14 16l10 20l10 17l10 16l13 16l11 18l13 15l18 14l28 24l20 13l19 9l-7 5l-20 12l-37 17l-17 8l-21 8l-22 2l-13 4l-61 -3l-25 -2l-19 -6l-13 -6l-23 -8l-22 -7l-15 -8l-15 -11l-17 -12l-11 -12l-20 -16l-8 -14l-21 -36l-4 -19l-10 -20l1 -20l12 -18l14 -15l19 -5l38 -1
l24 5l12 4l16 9l15 10l15 13l13 14l18 16l18 8l6 -5l-8 -17l-13 -14l-7 -14l-18 -12l-18 -11l-19 -10l-15 -8l-20 -5l-12 -4l-25 -3l-34 -1l-25 2l-11 4l-26 7l-11 11l-17 13l-13 16v18l1 19l4 19l7 16l18 36l22 30l15 13l16 10l13 12l22 11l10 8l21 8l25 8l17 6l18 8l20 3
l14 4l22 5l18 3l20 1l29 2l32 -2l22 -1l38 -3l23 -2l25 -6l12 -3l27 -8l16 -7l19 -5l18 -9l14 -6l19 -6l19 -7l24 -6l15 -1l26 -3h35l27 1l22 4l19 5l18 7l19 8l19 11l17 10l24 5l8 -5zM893 141l-8 -15l-15 -16l-11 -15l-22 -30l-17 -13l-11 -14l-31 -24l-20 -10l-15 -11
l-20 -9l-19 -6l-14 -5l-17 -2h-44l-19 3l-33 16l-7 15l-13 16l-4 21l4 19l2 20l8 18l3 21l22 34l7 16l7 18l13 18l12 18l7 19l14 18l15 18l5 18l13 17l8 17l11 17l4 18l32 19l37 -2l17 -15l-9 -17l-15 -18l-10 -18l-7 -17l-12 -16l-10 -16l-11 -17l-8 -17l-21 -35l-12 -17
l-4 -16l-18 -32l-16 -24l-7 -21l3 -21l-1 -20l14 -17l17 -10l40 2l16 5l25 6l16 12l16 12l14 11l15 15l19 16l6 15l21 16l9 19l22 10z" />
    <glyph glyph-name="T_j.liga" unicode="Tj" horiz-adv-x="783" 
d="M1005 676l-16 -13l-10 -14l-36 -24l-18 -11l-19 -10l-13 -10l-22 -8l-15 -7l-13 -6l-26 -5l-34 2l-21 2l-21 6l-17 7l-18 9l-25 12l-19 14l-35 -33l-13 -16l-17 -15l-8 -17l-17 -17l-5 -19l-13 -17l-15 -17l-7 -18l-5 -20l-10 -17l-20 -37l-15 -19l-2 -17l-9 -18l-10 -17
l-10 -15l-10 -19l-11 -16l-11 -17l-15 -16l-11 -17l-10 -17l-7 -18l-11 -14l-16 -17l-11 -16l-14 -16l-7 -14l-16 -16l-15 -14l-17 -13l-7 -13l-23 -11l-10 -11l-19 -10l-21 -7l-22 -5l-10 -5l-27 -3l-39 2l-17 4l-21 10l-11 12l-15 13l-5 18l-8 20l6 19l6 20l2 21l8 17
l13 17l13 16l18 13l12 -9l-2 -24l-19 -16l-12 -14l-2 -18l-11 -20l3 -20l2 -17l17 -16l10 -11l21 -7l35 -1l12 5l16 5l23 9l16 11l15 15l11 13l16 15l9 15l11 18l20 17l10 17l12 18l6 18l10 18l20 18l5 19l11 17l11 21l15 19l11 19l5 19l14 19l11 19l13 36l14 18l11 17l5 18
l15 19l5 19l15 16l8 17l18 16l10 17l11 16l19 14l8 16l45 23l10 6l-25 16l-20 11l-14 7l-18 10l-24 6l-13 2l-29 2l-35 1l-21 -1l-22 -5l-18 -3l-23 -7l-18 -6l-17 -10l-15 -9l-18 -8l-13 -13l-15 -14l-21 -12l-12 -15l-12 -36l-14 -18l-2 -21l4 -22l2 -18l21 -12l21 -8
l32 1l20 3l20 7l15 7l15 10l18 14l10 14l16 13l21 10l11 -9l-19 -26l-16 -16l-12 -11l-25 -10l-10 -9l-17 -8l-19 -7l-19 -4l-23 -4h-41l-17 1l-15 5l-24 7l-17 9l-8 15l-12 16l-5 16l-3 20l5 19l10 18l20 35l5 13l15 14l18 13l12 13l12 11l17 11l18 8l27 9l13 6l21 8l22 7
l20 5l15 3l21 2l20 4l21 1l15 1h63l45 -3l18 -3l20 -4l15 -6l26 -7l17 -6l16 -7l21 -6l18 -7l16 -7l26 -6l20 -7l20 -1l16 -4h43l21 4l15 2l20 7l25 6l19 8l23 10l13 11l18 10l8 -6zM797 363l-13 -18l-5 -17l-14 -17l-8 -15l-10 -17l-14 -19l-5 -16l-13 -17l-8 -18l-5 -15
l-12 -17l-17 -17l-5 -18l-11 -16l-14 -18l-9 -18l-6 -17l-11 -15l-8 -17l-9 -18l-10 -18l-14 -15l-10 -18l-8 -16l-15 -19l-6 -16l-12 -18l-5 -16l-22 -33l-11 -17l-11 -16l-13 -16l-11 -16l-18 -14l-15 -14l-16 -14l-9 -12l-19 -10l-20 -10l-17 -11l-13 -6l-40 -10l-16 -3
l-43 1l-22 2l-15 4l-15 10l-18 11l-10 15l-6 17l-1 20l3 17l14 34l16 15l12 14l34 20l12 11l20 6l35 12l28 5l15 5l21 3l16 1l20 -10v-13h-22l-16 -3l-18 -4l-25 -3l-20 -7l-13 -6l-24 -8l-12 -10l-15 -13l-19 -14l-14 -37l-9 -21l7 -19l17 -15l17 -7h38l21 6l22 9l18 11
l10 12l18 12l14 15l17 15l17 17l11 16l14 16l9 20l22 34l6 18l10 18l9 19l15 17l5 19l8 16l9 20l9 15l14 18l12 17l13 18l3 16l8 20l19 16l1 18l19 16l5 17l13 17l4 18l12 16l16 19l6 15l7 19l16 18l4 17l15 18l5 15l31 18h24l18 1z" />
    <glyph glyph-name="f_f.liga" unicode="ff" horiz-adv-x="542" 
d="M845 564l-13 -24l-16 -13l-18 -7l-34 -5l-26 18l-6 16l8 25l21 18h29l18 -12l2 1l8 20l-5 16l-14 16l-18 6l-42 1l-15 -6l-15 -9l-24 -12l-8 -13l-21 -14l-11 -14l-15 -16l-13 -16l-5 -17l-15 -16l-5 -18l-14 -17l-11 -18l-5 -19l-14 -17l-5 -17l-12 -21h10l11 1h20l26 1
l23 -2l10 -14l-2 -19l-22 -15l-35 3l-18 2l-21 -1l-20 1h-9l-2 -7l-9 -19l-11 -19l-6 -17l-16 -16l-7 -19l-8 -16l-10 -16l-6 -17l-17 -18l-3 -17l-12 -16l-9 -18l-13 -16l-13 -17l-6 -18l-13 -18l-5 -15l-11 -19l-13 -15l-5 -19l-16 -17l-9 -15l-6 -19l-14 -16l-3 -17
l-14 -17l-12 -16l-9 -19l-15 -15l-4 -18l-14 -16l-13 -19l-12 -15l-11 -18l-6 -15l-20 -16l-4 -15l-31 -17l-51 2l-1 13l11 13l10 16l11 14l5 13l17 16l10 13l7 15l7 17l14 14l6 18l18 14l11 16l5 17l16 17l9 17l15 19l10 17l10 18l12 18l8 17l9 18l12 17l8 19l6 17l9 20
l10 16l16 20l4 18l12 18l9 18l11 20l8 19l17 19l6 19l26 35l9 21l6 11h-17l-24 -2l-20 2l-16 -2l-28 2l-21 -2l-13 2l-20 -2l-23 2h-10l-6 -9l-4 -16l-8 -20l-7 -16l-14 -19l-10 -17l-8 -17l-6 -15l-13 -18l-11 -17l-5 -16l-9 -18l-10 -18l-14 -17l-13 -16l-12 -18l-4 -16
l-9 -16l-10 -19l-15 -17l-3 -17l-18 -17l-9 -16l-4 -18l-16 -17l-7 -16l-8 -17l-17 -17l-7 -16l-7 -18l-18 -17l-7 -16l-11 -19l-10 -16l-16 -16l-13 -16l-4 -17l-12 -14l-22 -16h-35l-14 -1l-14 6l11 23l16 14l3 15l9 14l16 14l9 14l14 17l10 14l11 17l11 16l8 16l13 15
l7 16l12 17l13 17l10 17l9 18l12 17l9 18l7 19l10 18l11 18l14 19l7 16l13 20l8 16l15 18l6 18l14 19l3 19l12 20l6 18l11 18l11 19l13 19l5 21l11 17l7 13l-37 -2l-22 2l-25 -7l-3 20l8 29l29 3l23 -1h41l13 -1l8 19l3 17l17 18l10 18l3 18l10 19l18 18l9 15l10 18l7 16
l19 18l14 15l8 15l16 14l13 15l12 12l23 12l19 10l16 8l15 4l27 4l35 -1l15 -3l27 -6l17 -12l14 -12l7 -17l6 -23h3l14 10l11 14l22 15l13 9l18 10l23 9l31 9l47 -1l18 -2l19 -8l16 -11l14 -13l6 -17l10 -18v-21zM572 596l-11 17l-14 14l-15 9l-12 5l-41 1l-18 -7l-19 -8
l-16 -11l-16 -14l-8 -13l-14 -15l-11 -16l-21 -17l-2 -18l-17 -17l-5 -17l-18 -16l-3 -19l-9 -17l-13 -17l-15 -19l-8 -19l12 1h19l16 -1h27l19 -1l14 2l22 -1l18 1l20 -2h20l8 20l8 16l15 20l8 16l10 19l8 19l8 16l11 17l8 16l19 17l12 16l8 16z" />
    <glyph glyph-name="f_f_i.liga" unicode="ffi" horiz-adv-x="806" 
d="M534 340l-16 1l-21 -2h-10l-5 -6l-2 -18l-10 -19l-11 -18l-6 -18l-9 -18l-16 -18l-6 -18l-5 -17l-25 -35l-6 -15l-11 -18l-14 -16l-5 -18l-11 -16l-6 -19l-11 -15l-12 -18l-14 -17l-9 -18l-5 -17l-9 -15l-13 -18l-10 -18l-10 -17l-14 -15l-12 -17l-11 -18l-7 -17l-12 -18
l-9 -17l-12 -14l-17 -18l-8 -16l-13 -14l-15 -17l-3 -17l-34 -15h-44l-7 15l10 13l15 14l9 14l6 15l14 15l8 15l11 14l8 16l20 16l6 15l13 16l13 17l12 16l7 17l10 18l8 17l10 16l14 18l13 19l10 18l7 17l10 19l17 17l5 19l6 16l14 18l13 18l12 20l9 17l10 20l6 20l7 17
l18 21l1 19l13 19l16 17l4 20l9 12h-23l-19 -1h-20l-19 1h-19l-19 -1l-37 2l-22 -1h-9l-4 -6l-10 -20l-8 -18l-14 -15l-4 -18l-11 -19l-7 -16l-13 -16l-5 -19l-10 -17l-9 -16l-12 -17l-9 -18l-9 -15l-10 -19l-20 -35l-11 -17l-10 -15l-16 -17l-3 -17l-12 -17l-14 -18
l-11 -17l-4 -18l-7 -15l-13 -18l-11 -16l-9 -18l-16 -16l-11 -17l-14 -18l-6 -17l-7 -18l-11 -14l-20 -16l-11 -17l-7 -17l-38 -14l-18 -1l-15 2l-12 12l17 16l8 13l5 14l14 14l4 14l16 17l12 13l7 15l9 18l9 15l16 15l13 16l5 17l10 18l19 17l7 18l16 17l3 17l14 17l14 20
l3 18l9 16l16 20l12 18l9 18l5 18l14 17l7 17l7 20l14 19l7 18l15 19l10 19l6 20l16 17l10 19l4 19l10 12h-21l-18 -1l-23 1h-22l-5 14l5 15l17 16l50 -1l26 1h14l7 17l12 18l4 17l10 19l9 18l15 17l3 18l14 17l17 18l7 16l17 17l13 15l8 14l11 15l23 15l16 13l11 11l19 11
l17 7l22 4l13 3h42l22 -3l13 -6l16 -11l14 -14l12 -14l8 -20l2 -11l23 14l15 13l9 13l21 11l12 8l26 8l10 6l26 3l17 4l36 -1l26 -3l13 -5l20 -11l17 -10l15 -15l18 -19l5 -18l7 -20l1 -20l-5 -21l-10 -14l-21 -17l-27 -1l-30 13l-14 13l-7 23l6 20l19 15l22 5l2 2l-2 25
l-16 11l-23 7h-43l-19 -3l-11 -6l-17 -11l-17 -10l-18 -11l-21 -28l-15 -16l-15 -15l-10 -18l-11 -15l-11 -18l-11 -17l-6 -18l-12 -16l-14 -20l-4 -18l-10 -18l23 1l24 -1l19 1l18 -2l11 -13l-7 -17l-16 -16l-37 3zM441 405l13 16l4 19l15 18l13 17l7 17l15 18l8 18l6 16
l11 15l15 18l2 23l-6 15l-15 15l-11 9l-15 6l-39 -1l-23 -5l-19 -10l-11 -10l-13 -14l-22 -15l-8 -14l-11 -15l-19 -18l-15 -33l-10 -18l-15 -15l-12 -19l-9 -19l-11 -18l-6 -18l-10 -18h34l17 -1h43l19 2h14l18 -2h29l7 1zM882 146l-7 -19l-10 -17l-15 -17l-7 -13l-17 -16
l-9 -15l-16 -13l-18 -10l-13 -13l-21 -11l-18 -10l-17 -9l-11 -7l-19 -4l-18 -4h-40l-17 6l-24 5l-14 11l-5 13l-11 17l-4 21l-3 19l7 21l-1 19l15 24l17 27l9 19l12 16l9 19l12 19l4 17l13 17l8 18l15 18l7 20l9 16l11 17l13 18l28 19l13 -1h27l5 -16l-17 -37l-17 -15
l-9 -17l-2 -19l-11 -16l-17 -17l-6 -18l-10 -15l-12 -19l-6 -16l-17 -18l-14 -34l-9 -21l-7 -19l-2 -22v-21l19 -15l10 -11l44 2l15 4l26 8l17 9l11 12l17 15l21 12l12 17l13 14l14 19l6 15l23 14z" />
    <glyph glyph-name="f_f_l.liga" unicode="ffl" horiz-adv-x="821" 
d="M540 338l-23 -1h-13l-10 1l-3 -8l-7 -18l-8 -16l-9 -19l-12 -17l-11 -16l-8 -19l-7 -16l-16 -16l-2 -19l-17 -15l-8 -17l-6 -19l-9 -16l-14 -16l-12 -18l-7 -16l-7 -18l-17 -18l-18 -34l-14 -17l-6 -15l-12 -18l-8 -18l-14 -15l-2 -17l-12 -19l-10 -17l-12 -16l-15 -18
l-10 -16l-5 -18l-18 -16l-9 -15l-15 -16l-9 -18l-10 -14l-35 -16l-20 -1h-20l-3 15l5 15l18 12l8 14l10 16l11 13l4 15l13 17l13 14l7 15l14 17l13 17l8 15l16 16l5 19l17 17l4 15l16 18l9 17l11 19l4 19l18 16l5 18l10 19l12 19l5 17l17 19l6 16l16 18l8 20l8 18l13 20
l10 19l6 18l15 20l9 19l8 19l17 29h-34l-31 1l-39 -2l-16 2l-20 -2h-24l-20 2l-5 -9l-12 -18l-5 -17l-16 -16l-11 -20l-5 -17l-5 -15l-12 -19l-10 -15l-7 -17l-14 -19l-8 -16l-9 -18l-14 -15l-6 -19l-9 -15l-18 -19l-5 -15l-10 -19l-10 -15l-9 -17l-15 -19l-6 -16l-16 -18
l-5 -17l-14 -16l-7 -16l-7 -17l-11 -19l-17 -16l-9 -16l-13 -18l-4 -18l-18 -16l-5 -17l-12 -14l-18 -16l-4 -16l-31 -16l-26 1h-12l-13 13l5 13l10 14l11 16l16 13l4 14l10 17l12 14l16 14l6 17l15 17l9 15l15 17l7 15l13 17l14 17l10 19l6 17l14 17l10 19l11 18l10 16
l5 20l8 18l12 16l14 18l4 18l18 20l2 17l19 18l7 20l4 18l12 19l12 20l7 19l17 18l10 19l18 30l-26 -1l-18 2l-17 -2l-25 -4l-10 19l6 22l36 8h38l17 2l19 -2l9 20l9 16l9 20l11 17l13 18l9 17l5 19l9 17l19 15l6 17l15 17l14 16l9 14l14 15l14 14l23 14l11 10l21 11l21 8
l11 5l24 2h35l24 -3l14 -6l14 -11l18 -13l15 -15l2 -13v-14l-22 -30l4 19l-10 17l-13 14l-15 9l-18 5l-34 -1l-17 -5l-16 -9l-16 -10l-18 -15l-18 -12l-10 -15l-14 -17l-7 -16l-13 -17l-11 -18l-9 -17l-19 -17l-4 -18l-15 -16l-6 -18l-16 -39l28 2l20 -2l19 2l16 -2l22 1
l22 -1l23 2l14 -1l18 -1l11 19l7 17l8 19l13 18l8 19l7 16l14 20l10 16l13 17l15 17l6 17l23 30l24 14l14 16l19 11l17 11l13 10l21 6l15 4l27 4l37 1l18 -6l17 -7l17 -9l24 -15l1 -19l-10 -6l-13 4l-20 11l-17 5l-45 -3l-15 -3l-15 -10l-16 -10l-17 -12l-11 -13l-20 -16
l-13 -15l-24 -35l-9 -17l-15 -17l-6 -16l-16 -19l-6 -19l-11 -17l-8 -19l-10 -18l44 1l21 -2l30 2l6 -15l-7 -25l-31 -6l-17 -1zM949 635l-8 -17l-15 -20l-5 -18l-13 -18l-5 -17l-10 -19l-12 -17l-8 -17l-9 -20l-13 -18l-12 -18l-14 -17l-2 -18l-16 -16l-13 -36l-15 -17
l-13 -17l-4 -15l-16 -19l-8 -15l-7 -19l-9 -17l-17 -15l-9 -18l-4 -18l-16 -17l-3 -15l-18 -37l-16 -18v-20l-5 -21l4 -23l10 -16l22 -9l32 -1l23 6l20 9l19 8l20 13l10 13l20 14l15 16l10 14l13 19l16 20l18 7l9 -11l-20 -26l-13 -17l-11 -15l-18 -15l-6 -14l-15 -11
l-22 -12l-14 -14l-13 -11l-17 -10l-18 -8l-37 -11l-24 -2l-30 -1l-17 5l-19 6l-13 11l-18 13l-8 16l1 20l-8 19l8 21l3 18l14 21l16 33l7 18l22 35l14 16l7 18l7 20l14 17l10 19l5 18l12 17l8 16l14 20l15 34l9 18l11 18l9 19l17 18l6 18l15 17l10 17l2 20l17 17l10 19l5 16
l12 21l15 15l8 19l10 17l24 18h37l9 -15z" />
    <glyph glyph-name="f_h.liga" unicode="fh" horiz-adv-x="808" 
d="M878 124l-7 -14l-18 -17l-9 -14l-13 -16l-20 -15l-14 -13l-14 -12l-15 -10l-20 -10l-37 -18l-18 -5l-16 -7l-15 -2h-44l-17 3l-21 7l-12 11l-17 15v18l-5 19l-2 18l5 19l5 20l7 20l23 32l6 14l16 16l10 16l12 16l23 34l8 18l5 19l-2 23l-5 17l-15 15l-24 8h-34l-39 -13
l-16 -10l-19 -12l-13 -14l-10 -13l-13 -13l-12 -12l-10 -20l-23 -35l-4 -16l-13 -17l-10 -19l-15 -17l-8 -17l-7 -15l-13 -19l-9 -17l-9 -15l-9 -17l-11 -17l-5 -19l-36 -16l-19 1l-20 -1l-3 17l4 18l22 35l10 19l8 15l17 17l5 17l7 19l11 16l12 16l9 19l12 17l10 19l10 19
l11 20l18 16l9 16v16l12 16l7 17l10 18l22 34l9 19l9 18l14 18l13 19l10 17l6 18l11 19l11 18l5 17l14 17v0l-3 19l-6 18l-10 14l-23 10l-17 4l-36 1l-27 -5l-14 -8l-13 -11l-17 -14l-9 -12l-14 -16l-19 -15l-11 -17l-16 -16l-10 -19l-11 -16l-7 -18l-11 -17l-13 -19l-6 -18
l-6 -17l-13 -20l7 -1l45 2h16l31 3l4 -18l-11 -25l-27 -7l-20 2h-42l-29 -1l-6 -8l-9 -18l-11 -17l-9 -18l-3 -18l-7 -17l-12 -16l-8 -18l-11 -15l-15 -17l-11 -18l-17 -35l-5 -16l-12 -18l-13 -18l-7 -16l-14 -17l-7 -17l-5 -17l-10 -18l-16 -17l-8 -15l-13 -17l-3 -18
l-11 -16l-16 -18l-11 -18l-11 -16l-11 -18l-10 -16l-5 -18l-15 -16l-8 -18l-13 -16l-17 -14l-9 -16l-10 -17l-36 -14l-17 -2h-16l-9 14l7 16l14 12l6 15l13 15l12 14l12 14l2 15l17 16l11 17l14 14l3 17l16 15l12 19l6 15l12 18l15 16l5 18l18 17l10 19l7 18l6 18l15 19
l11 17l9 17l7 20l11 16l9 19l13 17l17 39l14 18l8 18l13 20l7 18l9 21l12 18l7 18l7 11h-13l-20 1l-19 -1h-26l-8 16l7 16l10 18l22 -3l17 -1l17 1l26 -2h14l9 18l8 20l9 18l9 17l7 19l11 17l9 18l9 16l14 19l16 16l12 15l14 16l8 16l19 15l14 15l14 11l21 12l13 8l21 7
l19 4l24 4h36l19 -4l20 -7l25 -11l7 -11l14 -18l6 -21l13 19l8 17l17 20l24 18l22 -2l13 1l16 -18l-7 -17l-15 -17l-8 -17l-12 -18l-6 -18l-13 -18l-10 -19l-14 -19l-5 -16l-13 -20l-12 -16l-5 -19l-9 -19l-11 -18l-14 -17l-17 -32l-11 -16l-11 -18v0v0h2l25 22l18 13l9 8
l25 7l20 6l17 4l41 1l15 -4l19 -6l21 -12l12 -14l9 -16l4 -20l4 -19l-8 -22l-3 -19l-10 -16l-25 -31l-5 -16l-15 -23l-8 -15l-7 -16l-20 -27l-13 -17l3 -22l-4 -19l3 -18l18 -16l12 -7l48 -2l20 7l18 8l17 9l16 12l12 3l18 15l17 10l14 29l10 18l12 16l20 14l10 -7z" />
    <glyph glyph-name="f_lcaron.liga" unicode="f&#x13e;" horiz-adv-x="542" 
d="M825 665l-8 -16l-15 -18l-13 -16l-13 -14l-7 -16l-12 -14l-17 -14l-14 -15l-13 -13l-27 -5l6 21l9 17l16 16l8 16l8 17l8 17l10 17l12 19l5 16l25 19h9l19 1l11 -18zM667 626l-11 -17l-1 -20l-18 -18l-5 -16l-22 -37l-14 -17l-8 -18l-11 -17l-5 -19l-11 -19l-14 -18
l-8 -17l-16 -32l-8 -17l-17 -18l-5 -17l-8 -16l-18 -19l-5 -17l-12 -16l-13 -16l-3 -18l-12 -16l-16 -19l-6 -17l-15 -36l-6 -17l-11 -22l-6 -20l3 -22l14 -16l22 -9h41l14 4l21 8l16 11l21 12l11 13l19 15l13 15l13 14l9 18l15 16l21 12l12 -6l-15 -14l-9 -18l-5 -16
l-17 -15l-13 -14l-11 -14l-13 -14l-22 -11l-10 -12l-20 -11l-12 -10l-20 -7l-19 -9l-13 -4l-20 -2l-40 -2l-22 4l-18 7l-13 11l-5 14l-10 16l-4 20l-6 20l7 20l1 19l10 18l16 34l14 18l11 18l14 17l10 18l5 18l9 20l8 16l9 20l15 18l9 18l10 17l15 17l14 36l9 18l15 17l7 19
l13 16l5 20l14 16l9 20l11 16l13 19l8 21v0l-4 17l-9 16l-15 16l-14 7l-26 7l-39 -2l-19 -6l-17 -8l-8 -11l-24 -11l-7 -15l-20 -13l-14 -17l-8 -16l-8 -16l-18 -17l-12 -17l-4 -20l-17 -18l-10 -16l-9 -18l-9 -24l-9 -16h32l20 2l24 -2l19 1l9 -14l-8 -17l-20 -14l-27 -1
l-26 1l-18 1l-29 -2v0l-12 -23l-7 -20l-10 -15l-11 -18l-8 -19l-11 -15l-3 -19l-13 -17l-8 -15l-15 -17l-3 -17l-14 -17l-14 -19l-5 -15l-10 -18l-8 -17l-10 -16l-15 -17l-7 -18l-11 -18l-14 -17l-4 -17l-14 -16l-13 -18l-9 -16l-6 -17l-15 -16l-9 -19l-12 -17l-10 -15
l-8 -17l-17 -19l-3 -17l-19 -14l-3 -16l-17 -17l-11 -15l-32 -16l-14 1l-28 -1l-6 13l12 15l5 15l16 12l13 14l9 15l5 15l15 17l3 13l19 16l9 17l12 16l7 17l12 17l14 17l10 17l13 15l8 19l8 18l10 16l14 19l9 18l13 18l7 17l13 19l5 19l13 16l7 19l9 19l15 16l4 19l13 21
l11 18l7 18l16 19l9 20l11 19l13 29l-20 1h-15l-27 -1l-12 1l-14 15l11 14l8 16l33 -1h23l21 2l19 -1l8 19l5 17l7 19l16 18l4 16l11 18l9 18l17 19l7 17l10 16l14 15l15 18l17 15l16 13l12 16l14 10l18 12l15 8l22 9l18 5l16 3l45 -2l16 -4l18 -5l27 -12l11 -13l13 -15
l12 -18l9 14l13 17l8 18l31 19h35l10 -17l-5 -17z" />
    <glyph glyph-name="f_t.liga" unicode="ft" horiz-adv-x="572" 
d="M636 120l-14 -16l-18 -16l-9 -14l-14 -15l-15 -13l-18 -12l-16 -10l-16 -11l-23 -7l-21 -9l-11 -6l-26 -5l-16 -5l-19 -2l-41 1l-17 3l-23 8l-17 10l-12 13l-8 18l-2 17l5 22l3 20v18l10 18l15 35l12 17l7 18l12 17l16 18l9 17l5 17l15 15l5 17l7 19l18 17l5 11l-24 -2
l-27 1l-15 1h-20l-19 -2l-25 2l-14 -1l-29 1h-12l-14 -1l-2 -8l-11 -18l-5 -18l-9 -16l-7 -19l-6 -16l-13 -16l-9 -17l-12 -19l-9 -17l-9 -15l-6 -18l-13 -17l-11 -18l-7 -17l-9 -17l-16 -16l-11 -18l-4 -16l-13 -16l-15 -18l-6 -17l-6 -16l-18 -17l-8 -19l-6 -17l-8 -15
l-14 -17l-16 -18l-9 -16l-7 -18l-8 -17l-17 -18l-13 -15l-3 -17l-12 -15l-14 -17l-16 -15l-29 -16l-22 1l-20 -2l-8 15l15 14l7 13l12 15l8 15l8 13l9 16l11 15l13 15l8 16l10 16l19 17l9 15l10 17l15 17l9 18l10 16l6 16l17 18l7 20l15 17l2 18l13 19l6 16l14 19l10 17
l14 18l9 18l11 19l6 19l11 17l13 19l6 19l9 21l12 19l10 17l12 20l10 18l4 12l-21 -1l-15 2l-24 -2l-32 1l4 14l9 16l11 16l42 -2h35l13 1l10 19l11 16l9 18l8 19l15 18l10 19l10 17l5 17l17 16l5 16l10 17l21 15l7 15l21 17l15 14l7 12l25 11l10 11l19 6l20 5l26 4l38 -1
l20 -2l12 -7l23 -10l13 -15l10 -18l1 -19v-18l-3 -20l-11 -25l-18 -20l-25 -12l-30 -1l-22 15l-2 20l2 18l12 14l20 10h25l19 -9l3 1l4 16l-8 17l-18 15l-16 8h-43l-11 -7l-18 -9l-19 -10l-13 -14l-21 -13l-8 -17l-14 -16l-9 -15l-13 -18l-10 -16l-18 -16l-3 -18l-9 -19
l-11 -18l-17 -17l-7 -17l-13 -20h36l39 -1l40 2l20 -2l20 2l19 -2l28 1l9 18l9 18l9 16l13 18l21 20l18 -2l25 2l9 -20l-9 -16l-13 -20l-1 -17l-13 -17h14l20 -1l23 2h45l17 -5l-13 -27l-22 -13h-28l-19 -2l-20 2h-20l-23 -1l-7 -8l-10 -17l-2 -15l-14 -17l-7 -17l-15 -17
l-11 -18l-5 -17l-13 -18l-6 -17l-15 -16l-13 -35l-8 -21l-9 -18l-6 -22l4 -21l15 -18l18 -7l35 -3l19 4l24 6l19 7l17 7l35 20l27 13l11 12l18 14l4 15l6 16l14 15l19 11l9 -17z" />
    <glyph glyph-name="o_x.liga" unicode="ox" horiz-adv-x="1093" 
d="M1155 131l-16 -13l-14 -14l-14 -12l-15 -13l-11 -11l-15 -13l-23 -10l-17 -11l-16 -9l-17 -8l-13 -8l-22 -6l-22 -9l-18 -6l-33 -7l-18 -2h-47l-20 5l-16 8l-7 11l-20 13l-7 17l-3 19l-1 20l5 25l-1 1l-12 -22l-11 -14l-16 -14l-35 -27l-11 -10l-26 -11l-18 -7l-13 -6
l-19 -6h-48l-12 8l-17 9l-19 17l-4 16l-9 21l2 19l4 20l5 21l21 33l16 12l26 12l29 -2l17 -17l4 -20l-8 -21l-13 -12l-22 -7l-22 5l-16 11l-2 -1l-8 -17l-2 -19l2 -18l7 -17l15 -14l16 -7h40l22 7l10 11l15 13l15 14l19 14l16 17l11 16l6 16l13 19l10 18l14 19l13 34l8 20
l10 16l7 19l4 19l3 21l-1 20l-6 17l-5 17l-22 8h-34l-22 -7l-18 -9l-10 -11l-14 -14l-16 -16l-20 -16l-17 -15l-12 -11l-12 -15l-16 -13l-10 -14l-16 -17l-11 -12l-21 -13l-16 -7l-30 -5l-30 1l-18 5l-21 9l-7 -13l-8 -16l-14 -18l-9 -16l-16 -13l-10 -17l-10 -14l-22 -14
l-13 -12l-17 -13l-17 -9l-12 -13l-38 -18l-17 -5l-15 -8l-18 -2l-20 -4l-43 -1l-25 4l-11 9l-23 9l-5 14l-12 19l-9 18l5 21l1 19l6 19l5 21l2 18l14 20l23 34l10 18l11 16l9 16l14 16l11 13l13 14l17 12l16 15l14 10l14 12l26 9l8 10l24 9l21 9l18 6l14 4l16 4l28 1l35 -1
l17 -6l14 -8l15 -12l18 -13l-3 -19l3 -15l12 -2l21 -11l11 -19v-40l-11 -17l-17 -11l-13 -8l-21 -2v-1l20 -13l34 -4l25 8l13 5l17 13l15 12l15 14l17 19l32 32l10 16l13 15l10 14l10 14l14 11l17 12l23 9l15 5l27 4l39 2l10 -6l19 -9l12 -12l11 -17l5 -17l5 -20l-6 -41h2
l23 34l17 15l13 14l13 14l17 13l12 9l23 10l17 9l14 4l43 2l21 -8l21 -11l14 -16l5 -18l-3 -19l-6 -21l-22 -35l-12 -11l-15 -11l-20 -4l-24 6l-11 13l-6 18l8 22l15 14l22 6l22 -4l13 -16l3 1l9 20l-4 18l-12 14l-14 9l-34 1l-17 -8l-21 -8l-15 -13l-16 -15l-10 -13
l-17 -16l-9 -18l-15 -16l-11 -18l-16 -18l-5 -18l-19 -36l-8 -17l-3 -21l-6 -18l-6 -17l3 -21l4 -19l6 -17l20 -14l15 -6l27 -7h23l22 5l27 7l15 5l29 15l21 10l10 9l18 10l20 14l18 16l13 12l14 12l18 12l20 14l14 7l11 -8zM359 213l-7 29l5 26l16 24l16 13l13 9l-12 16
l-16 15l-11 6h-41l-14 -4l-25 -6l-11 -6l-21 -11l-12 -9l-16 -11l-35 -25l-11 -16l-10 -13l-20 -16l-7 -16l-10 -15l-19 -34l-9 -18l-10 -19l-4 -18l-6 -21v-21l6 -19l1 -18l17 -11l24 -8l37 2l13 5l27 6l13 8l22 12l47 38l11 15l18 16l11 15l11 18l15 16l17 29z" />
    <glyph glyph-name="oacute_x.liga" unicode="&#xf3;x" horiz-adv-x="1093" 
d="M370 482l15 22l10 12l15 15l21 14l8 14l18 16l11 17l12 17l15 17l23 6l20 -13l-1 -27l-11 -15l-21 -16l-9 -11l-20 -14l-16 -12l-15 -13l-13 -11l-22 -10l-18 -9l-12 -6zM1156 131l-16 -13l-14 -14l-14 -12l-15 -13l-11 -11l-15 -13l-23 -10l-17 -11l-16 -9l-17 -8
l-13 -8l-22 -6l-22 -9l-18 -6l-33 -7l-18 -2h-47l-20 5l-16 8l-7 11l-20 13l-7 17l-3 19l-1 20l5 25l-1 1l-12 -22l-11 -14l-16 -14l-35 -27l-11 -10l-26 -11l-18 -7l-13 -6l-19 -6h-48l-12 8l-17 9l-19 17l-4 16l-9 21l2 19l4 20l5 21l21 33l16 12l26 12l29 -2l17 -17
l4 -20l-8 -21l-13 -12l-22 -7l-22 5l-16 11l-2 -1l-8 -17l-2 -19l2 -18l7 -17l15 -14l16 -7h40l22 7l10 11l15 13l15 14l19 14l16 17l11 16l6 16l13 19l10 18l14 19l13 34l8 20l10 16l7 19l4 19l3 21l-1 20l-6 17l-5 17l-22 8h-34l-22 -7l-18 -9l-10 -11l-14 -14l-16 -16
l-20 -16l-17 -15l-12 -11l-12 -15l-16 -13l-10 -14l-16 -17l-11 -12l-21 -13l-16 -7l-30 -5l-30 1l-18 5l-21 9l-7 -13l-8 -16l-14 -18l-9 -16l-16 -13l-10 -17l-10 -14l-22 -14l-13 -12l-17 -13l-17 -9l-12 -13l-38 -18l-17 -5l-15 -8l-18 -2l-20 -4l-43 -1l-25 4l-11 9
l-23 9l-5 14l-12 19l-9 18l5 21l1 19l6 19l5 21l2 18l14 20l23 34l10 18l11 16l9 16l14 16l11 13l13 14l17 12l16 15l14 10l14 12l26 9l8 10l24 9l21 9l18 6l14 4l16 4l28 1l35 -1l17 -6l14 -8l15 -12l18 -13l-3 -19l3 -15l12 -2l21 -11l11 -19v-40l-11 -17l-17 -11l-13 -8
l-21 -2v-1l20 -13l34 -4l25 8l13 5l17 13l15 12l15 14l17 19l32 32l10 16l13 15l10 14l10 14l14 11l17 12l23 9l15 5l27 4l39 2l10 -6l19 -9l12 -12l11 -17l5 -17l5 -20l-6 -41h2l23 34l17 15l13 14l13 14l17 13l12 9l23 10l17 9l14 4l43 2l21 -8l21 -11l14 -16l5 -18
l-3 -19l-6 -21l-22 -35l-12 -11l-15 -11l-20 -4l-24 6l-11 13l-6 18l8 22l15 14l22 6l22 -4l13 -16l3 1l9 20l-4 18l-12 14l-14 9l-34 1l-17 -8l-21 -8l-15 -13l-16 -15l-10 -13l-17 -16l-9 -18l-15 -16l-11 -18l-16 -18l-5 -18l-19 -36l-8 -17l-3 -21l-6 -18l-6 -17l3 -21
l4 -19l6 -17l20 -14l15 -6l27 -7h23l22 5l27 7l15 5l29 15l21 10l10 9l18 10l20 14l18 16l13 12l14 12l18 12l20 14l14 7l11 -8zM360 213l-7 29l5 26l16 24l16 13l13 9l-12 16l-16 15l-11 6h-41l-14 -4l-25 -6l-11 -6l-21 -11l-12 -9l-16 -11l-35 -25l-11 -16l-10 -13
l-20 -16l-7 -16l-10 -15l-19 -34l-9 -18l-10 -19l-4 -18l-6 -21v-21l6 -19l1 -18l17 -11l24 -8l37 2l13 5l27 6l13 8l22 12l47 38l11 15l18 16l11 15l11 18l15 16l17 29z" />
    <glyph glyph-name="odieresis_x.liga" unicode="&#xf6;x" horiz-adv-x="1093" 
d="M268 542l2 32l21 25l22 12l32 -4l16 -13l11 -20l-3 -33l-7 -18l-17 -10l-35 -4l-26 15zM451 572l14 22l25 14l33 -2l20 -11l14 -27l-1 -30l-15 -17l-19 -11l-30 2l-22 9l-16 19zM1151 127l-16 -13l-14 -14l-14 -12l-15 -13l-11 -11l-15 -13l-23 -10l-17 -11l-16 -9
l-17 -8l-13 -8l-22 -6l-22 -9l-18 -6l-33 -7l-18 -2h-47l-20 5l-16 8l-7 11l-20 13l-7 17l-3 19l-1 20l5 25l-1 1l-12 -22l-11 -14l-16 -14l-35 -27l-11 -10l-26 -11l-18 -7l-13 -6l-19 -6h-48l-12 8l-17 9l-19 17l-4 16l-9 21l2 19l4 20l5 21l21 33l16 12l26 12l29 -2
l17 -17l4 -20l-8 -21l-13 -12l-22 -7l-22 5l-16 11l-2 -1l-8 -17l-2 -19l2 -18l7 -17l15 -14l16 -7h40l22 7l10 11l15 13l15 14l19 14l16 17l11 16l6 16l13 19l10 18l14 19l13 34l8 20l10 16l7 19l4 19l3 21l-1 20l-6 17l-5 17l-22 8h-34l-22 -7l-18 -9l-10 -11l-14 -14
l-16 -16l-20 -16l-17 -15l-12 -11l-12 -15l-16 -13l-10 -14l-16 -17l-11 -12l-21 -13l-16 -7l-30 -5l-30 1l-18 5l-21 9l-7 -13l-8 -16l-14 -18l-9 -16l-16 -13l-10 -17l-10 -14l-22 -14l-13 -12l-17 -13l-17 -9l-12 -13l-38 -18l-17 -5l-15 -8l-18 -2l-20 -4l-43 -1l-25 4
l-11 9l-23 9l-5 14l-12 19l-9 18l5 21l1 19l6 19l5 21l2 18l14 20l23 34l10 18l11 16l9 16l14 16l11 13l13 14l17 12l16 15l14 10l14 12l26 9l8 10l24 9l21 9l18 6l14 4l16 4l28 1l35 -1l17 -6l14 -8l15 -12l18 -13l-3 -19l3 -15l12 -2l21 -11l11 -19v-40l-11 -17l-17 -11
l-13 -8l-21 -2v-1l20 -13l34 -4l25 8l13 5l17 13l15 12l15 14l17 19l32 32l10 16l13 15l10 14l10 14l14 11l17 12l23 9l15 5l27 4l39 2l10 -6l19 -9l12 -12l11 -17l5 -17l5 -20l-6 -41h2l23 34l17 15l13 14l13 14l17 13l12 9l23 10l17 9l14 4l43 2l21 -8l21 -11l14 -16
l5 -18l-3 -19l-6 -21l-22 -35l-12 -11l-15 -11l-20 -4l-24 6l-11 13l-6 18l8 22l15 14l22 6l22 -4l13 -16l3 1l9 20l-4 18l-12 14l-14 9l-34 1l-17 -8l-21 -8l-15 -13l-16 -15l-10 -13l-17 -16l-9 -18l-15 -16l-11 -18l-16 -18l-5 -18l-19 -36l-8 -17l-3 -21l-6 -18l-6 -17
l3 -21l4 -19l6 -17l20 -14l15 -6l27 -7h23l22 5l27 7l15 5l29 15l21 10l10 9l18 10l20 14l18 16l13 12l14 12l18 12l20 14l14 7l11 -8zM355 209l-7 29l5 26l16 24l16 13l13 9l-12 16l-16 15l-11 6h-41l-14 -4l-25 -6l-11 -6l-21 -11l-12 -9l-16 -11l-35 -25l-11 -16l-10 -13
l-20 -16l-7 -16l-10 -15l-19 -34l-9 -18l-10 -19l-4 -18l-6 -21v-21l6 -19l1 -18l17 -11l24 -8l37 2l13 5l27 6l13 8l22 12l47 38l11 15l18 16l11 15l11 18l15 16l17 29z" />
    <glyph glyph-name="ograve_x.liga" unicode="&#xf2;x" horiz-adv-x="1093" 
d="M363 612l4 16l11 24l18 5l26 -22l-1 -18v-21l-2 -37l5 -20l6 -22l3 -16l1 -25l-15 -5l-13 19l-8 15l-1 16l-14 22l-9 17l-4 32zM1154 130l-16 -13l-14 -14l-14 -12l-15 -13l-11 -11l-15 -13l-23 -10l-17 -11l-16 -9l-17 -8l-13 -8l-22 -6l-22 -9l-18 -6l-33 -7l-18 -2
h-47l-20 5l-16 8l-7 11l-20 13l-7 17l-3 19l-1 20l5 25l-1 1l-12 -22l-11 -14l-16 -14l-35 -27l-11 -10l-26 -11l-18 -7l-13 -6l-19 -6h-48l-12 8l-17 9l-19 17l-4 16l-9 21l2 19l4 20l5 21l21 33l16 12l26 12l29 -2l17 -17l4 -20l-8 -21l-13 -12l-22 -7l-22 5l-16 11l-2 -1
l-8 -17l-2 -19l2 -18l7 -17l15 -14l16 -7h40l22 7l10 11l15 13l15 14l19 14l16 17l11 16l6 16l13 19l10 18l14 19l13 34l8 20l10 16l7 19l4 19l3 21l-1 20l-6 17l-5 17l-22 8h-34l-22 -7l-18 -9l-10 -11l-14 -14l-16 -16l-20 -16l-17 -15l-12 -11l-12 -15l-16 -13l-10 -14
l-16 -17l-11 -12l-21 -13l-16 -7l-30 -5l-30 1l-18 5l-21 9l-7 -13l-8 -16l-14 -18l-9 -16l-16 -13l-10 -17l-10 -14l-22 -14l-13 -12l-17 -13l-17 -9l-12 -13l-38 -18l-17 -5l-15 -8l-18 -2l-20 -4l-43 -1l-25 4l-11 9l-23 9l-5 14l-12 19l-9 18l5 21l1 19l6 19l5 21l2 18
l14 20l23 34l10 18l11 16l9 16l14 16l11 13l13 14l17 12l16 15l14 10l14 12l26 9l8 10l24 9l21 9l18 6l14 4l16 4l28 1l35 -1l17 -6l14 -8l15 -12l18 -13l-3 -19l3 -15l12 -2l21 -11l11 -19v-40l-11 -17l-17 -11l-13 -8l-21 -2v-1l20 -13l34 -4l25 8l13 5l17 13l15 12l15 14
l17 19l32 32l10 16l13 15l10 14l10 14l14 11l17 12l23 9l15 5l27 4l39 2l10 -6l19 -9l12 -12l11 -17l5 -17l5 -20l-6 -41h2l23 34l17 15l13 14l13 14l17 13l12 9l23 10l17 9l14 4l43 2l21 -8l21 -11l14 -16l5 -18l-3 -19l-6 -21l-22 -35l-12 -11l-15 -11l-20 -4l-24 6
l-11 13l-6 18l8 22l15 14l22 6l22 -4l13 -16l3 1l9 20l-4 18l-12 14l-14 9l-34 1l-17 -8l-21 -8l-15 -13l-16 -15l-10 -13l-17 -16l-9 -18l-15 -16l-11 -18l-16 -18l-5 -18l-19 -36l-8 -17l-3 -21l-6 -18l-6 -17l3 -21l4 -19l6 -17l20 -14l15 -6l27 -7h23l22 5l27 7l15 5
l29 15l21 10l10 9l18 10l20 14l18 16l13 12l14 12l18 12l20 14l14 7l11 -8zM358 212l-7 29l5 26l16 24l16 13l13 9l-12 16l-16 15l-11 6h-41l-14 -4l-25 -6l-11 -6l-21 -11l-12 -9l-16 -11l-35 -25l-11 -16l-10 -13l-20 -16l-7 -16l-10 -15l-19 -34l-9 -18l-10 -19l-4 -18
l-6 -21v-21l6 -19l1 -18l17 -11l24 -8l37 2l13 5l27 6l13 8l22 12l47 38l11 15l18 16l11 15l11 18l15 16l17 29z" />
    <glyph glyph-name="r_z.liga" unicode="r&#x7a;" horiz-adv-x="709" 
d="M717 347l-8 -16l-12 -16l-10 -17l-16 -19l-10 -16l-12 -15l-10 -16l-16 -16l-13 -15l-11 -14l-20 -17l-11 -13l-11 -13l-21 -15l-10 -11l-18 -14l-12 -12l-20 -11l-22 -8l-19 -7v-2l20 -3l19 -5l18 -7l15 -11l18 -15l7 -16l5 -19l7 -19v-20v-21l-4 -20l-14 -19l-8 -18
l-19 -36l-11 -16l-10 -16l-15 -14l-16 -13l-20 -15l-18 -11l-12 -12l-17 -9l-23 -8l-20 -9l-15 -8l-42 -10l-15 -3l-24 -3l-21 -2l-35 -2l-22 4l-17 6l-25 6l-13 13l-11 14l-10 18l-3 19l-4 22l2 19l27 33l7 14l19 12l19 10l17 10l17 7l17 7l23 5l14 2l20 1l15 -6l-3 -11
l-14 -5l-23 -2l-16 -6l-14 -5l-22 -9l-18 -10l-10 -13l-29 -34l-3 -21l5 -18l3 -20l16 -14l15 -10l18 -7l36 -6l26 9l25 6l21 6l18 7l20 11l16 10l18 12l8 12l17 16l17 14l15 17l5 16l25 36l5 19l6 18l6 21l8 21l-5 22l-3 18l-8 20l-14 14l-13 12l-24 7l-28 3l-6 15l14 15
l33 7l16 5l24 16l23 17l13 15l16 14l16 15l16 14l10 18l9 14l15 17l7 18l15 17l8 17l11 14l12 15l14 20v3l-17 -13l-13 -15l-15 -12l-20 -8l-25 -8l-10 -4l-20 -3l-25 -6h-22l-15 2l-17 7l-28 6l-11 -23l-15 -13l-21 -10l-27 -1l-27 11l-9 24l3 25l16 17l8 10l22 6l16 2l2 2
l-5 15l-10 11l-19 5l-17 -2l-22 -9l-16 -9l-38 -24l-14 -12l-13 -12l-14 -17l-11 -15l-11 -19l-17 -17v-1l-6 -16l-9 -16l-9 -17v0v0l-12 -17l-13 -17l-12 -17l-5 -19l-9 -17l-14 -15l-11 -19l-6 -17l-15 -16l-6 -17l-33 -18l-12 2l-25 -2l-8 19l14 17l11 18l11 15l2 17
l15 17l11 17l13 18l7 17l6 17l13 18l12 15l10 18l7 17l16 36l15 17l7 17l11 16l11 19l8 19l6 16l22 20h21l7 -19l-1 -17l-9 -18l-3 -18h3l9 8l11 16l14 13l14 12l21 9l12 11l17 9l20 3h48l14 -7l14 -12l13 -16l8 -25l-3 -25l25 -7l25 -5h23l20 3l22 4l18 5l17 7l21 9l13 9
l23 13l17 12l19 15l19 14l1 1l18 2h20l18 -17z" />
    <glyph glyph-name="r_zcaron.liga" unicode="r&#x17e;" horiz-adv-x="709" 
d="M764 596l-12 -15l-21 -13l-13 -13l-16 -14l-16 -13l-14 -10l-21 -13l-11 -11l-17 -13l-16 -5l-9 7l-13 26l-9 22l-7 20l-3 19l-15 19l4 27l12 13l29 -6l8 -15l11 -19l13 -21l3 -29l3 -11l31 21l16 13l20 11l8 12l21 16l14 12l14 25h13l8 -12zM726 363l-13 -19l-8 -16
l-12 -16l-10 -17l-16 -19l-10 -16l-12 -15l-10 -16l-16 -16l-13 -15l-11 -14l-20 -17l-11 -13l-11 -13l-21 -15l-10 -11l-18 -14l-12 -12l-20 -11l-22 -8l-19 -7v-2l20 -3l19 -5l18 -7l15 -11l18 -15l7 -16l5 -19l7 -19v-20v-21l-4 -20l-14 -19l-8 -18l-19 -36l-11 -16
l-10 -16l-15 -14l-16 -13l-20 -15l-18 -11l-12 -12l-17 -9l-23 -8l-20 -9l-15 -8l-42 -10l-15 -3l-24 -3l-21 -2l-35 -2l-22 4l-17 6l-25 6l-13 13l-11 14l-10 18l-3 19l-4 22l2 19l27 33l7 14l19 12l19 10l17 10l17 7l17 7l23 5l14 2l20 1l15 -6l-3 -11l-14 -5l-23 -2
l-16 -6l-14 -5l-22 -9l-18 -10l-10 -13l-29 -34l-3 -21l5 -18l3 -20l16 -14l15 -10l18 -7l36 -6l26 9l25 6l21 6l18 7l20 11l16 10l18 12l8 12l17 16l17 14l15 17l5 16l25 36l5 19l6 18l6 21l8 21l-5 22l-3 18l-8 20l-14 14l-13 12l-24 7l-28 3l-6 15l14 15l33 7l16 5l24 16
l23 17l13 15l16 14l16 15l16 14l10 18l9 14l15 17l7 18l15 17l8 17l11 14l12 15l14 20v3l-17 -13l-13 -15l-15 -12l-20 -8l-25 -8l-10 -4l-20 -3l-25 -6h-22l-15 2l-17 7l-28 6l-11 -23l-15 -13l-21 -10l-27 -1l-27 11l-9 24l3 25l16 17l8 10l22 6l16 2l2 2l-5 15l-10 11
l-19 5l-17 -2l-22 -9l-16 -9l-38 -24l-14 -12l-13 -12l-14 -17l-11 -15l-11 -19l-17 -17v-1l-6 -16l-9 -16l-9 -17v0v0l-12 -17l-13 -17l-12 -17l-5 -19l-9 -17l-14 -15l-11 -19l-6 -17l-15 -16l-6 -17l-33 -18l-12 2l-25 -2l-8 19l14 17l11 18l11 15l2 17l15 17l11 17
l13 18l7 17l6 17l13 18l12 15l10 18l7 17l16 36l15 17l7 17l11 16l11 19l8 19l6 16l22 20h21l7 -19l-1 -17l-9 -18l-3 -18h3l9 8l11 16l14 13l14 12l21 9l12 11l17 9l20 3h48l14 -7l14 -12l13 -16l8 -25l-3 -25l25 -7l25 -5h23l20 3l22 4l18 5l17 7l21 9l13 9l23 13l17 12
l19 15l19 14l1 1l18 2h20z" />
    <glyph glyph-name="r_zdotaccent.liga" unicode="r&#x17c;" horiz-adv-x="709" 
d="M567 549l2 29l13 16l20 13l21 3l18 -5l19 -10l12 -21l-2 -31l-13 -19l-24 -14l-34 4l-15 10zM715 345l-8 -16l-12 -16l-10 -17l-16 -19l-10 -16l-12 -15l-10 -16l-16 -16l-13 -15l-11 -14l-20 -17l-11 -13l-11 -13l-21 -15l-10 -11l-18 -14l-12 -12l-20 -11l-22 -8
l-19 -7v-2l20 -3l19 -5l18 -7l15 -11l18 -15l7 -16l5 -19l7 -19v-20v-21l-4 -20l-14 -19l-8 -18l-19 -36l-11 -16l-10 -16l-15 -14l-16 -13l-20 -15l-18 -11l-12 -12l-17 -9l-23 -8l-20 -9l-15 -8l-42 -10l-15 -3l-24 -3l-21 -2l-35 -2l-22 4l-17 6l-25 6l-13 13l-11 14
l-10 18l-3 19l-4 22l2 19l27 33l7 14l19 12l19 10l17 10l17 7l17 7l23 5l14 2l20 1l15 -6l-3 -11l-14 -5l-23 -2l-16 -6l-14 -5l-22 -9l-18 -10l-10 -13l-29 -34l-3 -21l5 -18l3 -20l16 -14l15 -10l18 -7l36 -6l26 9l25 6l21 6l18 7l20 11l16 10l18 12l8 12l17 16l17 14
l15 17l5 16l25 36l5 19l6 18l6 21l8 21l-5 22l-3 18l-8 20l-14 14l-13 12l-24 7l-28 3l-6 15l14 15l33 7l16 5l24 16l23 17l13 15l16 14l16 15l16 14l10 18l9 14l15 17l7 18l15 17l8 17l11 14l12 15l14 20v3l-17 -13l-13 -15l-15 -12l-20 -8l-25 -8l-10 -4l-20 -3l-25 -6
h-22l-15 2l-17 7l-28 6l-11 -23l-15 -13l-21 -10l-27 -1l-27 11l-9 24l3 25l16 17l8 10l22 6l16 2l2 2l-5 15l-10 11l-19 5l-17 -2l-22 -9l-16 -9l-38 -24l-14 -12l-13 -12l-14 -17l-11 -15l-11 -19l-17 -17v-1l-6 -16l-9 -16l-9 -17v0v0l-12 -17l-13 -17l-12 -17l-5 -19
l-9 -17l-14 -15l-11 -19l-6 -17l-15 -16l-6 -17l-33 -18l-12 2l-25 -2l-8 19l14 17l11 18l11 15l2 17l15 17l11 17l13 18l7 17l6 17l13 18l12 15l10 18l7 17l16 36l15 17l7 17l11 16l11 19l8 19l6 16l22 20h21l7 -19l-1 -17l-9 -18l-3 -18h3l9 8l11 16l14 13l14 12l21 9
l12 11l17 9l20 3h48l14 -7l14 -12l13 -16l8 -25l-3 -25l25 -7l25 -5h23l20 3l22 4l18 5l17 7l21 9l13 9l23 13l17 12l19 15l19 14l1 1l18 2h20l18 -17z" />
    <glyph glyph-name="racute_z.liga" unicode="&#x155;&#x7a;" horiz-adv-x="713" 
d="M311 480l5 23l18 14l11 12l18 17l19 13l10 17l7 17l17 16l12 16l27 7l20 -13l2 -29l-22 -14l-7 -14l-16 -13l-20 -14l-8 -12l-16 -10l-24 -11l-14 -11l-19 -11h-20zM725 351l-14 -16l-8 -18l-17 -16l-7 -18l-13 -16l-7 -17l-12 -15l-15 -16l-19 -15l-8 -15l-19 -16
l-6 -14l-17 -13l-14 -12l-18 -13l-31 -26l-23 -9l-10 -11l-11 -6l7 -2l17 -6l26 -10l16 -10l9 -15l8 -17l13 -17l-2 -20l5 -21l-5 -20l-10 -19l-6 -18l-8 -20l-19 -35l-16 -15l-6 -18l-16 -13l-16 -16l-15 -11l-21 -14l-18 -10l-16 -9l-12 -11l-25 -7l-13 -6l-22 -7l-19 -4
l-22 -6l-24 -3l-12 -1l-40 1l-25 3l-23 4l-11 8l-22 11l-16 14l-8 20l-5 20l4 19l2 19l25 35l10 15l20 10l13 12l19 7l32 13l19 7l15 2l26 1l14 -10l-14 -13l-28 -2l-13 -6l-18 -4l-25 -8l-14 -11l-15 -14l-22 -35l-2 -18l-3 -20l12 -21l10 -15l16 -9l26 -5l34 -1l20 4
l45 11l16 7l21 10l10 11l22 12l13 14l22 13l6 15l16 17l15 17l17 36l12 19l2 17l5 20l6 22l5 22l-10 20l-2 18l-18 13l-20 11l-13 7l-23 5l-18 15l7 2l29 14l11 3l20 8l20 10l12 9l17 12l8 15l15 15l21 14l13 16l3 17l20 15l7 17l10 18l13 15l11 18l11 17l12 17l1 1l-2 -2
l-21 -11l-14 -9l-18 -10l-19 -6l-13 -4l-22 -5l-23 -1l-12 -3l-24 2l-19 4l-13 4l-6 6l-2 -6l-11 -17l-20 -15l-13 -8l-50 1l-7 11l-12 18l-3 22l10 17l19 14l22 6l9 19l-9 13h-40l-17 -7l-19 -7l-18 -12l-16 -12l-7 -14l-23 -17l-8 -15l-15 -17l-17 -16l-7 -17l-9 -17
l-11 -18l-4 -5l-4 -10l-13 -16l-11 -17l-12 -17l-2 -16l-14 -19l-8 -17l-8 -15l-14 -19l-10 -16l-12 -18l-27 -15h-35l-13 18l11 16l5 18l15 16l9 18l9 16l11 17l11 18l6 16l13 18l10 16l7 16l14 17l13 20l16 33l12 18l4 16l13 17l1 19l16 19l7 18l21 17l18 -1l17 -17
l-13 -18l-2 -19v-13l9 6l14 14l15 13l12 11l18 12l16 10l16 8l23 3h36l21 -8l16 -12l5 -16l10 -20l2 -21l2 -14l10 3l16 -5l19 -2h18l25 2l23 5l21 4l16 9l21 7l19 12l15 12l11 13l17 12l17 8l-1 -4l15 12l19 -1l26 1l8 -16z" />
    <glyph glyph-name="racute_zcaron.liga" unicode="&#x155;&#x17e;" horiz-adv-x="716" 
d="M769 600l-16 -15l-11 -14l-22 -15l-12 -14l-19 -10l-18 -12l-12 -13l-21 -9l-18 -12l-12 -8l-24 12l2 22l-10 21l-6 20l-4 17l-12 20l4 27l8 13l35 -6l12 -15l3 -19l8 -21l7 -19l22 -11l12 11l22 12l8 11l23 13l8 14l16 14l11 16l19 10l3 -25zM301 480l9 22l22 14l8 13
l21 14l6 16l21 17l11 16l9 16l18 18l25 4l17 -11v-30l-11 -14l-16 -13l-19 -14l-14 -12l-14 -14l-20 -12l-12 -9l-14 -11l-20 -12zM719 369l-9 -17l-9 -18l-13 -17l-14 -18l-6 -17l-18 -15l-11 -17l-12 -16l-7 -16l-13 -14l-20 -14l-12 -15l-12 -14l-11 -16l-23 -11l-12 -14
l-18 -13l-10 -12l-18 -10l-24 -10l-7 -4l7 -3l24 -7l18 -10l16 -11l15 -14l7 -17l4 -18l3 -20l6 -20l-6 -20l-1 -20l-14 -18l-1 -20l-23 -36l-13 -16l-10 -15l-21 -16l-12 -14l-13 -13l-15 -11l-26 -12l-16 -8l-16 -10l-23 -8l-16 -7l-17 -7l-21 -3l-19 -5l-18 -2l-27 -4
l-36 2l-24 1l-20 7l-11 6l-19 12l-16 16l-11 17l-6 21l6 18l6 20l16 34l16 15l15 13l18 8l14 9l20 9l18 4l15 7l38 5l26 -11l-23 -14l-17 -2l-19 -4l-19 -6l-23 -8l-19 -11l-10 -12l-25 -37l-5 -18l3 -22l3 -18l21 -16l13 -10l19 -4l47 -1l19 3l22 6l30 13l21 11l15 9l23 13
l15 12l10 14l23 17l7 15l16 16l14 37l15 19l2 20l12 20l4 20l-8 21l2 21l-10 18l-15 15l-14 9l-19 9l-27 4l-6 15l21 12l4 3l21 6l10 5l24 9l16 11l8 14l18 14l13 12l16 17l13 14l9 18l9 16l10 17l18 15l13 17l9 19l8 17l6 14l-14 -11l-12 -10l-25 -8l-13 -6l-24 -5l-21 -4
l-13 -1l-19 -2l-23 2l-38 6l-8 9l-3 -8l-10 -16l-14 -14l-17 -10l-36 1l-17 11l-12 20l6 20l8 17l9 15l19 5l22 20l-13 12l-33 -1l-22 -5l-17 -10l-16 -9l-14 -14l-20 -14l-14 -14l-14 -17l-16 -15l-9 -19l-8 -17l-15 -16l-7 -15v0v0l-1 -3l-2 -3l-8 -11l-7 -17l-10 -16
l-8 -18l-10 -17l-14 -17l-9 -18l-13 -16l-8 -16l-10 -18l-7 -17l-31 -16l-16 -1l-27 -1l-6 19l9 16l8 17l9 18l14 18l11 17l6 15l15 19l11 15l4 17l17 19l8 15l11 17l10 18l16 35l8 16l14 17l6 20l13 18l3 18l13 18l26 16h12l11 -16l-8 -19l1 -18l-7 -19v-2l9 12l13 16
l18 12l11 12l18 10l18 11l21 9l21 5l32 -2l24 -8l17 -13l8 -15l10 -20l-1 -20l-4 -15l10 3l21 -6h19l22 -2l22 4l16 2l27 7l14 7l25 8l17 10l29 25l12 12l19 5l18 12l20 -1l18 1z" />
    <glyph glyph-name="t_t.liga" unicode="tt" horiz-adv-x="617" 
d="M699 139l-13 -16l-17 -17l-13 -13l-11 -16l-9 -13l-22 -13l-17 -12l-11 -11l-23 -10l-17 -8l-21 -8l-17 -8l-34 -11l-20 -1l-41 1l-19 4l-38 17l-12 12l-3 17l-7 21l4 20l-1 1l-18 -22l-19 -13l-17 -11l-21 -11l-10 -9l-19 -8l-25 -5l-19 -5l-21 -5l-18 -3l-38 2l-16 4
l-17 6l-13 9l-14 16l-16 17v18v19v21l8 18l12 19l15 35l11 17l4 19l12 17l13 15l12 17l9 18l6 18l10 16l13 19l8 18l6 9l-10 -1l-18 1h-24l-14 -1l-12 16l4 27l34 3l20 -1l14 -1l24 2l12 -1l10 16l7 18l10 16l8 18l12 16l8 19l10 15l8 19l27 17l16 -1h23l9 -16l-8 -17
l-13 -16l-11 -19l-9 -15l-7 -19l-8 -16l-9 -16l-13 -19h15l24 2h45l11 -2l23 2l24 -1l19 1l14 -2h25l26 1l12 16l9 17l3 18l8 18l13 15l12 18l4 17l15 17l23 22l21 -5h21l5 -15l-6 -18l-6 -17l-12 -16l-10 -18l-6 -17l-14 -16l-17 -36l25 1l11 -1h24l24 2l30 -2l3 -14
l-11 -14l-17 -16l-30 -1l-20 2l-26 -1l-16 -1l-20 1l-4 -6l-13 -18l-6 -18l-8 -16l-9 -16l-12 -18l-13 -16l-12 -17l-7 -18l-14 -18l-6 -15l-21 -38l-7 -18l-4 -20l-7 -22l4 -21l14 -16l21 -9l35 -2l21 5l15 5l20 6l23 7l11 11l24 12l12 12l20 12l12 14l14 14l6 15l16 18
l24 11l10 -6zM353 127l15 33l12 19l7 16l8 17l16 18l5 17l13 17l8 17l12 17l8 16l15 20l4 8h-25l-39 -2l-25 2h-63l-13 -2l-23 2l-38 1l-3 -9l-7 -16l-8 -17l-13 -17l-9 -16l-15 -18l-9 -16l-8 -19l-8 -15l-13 -18l-12 -16l-14 -37l-7 -20l-4 -19l-3 -20l-4 -21l18 -19
l15 -14l44 -2h16l19 6l19 3l20 9l17 16l14 11l14 18l13 13l17 15z" />
    <glyph glyph-name="tcaron_t.liga" unicode="&#x165;t" horiz-adv-x="617" 
d="M356 466l7 18l15 16l7 16l7 15l10 18l10 16l6 19l10 17l7 17l22 19h39l8 -18l-7 -16l-8 -17l-11 -16l-13 -16l-12 -16l-15 -15l-13 -13l-10 -16l-18 -13l-12 -15l-15 -6zM698 139l-13 -16l-17 -17l-13 -13l-11 -16l-9 -13l-22 -13l-17 -12l-11 -11l-23 -10l-17 -8l-21 -8
l-17 -8l-34 -11l-20 -1l-41 1l-19 4l-38 17l-12 12l-3 17l-7 21l4 20l-1 1l-18 -22l-19 -13l-17 -11l-21 -11l-10 -9l-19 -8l-25 -5l-19 -5l-21 -5l-18 -3l-38 2l-16 4l-17 6l-13 9l-14 16l-16 17v18v19v21l8 18l12 19l15 35l11 17l4 19l12 17l13 15l12 17l9 18l6 18l10 16
l13 19l8 18l6 9l-10 -1l-18 1h-24l-14 -1l-12 16l4 27l34 3l20 -1l14 -1l24 2l12 -1l10 16l7 18l10 16l8 18l12 16l8 19l10 15l8 19l27 17l16 -1h23l9 -16l-8 -17l-13 -16l-11 -19l-9 -15l-7 -19l-8 -16l-9 -16l-13 -19h15l24 2h45l11 -2l23 2l24 -1l19 1l14 -2h25l26 1
l12 16l9 17l3 18l8 18l13 15l12 18l4 17l15 17l23 22l21 -5h21l5 -15l-6 -18l-6 -17l-12 -16l-10 -18l-6 -17l-14 -16l-17 -36l25 1l11 -1h24l24 2l30 -2l3 -14l-11 -14l-17 -16l-30 -1l-20 2l-26 -1l-16 -1l-20 1l-4 -6l-13 -18l-6 -18l-8 -16l-9 -16l-12 -18l-13 -16
l-12 -17l-7 -18l-14 -18l-6 -15l-21 -38l-7 -18l-4 -20l-7 -22l4 -21l14 -16l21 -9l35 -2l21 5l15 5l20 6l23 7l11 11l24 12l12 12l20 12l12 14l14 14l6 15l16 18l24 11l10 -6zM352 127l15 33l12 19l7 16l8 17l16 18l5 17l13 17l8 17l12 17l8 16l15 20l4 8h-25l-39 -2l-25 2
h-63l-13 -2l-23 2l-38 1l-3 -9l-7 -16l-8 -17l-13 -17l-9 -16l-15 -18l-9 -16l-8 -19l-8 -15l-13 -18l-12 -16l-14 -37l-7 -20l-4 -19l-3 -20l-4 -21l18 -19l15 -14l44 -2h16l19 6l19 3l20 9l17 16l14 11l14 18l13 13l17 15z" />
    <glyph glyph-name="z_j.liga" unicode="&#x7a;j" horiz-adv-x="732" 
d="M811 511l-32 -4l-30 15l-17 24l5 34l9 17l20 11l38 1l21 -12l11 -14l3 -41zM741 366l-13 -16l-7 -18l-11 -18l-9 -15l-15 -17l-6 -17l-9 -19l-14 -16l-8 -18l-7 -16l-13 -16l-7 -18l-18 -16l-2 -17l-11 -18l-13 -18l-7 -17l-15 -16l-9 -18l-8 -15l-11 -19l-11 -17l-5 -17
l-13 -16l-15 -18l-5 -16l-6 -17l-11 -17l-23 -35l-13 -15l-7 -16l-17 -16l-11 -15l-14 -16l-10 -14l-22 -14l-8 -12l-20 -9l-19 -12l-17 -7l-17 -8l-24 -6l-11 -4l-23 -3l-45 1l-18 2l-21 7l-13 6l-16 9l-32 -11l-18 -4l-24 -4l-18 -4l-22 -3l-39 2l-23 2l-23 3l-25 7
l-10 13l-12 13l-14 27l-3 30l12 21l10 18l14 11l26 9l16 6h42l16 -6l20 -7l18 -10l10 -11l20 -14l10 -14l32 -25l8 -8l45 28l14 14l15 14l9 17l13 18l23 34l9 21l3 18l9 20l-2 20l6 23l-2 19l-16 18l-10 16l-23 10l-13 7l-27 7l-7 12l9 16l39 4l16 9l11 8l23 10l16 14l13 14
l15 14l5 14l18 16l7 16l15 17l15 15l4 17l18 18l8 18l10 15l17 18l7 13h-2l-12 -12l-21 -13l-18 -9l-15 -5l-20 -6l-19 -1l-13 -6l-29 -4l-29 -6h-23l-26 7l-12 10l-15 14l-6 15l-6 19l3 37l13 27l21 11l11 9l40 3l20 -15l11 -26l1 -21l-10 -16l-17 -16l-18 -7l-23 -2l-1 -2
l15 -16l22 -9l35 -3l19 2l29 10l13 6l24 9l15 8l16 12l18 12l16 12l14 12l30 20h15l18 -1l16 -16l-10 -19l-14 -15l-12 -18l-10 -18l-12 -16l-25 -31l-14 -17l-13 -16l-13 -15l-8 -14l-11 -15l-34 -28l-16 -15l-16 -12l-12 -13l-22 -10l-8 -12l-18 -11l-27 -6v-1h23l19 -5
l22 -9l15 -13l12 -14l8 -17l11 -18l2 -19l3 -21l-4 -18l-8 -20l-11 -21l-3 -18l-22 -34l-16 -17l-6 -17l-15 -14l-34 -28l-19 -10l-12 -12l-19 -11l-12 -7l14 -5l27 -6l38 1l21 6l10 9l18 12l25 13l8 12l16 16l20 13l9 17l17 16l9 19l10 18l18 34l14 19l8 18l10 18l8 17
l14 20l4 15l12 19l14 18l10 17l7 17l8 16l16 18l12 18l4 17l14 16l11 17l10 18l10 16l6 19l14 16l11 19l2 15l16 19l3 16l10 17l13 18l14 19l25 16h24l14 2zM44 -255l-11 13l-18 15l-20 15l-16 11l-10 13l-16 6l-48 1l-17 -12l-8 -15l-1 -21l2 -18l9 -16l9 -13l27 -9l18 -5
l40 1l23 2l16 7l16 6l27 8z" />
    <glyph glyph-name="zacute_j.liga" unicode="&#x17a;j" horiz-adv-x="732" 
d="M340 482l15 22l10 12l15 15l21 14l8 14l18 16l11 17l12 17l15 17l23 6l20 -13l-1 -27l-11 -15l-21 -16l-9 -11l-20 -14l-16 -12l-15 -13l-13 -11l-22 -10l-18 -9l-12 -6zM811 511l-32 -4l-30 15l-17 24l5 34l9 17l20 11l38 1l21 -12l11 -14l3 -41zM741 366l-13 -16
l-7 -18l-11 -18l-9 -15l-15 -17l-6 -17l-9 -19l-14 -16l-8 -18l-7 -16l-13 -16l-7 -18l-18 -16l-2 -17l-11 -18l-13 -18l-7 -17l-15 -16l-9 -18l-8 -15l-11 -19l-11 -17l-5 -17l-13 -16l-15 -18l-5 -16l-6 -17l-11 -17l-23 -35l-13 -15l-7 -16l-17 -16l-11 -15l-14 -16
l-10 -14l-22 -14l-8 -12l-20 -9l-19 -12l-17 -7l-17 -8l-24 -6l-11 -4l-23 -3l-45 1l-18 2l-21 7l-13 6l-16 9l-32 -11l-18 -4l-24 -4l-18 -4l-22 -3l-39 2l-23 2l-23 3l-25 7l-10 13l-12 13l-14 27l-3 30l12 21l10 18l14 11l26 9l16 6h42l16 -6l20 -7l18 -10l10 -11l20 -14
l10 -14l32 -25l8 -8l45 28l14 14l15 14l9 17l13 18l23 34l9 21l3 18l9 20l-2 20l6 23l-2 19l-16 18l-10 16l-23 10l-13 7l-27 7l-7 12l9 16l39 4l16 9l11 8l23 10l16 14l13 14l15 14l5 14l18 16l7 16l15 17l15 15l4 17l18 18l8 18l10 15l17 18l7 13h-2l-12 -12l-21 -13
l-18 -9l-15 -5l-20 -6l-19 -1l-13 -6l-29 -4l-29 -6h-23l-26 7l-12 10l-15 14l-6 15l-6 19l3 37l13 27l21 11l11 9l40 3l20 -15l11 -26l1 -21l-10 -16l-17 -16l-18 -7l-23 -2l-1 -2l15 -16l22 -9l35 -3l19 2l29 10l13 6l24 9l15 8l16 12l18 12l16 12l14 12l30 20h15l18 -1
l16 -16l-10 -19l-14 -15l-12 -18l-10 -18l-12 -16l-25 -31l-14 -17l-13 -16l-13 -15l-8 -14l-11 -15l-34 -28l-16 -15l-16 -12l-12 -13l-22 -10l-8 -12l-18 -11l-27 -6v-1h23l19 -5l22 -9l15 -13l12 -14l8 -17l11 -18l2 -19l3 -21l-4 -18l-8 -20l-11 -21l-3 -18l-22 -34
l-16 -17l-6 -17l-15 -14l-34 -28l-19 -10l-12 -12l-19 -11l-12 -7l14 -5l27 -6l38 1l21 6l10 9l18 12l25 13l8 12l16 16l20 13l9 17l17 16l9 19l10 18l18 34l14 19l8 18l10 18l8 17l14 20l4 15l12 19l14 18l10 17l7 17l8 16l16 18l12 18l4 17l14 16l11 17l10 18l10 16l6 19
l14 16l11 19l2 15l16 19l3 16l10 17l13 18l14 19l25 16h24l14 2zM44 -255l-11 13l-18 15l-20 15l-16 11l-10 13l-16 6l-48 1l-17 -12l-8 -15l-1 -21l2 -18l9 -16l9 -13l27 -9l18 -5l40 1l23 2l16 7l16 6l27 8z" />
    <glyph glyph-name="zcaron_j.liga" unicode="&#x17e;j" horiz-adv-x="732" 
d="M309 588l4 27l12 13l29 -6l8 -15l11 -19l13 -21l3 -29l3 -11l31 21l16 13l20 11l8 12l21 16l14 12l14 25h13l8 -12l-11 -27l-12 -15l-21 -13l-13 -13l-16 -14l-16 -13l-14 -10l-21 -13l-11 -11l-17 -13l-16 -5l-9 7l-13 26l-9 22l-7 20l-3 19zM806 507l-32 -4l-30 15
l-17 24l5 34l9 17l20 11l38 1l21 -12l11 -14l3 -41zM736 362l-13 -16l-7 -18l-11 -18l-9 -15l-15 -17l-6 -17l-9 -19l-14 -16l-8 -18l-7 -16l-13 -16l-7 -18l-18 -16l-2 -17l-11 -18l-13 -18l-7 -17l-15 -16l-9 -18l-8 -15l-11 -19l-11 -17l-5 -17l-13 -16l-15 -18l-5 -16
l-6 -17l-11 -17l-23 -35l-13 -15l-7 -16l-17 -16l-11 -15l-14 -16l-10 -14l-22 -14l-8 -12l-20 -9l-19 -12l-17 -7l-17 -8l-24 -6l-11 -4l-23 -3l-45 1l-18 2l-21 7l-13 6l-16 9l-32 -11l-18 -4l-24 -4l-18 -4l-22 -3l-39 2l-23 2l-23 3l-25 7l-10 13l-12 13l-14 27l-3 30
l12 21l10 18l14 11l26 9l16 6h42l16 -6l20 -7l18 -10l10 -11l20 -14l10 -14l32 -25l8 -8l45 28l14 14l15 14l9 17l13 18l23 34l9 21l3 18l9 20l-2 20l6 23l-2 19l-16 18l-10 16l-23 10l-13 7l-27 7l-7 12l9 16l39 4l16 9l11 8l23 10l16 14l13 14l15 14l5 14l18 16l7 16
l15 17l15 15l4 17l18 18l8 18l10 15l17 18l7 13h-2l-12 -12l-21 -13l-18 -9l-15 -5l-20 -6l-19 -1l-13 -6l-29 -4l-29 -6h-23l-26 7l-12 10l-15 14l-6 15l-6 19l3 37l13 27l21 11l11 9l40 3l20 -15l11 -26l1 -21l-10 -16l-17 -16l-18 -7l-23 -2l-1 -2l15 -16l22 -9l35 -3
l19 2l29 10l13 6l24 9l15 8l16 12l18 12l16 12l14 12l30 20h15l18 -1l16 -16l-10 -19l-14 -15l-12 -18l-10 -18l-12 -16l-25 -31l-14 -17l-13 -16l-13 -15l-8 -14l-11 -15l-34 -28l-16 -15l-16 -12l-12 -13l-22 -10l-8 -12l-18 -11l-27 -6v-1h23l19 -5l22 -9l15 -13l12 -14
l8 -17l11 -18l2 -19l3 -21l-4 -18l-8 -20l-11 -21l-3 -18l-22 -34l-16 -17l-6 -17l-15 -14l-34 -28l-19 -10l-12 -12l-19 -11l-12 -7l14 -5l27 -6l38 1l21 6l10 9l18 12l25 13l8 12l16 16l20 13l9 17l17 16l9 19l10 18l18 34l14 19l8 18l10 18l8 17l14 20l4 15l12 19l14 18
l10 17l7 17l8 16l16 18l12 18l4 17l14 16l11 17l10 18l10 16l6 19l14 16l11 19l2 15l16 19l3 16l10 17l13 18l14 19l25 16h24l14 2zM39 -259l-11 13l-18 15l-20 15l-16 11l-10 13l-16 6l-48 1l-17 -12l-8 -15l-1 -21l2 -18l9 -16l9 -13l27 -9l18 -5l40 1l23 2l16 7l16 6
l27 8z" />
    <glyph glyph-name="zdotaccent_j.liga" unicode="&#x17c;j" horiz-adv-x="732" 
d="M326 549l2 29l13 16l20 13l21 3l18 -5l19 -10l12 -21l-2 -31l-13 -19l-24 -14l-34 4l-15 10zM809 509l-32 -4l-30 15l-17 24l5 34l9 17l20 11l38 1l21 -12l11 -14l3 -41zM739 364l-13 -16l-7 -18l-11 -18l-9 -15l-15 -17l-6 -17l-9 -19l-14 -16l-8 -18l-7 -16l-13 -16
l-7 -18l-18 -16l-2 -17l-11 -18l-13 -18l-7 -17l-15 -16l-9 -18l-8 -15l-11 -19l-11 -17l-5 -17l-13 -16l-15 -18l-5 -16l-6 -17l-11 -17l-23 -35l-13 -15l-7 -16l-17 -16l-11 -15l-14 -16l-10 -14l-22 -14l-8 -12l-20 -9l-19 -12l-17 -7l-17 -8l-24 -6l-11 -4l-23 -3l-45 1
l-18 2l-21 7l-13 6l-16 9l-32 -11l-18 -4l-24 -4l-18 -4l-22 -3l-39 2l-23 2l-23 3l-25 7l-10 13l-12 13l-14 27l-3 30l12 21l10 18l14 11l26 9l16 6h42l16 -6l20 -7l18 -10l10 -11l20 -14l10 -14l32 -25l8 -8l45 28l14 14l15 14l9 17l13 18l23 34l9 21l3 18l9 20l-2 20
l6 23l-2 19l-16 18l-10 16l-23 10l-13 7l-27 7l-7 12l9 16l39 4l16 9l11 8l23 10l16 14l13 14l15 14l5 14l18 16l7 16l15 17l15 15l4 17l18 18l8 18l10 15l17 18l7 13h-2l-12 -12l-21 -13l-18 -9l-15 -5l-20 -6l-19 -1l-13 -6l-29 -4l-29 -6h-23l-26 7l-12 10l-15 14l-6 15
l-6 19l3 37l13 27l21 11l11 9l40 3l20 -15l11 -26l1 -21l-10 -16l-17 -16l-18 -7l-23 -2l-1 -2l15 -16l22 -9l35 -3l19 2l29 10l13 6l24 9l15 8l16 12l18 12l16 12l14 12l30 20h15l18 -1l16 -16l-10 -19l-14 -15l-12 -18l-10 -18l-12 -16l-25 -31l-14 -17l-13 -16l-13 -15
l-8 -14l-11 -15l-34 -28l-16 -15l-16 -12l-12 -13l-22 -10l-8 -12l-18 -11l-27 -6v-1h23l19 -5l22 -9l15 -13l12 -14l8 -17l11 -18l2 -19l3 -21l-4 -18l-8 -20l-11 -21l-3 -18l-22 -34l-16 -17l-6 -17l-15 -14l-34 -28l-19 -10l-12 -12l-19 -11l-12 -7l14 -5l27 -6l38 1
l21 6l10 9l18 12l25 13l8 12l16 16l20 13l9 17l17 16l9 19l10 18l18 34l14 19l8 18l10 18l8 17l14 20l4 15l12 19l14 18l10 17l7 17l8 16l16 18l12 18l4 17l14 16l11 17l10 18l10 16l6 19l14 16l11 19l2 15l16 19l3 16l10 17l13 18l14 19l25 16h24l14 2zM42 -257l-11 13
l-18 15l-20 15l-16 11l-10 13l-16 6l-48 1l-17 -12l-8 -15l-1 -21l2 -18l9 -16l9 -13l27 -9l18 -5l40 1l23 2l16 7l16 6l27 8z" />
    <glyph glyph-name=".notdef" horiz-adv-x="708" 
d="M469 835l20 -2l22 2l19 -1l13 -1l20 2l26 -2l18 2l15 -2l22 2l18 -2h26l14 2l27 -2l14 1h26l15 1l24 -1h16l20 -1h47l13 2h41l18 -1h28l15 -1l20 1h24l6 -16l-10 -18l-5 -18l-19 -17l-2 -15l-14 -17l-11 -19l-8 -15l-7 -19l-12 -15l-13 -18l-11 -17l-10 -18l-9 -15
l-13 -18l-7 -17l-8 -16l-7 -18l-12 -17l-15 -16l-10 -17l-3 -19l-9 -15l-16 -18l-4 -16l-17 -18l-11 -17l-10 -16l-7 -19l-14 -15l-5 -18l-7 -17l-17 -16l-3 -17l-18 -18l-5 -18l-8 -16l-11 -16l-16 -19l-3 -16l-15 -18l-9 -16l-5 -18l-14 -15l-12 -18l-7 -17l-15 -17
l-5 -16l-15 -17l-6 -19l-10 -16l-11 -16l-11 -19l-6 -15l-9 -18l-28 -17h-24l-17 1l-20 -2l-25 1h-16l-23 1h-38l-17 -1l-24 1h-19l-24 -1l-14 1l-20 -1l-23 1h-45l-18 -1l-14 1h-24l-19 -2l-24 1h-12l-28 1l-14 -2h-27l-13 2l-22 -2h-45l-13 1l-25 -1h-19l-12 18l18 17
l5 17l17 35l11 17l11 16l10 19l12 16l9 16l15 18l1 17l13 16l15 17l2 18l18 18l4 16l15 16l9 18l10 16l6 18l14 17l11 17l9 17l11 17l6 18l15 15l7 17l7 18l12 17l15 18l2 17l10 17l17 15l4 17l9 19l17 15l3 17l17 19l7 17l8 15l12 18l8 18l12 17l9 17l12 16l10 16l11 19
l9 16l5 18l17 16l2 17l13 17l8 17l9 16l32 18h61h24zM361 735l-9 -17l-11 -17l-3 -18l-15 -15l-9 -17l-14 -17l-10 -18l-2 -18l-13 -15l-8 -19l-12 -16l-13 -16l-7 -17l-14 -19l-10 -17l-4 -16l-11 -17l-11 -18l-8 -15l-12 -18l-13 -17l-8 -16l-13 -17l-4 -17l-12 -19
l-12 -17l-11 -17l-13 -17l-5 -17l-15 -17l-5 -17l-13 -15l-6 -18l-15 -17l-7 -17l-11 -16l-5 -18l-16 -18l-7 -15l-14 -19l-7 -15l-14 -17l-3 -18l-11 -17l-15 -17l-2 -18l-15 -17l10 -16l19 -1h64l15 1l20 -1h23l19 2h41l16 -2l21 2h22l17 -1l19 1l21 -1l27 1h16l18 -1h63
l24 1l13 -1l21 1h17l24 -2l24 1l26 16l8 17l15 18l7 18l12 16l7 17l10 16l12 19l14 16l3 17l11 16l11 18l7 16l18 18l2 17l10 18l13 17l10 16l10 18l6 17l14 16l10 16l13 18l5 17l8 16l17 17l5 18l12 16l7 17l13 19l6 15l18 19l7 17l14 16l1 16l10 17l16 19l5 15l14 17
l11 18l7 16l10 19l13 15l12 18l2 16l14 17l11 17l13 19l9 15l10 17l-9 19l-24 -2l-24 1h-19l-20 1l-16 -2h-37l-20 2l-27 -1l-16 -1h-57l-23 2l-18 -2h-43l-21 1h-57l-22 -1l-18 1l-26 -1h-39l-12 1l-21 -1l-32 -17l-15 -15zM662 694l18 -3l21 -9l17 -9l14 -14l17 -15l6 -19
l7 -18l-3 -20l-4 -22l-7 -17l-23 -35l-11 -15l-12 -15l-13 -12l-32 -27l-11 -10l-15 -11l-19 -12l-13 -9l-21 -11l-16 -12l-15 -13l-9 -10l-24 -13l-8 -14l-15 -13l-14 -13l-23 -15l-9 -14l-19 -14l-8 -17l-20 -16l-7 -17l-17 -15l-4 -18l-17 -17l-24 -13l-14 6l22 35l13 15
l17 17l7 15l16 17l10 15l18 16l10 14l10 17l15 12l23 16l10 13l14 12l20 13l14 15l9 13l18 13l12 13l19 13l14 13l11 17l13 13l8 18l13 14l24 37l1 19l11 20l1 19l-11 18l-12 16l-10 13l-26 8l-20 3l-34 2l-23 -4l-23 -7l-18 -9l-9 -8l-19 -11l-17 -15l-6 -15l-20 -32
l-12 -19l-4 -22l1 -18l14 -16l16 -12l20 -8l14 -13l-19 -14l-31 6l-15 5l-23 9l-21 11l-10 15l-4 16l-7 19l2 19l4 19l23 34l17 16l6 14l22 11l13 13l19 8l15 9l37 11l26 4l16 2l20 4h40l19 -2zM222 32l9 29l14 17l11 13h45l14 -13l9 -17l-3 -37l-7 -18l-17 -10l-38 -1
l-13 11z" />
    <glyph glyph-name=".null" horiz-adv-x="0" 
 />
    <glyph glyph-name="nonmarkingreturn" horiz-adv-x="333" 
 />
    <glyph glyph-name="space" unicode=" " horiz-adv-x="301" 
 />
    <glyph glyph-name="exclam" unicode="!" horiz-adv-x="452" 
d="M264 199l6 15l10 18l9 18l9 19l6 17l15 17l8 20l6 17l14 17l8 20l6 16l12 18l10 20l10 17l6 19l8 16l6 18l10 18l11 18l4 18l13 18l7 20l12 16l8 19l9 17l9 18l13 20l24 16h40l14 -15l-8 -19l-16 -16l-8 -17l-4 -17l-9 -16l-14 -18l-9 -17l-9 -16l-9 -18l-10 -17l-13 -18
l-13 -15l-8 -18l-11 -17l-8 -17l-7 -18l-12 -15l-13 -18l-12 -16l-11 -17l-7 -18l-14 -16l-10 -19l-6 -15l-8 -19l-15 -16l-12 -18l-7 -17l-16 -15l-9 -19l-15 -16l-11 -14l-14 4l4 20l9 17zM131 27l2 30l16 16l24 10h27l20 -11l13 -25l-3 -29l-6 -18l-18 -10l-37 -1l-23 11
z" />
    <glyph glyph-name="quotedbl" unicode="&#x22;" horiz-adv-x="452" 
d="M588 697l12 -18l-4 -16l-10 -17l-5 -19l-19 -14l-9 -16l-10 -16l-13 -17l-11 -13l-18 -15l-12 -14l-15 -14l-15 -7l-14 5l6 18l12 16l10 18l12 15l6 17l7 18l15 17l6 18l4 18l4 19l25 20l23 -1zM430 697l12 -18l-4 -16l-10 -17l-5 -19l-19 -14l-9 -16l-11 -16l-13 -17
l-11 -13l-18 -15l-12 -14l-15 -14l-15 -7l-14 5l6 18l12 16l10 18l12 14l5 17l7 18l15 17l6 18l4 18l4 19l25 20l23 -1z" />
    <glyph glyph-name="numbersign" unicode="#" horiz-adv-x="672" 
d="M732 366l-17 -17l-30 2l-20 -1l-26 -1l-20 1h-34l-17 -1l-15 1l-12 -23l-14 -19l-5 -18l-10 -17l-16 -18l-12 -18l-5 -19l-4 -9l8 -1l26 2h35l20 -2l16 2h21l26 -2l9 -14l-2 -16l-22 -14l-35 1l-41 -2l-13 1l-28 -1h-20l-18 1l-12 2l-12 -19l-7 -17l-13 -17l-11 -15
l-9 -17l-5 -17l-9 -18l-14 -18l-4 -15l-40 -20l-19 1l-16 17l12 17l14 15l14 19l11 17l6 15l9 17l15 17l23 36l4 10l-11 -2h-24l-18 -1h-16l-22 -1l-62 3l-16 -19l-10 -16l-8 -18l-8 -16l-6 -17l-14 -16l-5 -18l-15 -16l-9 -19l-32 -16h-26l-13 16l11 15l18 19l10 15l8 17
l17 17l2 17l11 17l19 19l10 15l8 10l-19 -2l-27 1l-16 -1h-43l-21 1l-36 -4l-6 19l8 15l29 15l15 -1l17 1h22l24 -1h13l25 2l21 -2l16 -1l10 17l12 18l5 17l12 15l16 18l5 17l11 16l10 23l-4 -1h-60l-21 1l-19 -2h-32l-28 1l-3 15l8 15l19 15h28l22 -1l18 1l14 1l21 -1h22
l22 1l18 -1l7 1l8 19l9 18l11 15l14 17l4 17l8 17l12 19l7 15l16 18l21 17l27 -7l-18 -27l-6 -18l-4 -17l-17 -16l-8 -16l-3 -18l-18 -19l-5 -18l-8 -19l5 -1l18 1h24l38 -2l38 2l15 -2l26 2l7 19l9 18l8 15l8 18l14 18l6 17l12 17l12 16l10 18l25 16l18 -9l-5 -26l-13 -16
l-13 -17l-2 -17l-16 -17l-3 -17l-18 -20l-1 -17l-13 -20l30 -1l21 2l21 -2l20 2h39l17 -2l10 -15zM483 352l-17 -1l-19 6l-20 5l-24 -6h-12l-20 -5l-28 1l-19 -23l-10 -18l-11 -18l-9 -18l-9 -20l-12 -17l-5 -17l-5 -11l28 2l21 -1l16 1h17l21 1l20 -1l28 -3l17 17l6 17
l10 19l10 16l8 18l10 17l12 15l17 22z" />
    <glyph glyph-name="dollar" unicode="$" horiz-adv-x="618" 
d="M688 545l-14 -33l-16 -19l-14 -10l-19 -8l-23 3l-23 15l-10 24l9 27l22 19l21 3l23 -7l15 -9l3 1l4 16l-2 20l-14 18l-7 16l-9 13l-20 12l-25 12l-9 -21l-14 -15l-8 -19l-10 -17l-9 -16l-11 -18l-8 -16l-14 -16l-5 -19l-14 -15l-10 -18l-7 -18l-9 -16l-9 -17l-20 -25
l20 -21l3 -15l18 -15l9 -17l16 -15l2 -18l9 -16l8 -18l6 -20l10 -20l2 -20l-4 -18l-5 -19v-19l-13 -19l-25 -32l-13 -15l-17 -11l-11 -12l-19 -10l-23 -6l-16 -8l-16 -7l-20 -4l-22 -3l-19 -4l-20 -1h-47l-25 5l-8 -14l-15 -16l-7 -17l-8 -16l-39 -18l-17 5l10 29l11 18
l11 16l15 17l6 9l-34 12l-10 11l-20 14l-14 15l-8 15l-14 16l-10 19l-3 20l-5 19l-6 19l4 21l12 28l18 24l18 13l20 8h23l22 -21l6 -21l-4 -26l-19 -19l-27 -3l-19 6l-12 9l-2 -1l-5 -18l-3 -18l2 -20l11 -19l10 -18l9 -15l19 -15l10 -14l17 -9l23 -12l11 19l12 17l13 18
l10 18l3 16l8 16l24 36l8 18l14 15l8 19l12 16l13 17l3 16l15 17l6 18l9 15l4 8l-9 17l-17 16l-10 17l-7 17l-12 19l-10 17l-1 19l-8 22l2 19l-5 21l4 18l4 20l8 21l21 32l21 16l7 12l21 14l16 9l24 10l20 6l13 5l26 5l17 2h43l23 -1l11 -4l12 24l12 16l11 18l23 22l15 -6
l6 -17l-7 -16l-13 -17l-8 -18l-8 -21l14 -9l17 -10l19 -13l14 -14l10 -17l9 -20l-3 -18l4 -20zM535 677l-41 -1l-21 -3l-20 -7l-16 -8l-19 -10l-9 -12l-12 -13l-20 -35l-9 -18v-21l-1 -20l2 -20l8 -20v-18l10 -17l13 -17l6 -13l5 12l4 17l15 16l6 16l17 17l10 18l3 17l14 18
l9 16l11 16l12 17l11 17l6 17l14 17l6 16zM424 266l-14 16l-7 16l-13 19l-4 -10l-8 -17l-11 -15l-11 -19l-6 -17l-12 -16l-9 -18l-9 -17l-11 -15l-15 -19l-11 -15l-6 -18l-8 -18l-8 -16l-16 -17l-10 -18l-6 -12l26 -3l36 1l25 3l20 4l12 8l19 8l22 13l14 12l20 15l13 36
l8 17l4 22l-2 18l-6 20v20l-7 18z" />
    <glyph glyph-name="percent" unicode="%" horiz-adv-x="1067" 
d="M788 557l-10 -18l-12 -17l-10 -17l-13 -16l-8 -17l-10 -17l-7 -18l-20 -17l-6 -15l-10 -18l-15 -14l-8 -17l-12 -15l-9 -17l-10 -17l-14 -16l-12 -16l-11 -16l-6 -16l-16 -14l-13 -18l-10 -15l-12 -15l-6 -17l-19 -16l-8 -16l-16 -17l-6 -14l-16 -16l-11 -17l-13 -16
l-12 -17l-9 -15l-10 -15l-15 -15l-9 -14l-38 -18l-22 2l-9 14l14 16l12 17l12 15l14 17l12 15l11 15l10 17l17 17l3 15l21 16l9 16l6 15l15 16l10 17l13 15l10 18l20 14l5 17l8 16l20 16l9 17l10 14l13 17l10 17l5 15l19 16l11 16l3 17l12 16l10 14l15 17l14 17l8 14l12 19
l10 16l8 16l11 19l17 16l27 16l23 1l7 -17l-5 -16zM230 255l-19 11l-14 15l-5 20l-7 19l4 20l1 19l9 19l8 20l12 36l15 18l15 17l26 32l11 16l21 13l14 12l13 12l24 10l11 7l18 8l27 5l18 2l37 1l24 -5l18 -7l12 -10l17 -17l5 -18l-2 -19l8 -20l-7 -20l-8 -17l-8 -20
l-19 -37l-9 -19l-14 -17l-7 -14l-20 -17l-6 -12l-22 -13l-9 -14l-17 -11l-20 -10l-17 -8l-21 -6l-18 -6l-28 -3h-37l-16 5zM345 287l22 12l17 13l14 17l11 16l11 17l10 17l14 17l12 36l5 17l7 19l4 19l3 20l5 19l-7 20l-18 12l-31 1l-22 -8l-20 -9l-9 -14l-21 -14l-12 -13
l-11 -16l-14 -18l-14 -17l-8 -19l-18 -34l-1 -18l-10 -20l-10 -19v-18l6 -22l5 -17l12 -13l36 -1l16 7zM647 0l-22 9l-12 17l-6 17l2 19l2 19l-5 22l9 19l8 17l15 38l18 19l7 17l18 15l10 16l15 13l18 14l17 14l14 9l13 12l26 7l18 6l21 6l16 4h41l18 -6l18 -7l14 -10
l19 -14l3 -20l4 -19l3 -19l-9 -19l-5 -21l-7 -17l-15 -39l-12 -18l-12 -15l-9 -17l-18 -15l-18 -13l-7 -15l-21 -11l-16 -11l-18 -11l-17 -7l-23 -8l-22 -4l-21 -2h-34l-18 3zM781 42l22 13l12 16l7 17l11 15l20 17l8 19l11 36l15 19l4 17l6 21l-3 18l-2 19l-6 18l-13 13
l-38 1l-16 -7l-20 -9l-12 -14l-19 -12l-8 -17l-14 -14l-9 -17l-16 -17l-8 -20l-19 -36l-4 -17l-6 -20l-6 -17l-9 -21l8 -18l9 -18l10 -14h38l19 7z" />
    <glyph glyph-name="ampersand" unicode="&#x26;" horiz-adv-x="957" 
d="M977 298l-11 -11l-12 -14l-6 -17l-20 -14l-20 -12l-9 -11l-20 -8l-17 -8h-44l-17 6l-22 14l-22 -35l-14 -14l-5 -17l-20 -14l-9 -15l-14 -14l-19 -14l-16 -14l-13 -12l-11 -12l-22 -11l-10 -9l-22 -11l-17 -9l-19 -9l-20 -6l-18 -8l-14 -6l-21 -5l-39 -7h-18l-47 -1
l-19 1l-15 3l-25 5l-18 6l-18 7l-19 11l-14 12l-20 12l-10 18l-10 18v22l4 18l4 21l9 20l14 35l11 15l19 13l11 12l17 12l14 11l21 10l15 9l18 9l22 8l13 8l18 9l13 9l23 12l11 11l24 32l1 22l-26 -7l-14 -1l-27 -2h-60l-17 -1l-24 4l-19 1l-20 3l-61 16l-20 8l-13 8l-16 12
l-12 13l-15 14l-15 18l4 21l-7 17l6 19l27 35l7 15l16 13l17 14l14 11l22 8l11 10l24 9l16 7l22 6l23 5l22 1l14 3l20 1l24 -2v-16l-19 -7l-20 -2l-27 -4l-19 -5l-18 -9l-14 -9l-20 -10l-16 -13l-9 -14l-15 -15l-25 -35l-2 -17l-5 -21l6 -17l12 -16l19 -14l12 -11l22 -9
l21 -9l18 -5l20 -2l26 -4h19h66l21 4l23 3v16l5 19l-9 21l-3 19l6 20l1 21l15 20l16 34l10 16l21 15l13 12l12 13l19 9l19 11l14 10l17 8l39 12l21 4l16 6l22 3h18h43l22 -2l20 -3l16 -8l10 -13l12 -17l4 -17l-3 -21l-21 -33l-4 -14l-15 -13l-19 -14l-9 -15l-15 -10l-24 -12
l-14 -13l-20 -10l-12 -11l-22 -9l-19 -10l-10 -9l-22 -7l-17 -8l-25 -8l-13 -5l-24 -6l-18 -7v-8l-3 -18l-12 -34l-18 -13l-11 -11l-16 -8l-20 -10l-38 -19l-21 -7l-13 -10l-15 -13l-15 -9l-24 -12l-12 -15l-12 -15l-14 -15l-23 -34l1 -20l-6 -19v-17l-4 -21l16 -17l4 -14
l21 -11l13 -11l22 -7l21 -5l17 -2l33 -1l24 3l23 3l10 6l28 6l14 7l18 6l14 9l24 11l12 9l20 11l15 12l12 12l22 13l14 13l9 15l10 14l17 14l14 16l7 17l13 15l19 16l-45 25l-24 6l-11 5l-47 -1l-14 -5l-21 -10l-10 -5l-13 -7h-9l-12 9v8l21 16l17 13l9 11l21 8l21 8l17 5
h40l27 -4l13 -9l17 -7l20 -11l14 -10l24 -8l23 -4l37 1l17 5l24 10l18 9l19 15l15 9l8 -2zM559 469l-1 -19l2 -24l22 5l17 7l13 6l24 8l17 10l38 18l11 11l24 12l17 11l10 12l34 29l19 15l13 18l13 30l-2 19l-3 18l-17 10l-22 6h-33l-25 -2l-10 -3l-25 -6l-19 -8l-31 -19
l-20 -12l-16 -13l-8 -12l-18 -17l-17 -31l-1 -19l-6 -18l-9 -20z" />
    <glyph glyph-name="quotesingle" unicode="'" horiz-adv-x="292" 
d="M430 698l12 -18l-4 -16l-10 -17l-5 -19l-19 -14l-9 -16l-11 -16l-13 -17l-11 -13l-18 -15l-12 -14l-15 -14l-15 -7l-14 5l6 18l12 16l10 18l12 14l5 17l7 18l15 17l6 18l4 18l4 19l25 20l23 -1z" />
    <glyph glyph-name="parenleft" unicode="(" horiz-adv-x="359" 
d="M72 -94l-14 15l-7 17l-6 16l-2 21l-11 19l5 19v21l-2 18l4 20v20l1 21l10 19l8 22l-2 20l13 20l4 19l6 18l17 20l3 19l8 19l27 37l16 34l12 16l7 18l13 18l7 16l19 16l12 16l7 16l16 16l8 16l15 14l19 15l11 16l15 14l15 12l7 16l22 11l9 13l17 14l19 13l12 12l17 10
l21 10l13 10l18 11l22 6l22 9l18 4l18 6l33 7l23 -1l2 -11l-16 -14l-21 -4l-23 -5l-13 -6l-16 -8l-23 -10l-30 -21l-46 -37l-10 -13l-17 -14l-17 -16l-17 -14l-4 -14l-17 -16l-18 -17l-10 -15l-10 -15l-11 -18l-18 -16l-2 -18l-11 -15l-11 -17l-20 -17l-7 -17l-23 -37
l-7 -17l-9 -17l-9 -19l-12 -19v-17l-11 -17l-11 -18l-10 -19l-4 -18l-2 -20l-7 -18l-14 -20l-5 -19v-20l-3 -20l-1 -21l-9 -19l6 -19l-1 -22l4 -20l7 -17l15 -15l11 -16l-9 -12l-22 -8l-21 13z" />
    <glyph glyph-name="parenright" unicode=")" horiz-adv-x="461" 
d="M450 697l16 -17l11 -15l-1 -18l10 -21l5 -17l-5 -20l9 -22l-10 -19l4 -21l-1 -20l-4 -18l-7 -22l-8 -18l-5 -22l-11 -20v-18l-12 -19l-5 -20l-14 -19l-8 -17l-16 -38l-24 -34l-7 -17l-12 -19l-13 -15l-16 -17l-4 -18l-11 -14l-13 -17l-12 -15l-18 -16l-15 -15l-6 -16
l-13 -15l-16 -12l-12 -16l-15 -13l-21 -12l-10 -15l-19 -13l-14 -12l-18 -11l-14 -12l-22 -10l-13 -11l-21 -8l-11 -9l-27 -6l-11 -5l-20 -7l-20 -2l-22 -2l-20 2v8l17 15l22 2l15 5l21 7l16 9l16 9l14 8l23 11l8 13l21 12l11 13l17 15l17 14l9 14l22 14l4 16l17 14l10 18
l13 14l19 16l11 17l6 18l11 15l11 18l16 17l6 17l9 17l28 34l6 19l8 17l14 20l3 17l15 18l8 19l6 17l3 19l14 17l3 20l6 18l2 20l13 18l5 20v19l7 20l2 22l-8 20v20l-1 18l-5 19l-14 17l-13 14l12 14l27 5l13 -11z" />
    <glyph glyph-name="asterisk" unicode="*" horiz-adv-x="630" 
d="M569 757l4 -25l-9 -17l-8 -17l-4 -20l-8 -18l-9 -21l-8 -20l-7 -17l-12 -18l-14 6l-6 22l1 20l8 19l-2 20l12 19l-1 20l-1 20l6 21l23 14l17 -6zM306 686l30 2l9 -13l19 -14l9 -14l22 -14l9 -15l19 -12l14 -13l12 -23l-8 -7l-23 6l-18 7l-16 10l-13 9l-22 8l-19 10l-18 9
l-21 6l-10 26l11 17zM715 528l-22 -16l-18 1l-19 5l-18 3l-21 1l-25 2l-15 1l-25 4l-18 7l-2 12l23 9l22 2l13 6l20 3l19 5l25 2l14 4l28 5l17 -16l5 -19zM293 416l2 23l24 9l12 12l15 9l20 11l23 8l15 12l19 9l16 3l6 -9l-9 -16l-10 -13l-11 -16l-17 -16l-14 -15l-14 -13
l-16 -16l-16 -16h-25l-8 16zM545 320l-26 13v19l-10 21l-2 19l-2 21l-6 19l-1 21l-7 20l2 17l8 5l19 -12l11 -19l12 -18l4 -18l8 -18l14 -19l13 -16l4 -18l-10 -26l-14 -5z" />
    <glyph glyph-name="plus" unicode="+" 
d="M489 275l-15 -15h-18l-28 1l-23 -1h-26l-17 -1l-34 2l-9 -23l-11 -17l-15 -19l-15 -18l-9 -17l-11 -17l-22 -18l-26 -2l-11 17l14 16l12 15l8 18l7 16l18 17l9 17l10 12h-73l-14 2l-25 -2l-18 2l-7 14l8 16l23 13l23 1l14 1l20 -2l23 2l22 -2l12 2h20l7 10l5 16l9 16
l14 19l7 16l12 16l9 19l21 17l23 -1v-17l-5 -16l-14 -20l-10 -18l-10 -18l-11 -18l-15 -22l18 -2h23l14 2l19 -2l20 2l20 -1l20 1l9 -16z" />
    <glyph glyph-name="comma" unicode="," horiz-adv-x="406" 
d="M145 6l-11 26v28l15 16l22 12l31 3l23 -14l13 -19l2 -30l-10 -28l-8 -17l-11 -18l-10 -16l-17 -14l-19 -12l-15 -12l-19 -10l-21 -9l-16 -5l-24 -3l-22 1l3 15l23 5l12 4l25 8l14 6l15 10l25 14l7 14l16 15l3 11l-12 4l-17 1z" />
    <glyph glyph-name="hyphen" unicode="-" horiz-adv-x="601" 
d="M230 251h35l21 1h23l20 -2l18 2l14 -2l26 2l16 -1h21l13 1h20l16 -16l-3 -16l-10 -13l-14 -2l-47 1l-22 1h-38l-18 -2l-19 2l-18 -2h-24l-15 2l-20 -1h-23l-28 1l-14 -1l-10 16l10 14l12 14h42z" />
    <glyph glyph-name="period" unicode="." horiz-adv-x="400" 
d="M130 31l7 30l13 16l19 10l31 2l29 -15l8 -27l3 -21l-14 -22l-15 -10l-36 -5l-32 14z" />
    <glyph glyph-name="slash" unicode="/" horiz-adv-x="455" 
d="M549 670l-8 -16l-15 -18l-7 -15l-10 -18l-9 -16l-10 -18l-7 -16l-9 -19l-12 -18l-3 -18l-18 -16l-9 -20l-6 -16l-7 -18l-10 -19l-18 -18l-9 -17l-7 -18l-14 -19l-11 -17l-10 -18l-2 -20l-12 -15l-12 -17l-13 -17l-4 -19l-15 -16l-5 -18l-8 -17l-13 -16l-11 -17l-12 -16
l-9 -17l-6 -18l-16 -17l-6 -17l-7 -17l-18 -16l-11 -19l-9 -15l-4 -17l-12 -17l-15 -18l-8 -18l-11 -16l-5 -17l-7 -16l-40 -18l-19 -1l-9 16l11 18l10 17l5 16l11 19l11 15l12 17l8 17l13 19l5 17l8 15l17 18l2 16l16 17l10 17l7 18l15 18l4 15l15 19l9 16l7 17l13 17l7 16
l15 19l6 16l14 16l6 17l8 18l11 18l14 17l8 17l9 16l13 18l3 15l15 18l5 17l18 16l10 18l10 18l10 19l2 18l13 16l7 18l17 20l5 16l15 20l7 18l4 16l12 18l9 18l31 18l19 1l19 -18l-7 -16z" />
    <glyph glyph-name="zero" unicode="0" horiz-adv-x="628" 
d="M163 -4l-16 8l-23 8l-16 13l-13 15l-9 18l-1 18l-7 17l6 21l-3 21l5 18v22l2 19l10 18l3 21l10 19l10 17l23 39l10 16l1 20l13 15l10 19l13 17l15 15l17 16l4 16l16 16l20 15l8 14l17 11l16 14l18 12l15 10l23 12l15 9l15 8l17 7l25 4l18 7l20 3l23 2h35l23 -4l14 -4
l26 -5l17 -10l6 -11l15 -15l13 -19l6 -18l5 -18l-7 -20l-2 -20l-2 -19l-1 -20l-8 -20l-2 -19l-8 -20l-7 -18l-9 -19l-18 -38l-8 -19l-6 -18l-18 -16l-10 -18l-11 -17l-12 -14l-14 -16l-8 -17l-14 -16l-15 -14l-18 -15l-16 -13l-16 -12l-19 -11l-16 -12l-9 -11l-21 -7
l-21 -10l-17 -7l-22 -4l-21 -6l-12 -2l-28 -2h-32h-28zM286 26l12 8l22 10l34 22l8 11l13 13l22 16l10 13l16 15l6 17l21 17l12 15l10 17l7 17l6 17l16 18l9 19l17 34l5 21l7 19l12 19l2 18l12 20l1 19l4 21l7 21l-3 21l-7 21l-5 19l-14 18l-15 15l-15 7l-35 -3l-18 -4
l-18 -7l-24 -6l-15 -9l-15 -11l-18 -13l-11 -12l-14 -14l-12 -15l-17 -14l-11 -14l-15 -18l-11 -15l-13 -15l-12 -18l-14 -16l-5 -18l-13 -17l-11 -18l-10 -37l-14 -17l-9 -20l-8 -20l-7 -17l-2 -21l-5 -21l-7 -19l-3 -22l6 -19l1 -22l6 -18l12 -18l21 -11l15 -7l42 -3l9 6z
" />
    <glyph glyph-name="one" unicode="1" horiz-adv-x="433" 
d="M513 556l-15 -19l-9 -16l-14 -19l-10 -17l-6 -20l-14 -18l-6 -18l-8 -17l-7 -19l-18 -18l-3 -17l-10 -18l-9 -18l-19 -19l-10 -16l-5 -19l-8 -18l-16 -18l-2 -19l-11 -16l-17 -18l-3 -20l-15 -17l-6 -17l-17 -19l-6 -19l-11 -16l-4 -19l-15 -18l-11 -18l-10 -18l-35 -1
h-23l-7 17l3 17l12 20l8 18l14 18l9 17l6 18l13 18l14 19l11 18l4 18l15 18l5 18l10 17l7 19l14 17l7 19l16 17l9 18l8 17l10 15l10 19l7 16l10 16l16 18l14 23l-1 1l-16 -14l-19 -12l-22 -10l-10 -8l-16 -10l-26 -7l-18 -8l-16 -6l-24 -4l-14 -6l-22 -3l-28 -2l-13 4v16
l22 7l24 3l29 5l42 12l18 6l15 8l23 11l12 10l18 9l15 14l18 12l7 11l22 16l14 14l9 13l12 16v0l32 18l17 2l16 -2l11 -14z" />
    <glyph glyph-name="two" unicode="2" horiz-adv-x="563" 
d="M511 575l18 -5l21 -10l13 -12l19 -16l4 -16l11 -18l3 -22l-3 -20l-4 -20l-6 -20l-12 -19l-14 -34l-13 -16l-14 -14l-19 -14l-15 -13l-15 -14l-15 -12l-12 -11l-17 -8l-16 -10l-17 -10l-20 -8l-25 -8l-18 -8l-10 -9l-18 -7l-17 -8l-26 -6l-18 -9l-10 -8l-20 -8l-24 -6
l-12 -10l-25 -9l-13 -8l-19 -10l-9 -11l-23 -13l-10 -11l-12 -16l-18 -14l-9 -14l1 -1h17l22 3h20l24 1h21l16 1l17 3l22 1h45l17 1l16 2l20 2l40 1l27 -2l13 2l22 -2l15 -17l-10 -19l-15 -18l-27 3l-31 -1h-21l-21 1l-15 1h-45l-13 -2l-22 2l-22 -1h-20l-17 1l-19 -2h-29
l-18 2l-15 -1l-22 -1l-22 -1h-22l-3 18l10 17l13 14l11 18l8 15l18 12l12 14l15 15l23 10l12 11l15 11l22 10l14 12l16 9l19 7l19 10l16 6l17 9l22 7l16 8l20 10l14 8l23 9l15 10l15 11l21 12l16 15l9 13l12 13l19 16l7 15l27 33l4 19l7 18l4 19l6 21l3 21l-10 17l-11 18
l-11 13l-21 9l-25 12l-34 -5l-19 -4l-18 -6l-22 -11l-11 -10l-18 -12l-14 -15l-19 -35l-13 -21v-20l-5 -20l15 -17l10 -12l23 -7l15 -11l-9 -14l-23 1l-38 7l-21 7l-18 14l-12 15l-2 20l-2 20l7 20l6 19l20 34l13 15l19 15l12 10l23 11l12 9l24 6l22 7l36 9h61l20 -1z" />
    <glyph glyph-name="three" unicode="3" horiz-adv-x="522" 
d="M557 456l-6 -21l-17 -35l-11 -18l-9 -15l-18 -13l-16 -12l-21 -13l-14 -7l-22 -6l-19 -7l-21 -8l-18 -4l-21 -3l-24 -2v-2l31 -5l23 -5l14 -11l19 -16l11 -16l6 -21l4 -20l-7 -20l-2 -18l-5 -22l-20 -34l-8 -18l-8 -15l-37 -25l-17 -13l-13 -8l-23 -11l-9 -8l-24 -5
l-21 -6l-15 -4l-22 -1h-39l-21 4l-24 4l-10 8l-27 8l-15 13l-13 13l-14 16l-11 16l-6 20l1 22l12 3l12 -18l12 -20l5 -17l15 -13l17 -19l18 -9l19 -5l21 -2h46l20 5l9 6l23 9l19 13l12 11l16 13l9 17l11 15l17 34l11 21l1 18v21l1 18l-2 21l-14 16l-13 15l-15 9l-24 6l-13 5
l-20 4v9l9 10l36 3l19 4l23 5l22 6l13 8l21 8l16 10l16 13l12 14l13 15l19 15l16 37l4 20l1 20l-1 19l-7 21l-12 15l-25 12l-20 5l-34 1l-19 -5l-25 -7l-17 -10l-13 -11l-20 -16l-17 -34l-6 -19l2 -17l11 -15l20 -12l10 -14l-24 -7l-27 3l-11 10l-21 12l-9 20l6 20l4 19
l16 37l19 15l8 14l20 10l16 12l26 6l21 6l15 6l26 1l41 2l14 -4l18 -4l24 -6l15 -7l24 -13l6 -16l15 -16v-18l5 -21v-24z" />
    <glyph glyph-name="four" unicode="4" horiz-adv-x="519" 
d="M468 133l-31 -20l-19 -1l-19 1h-20l-19 -1l-20 1l-8 1l-10 -21l-12 -19l-8 -16l-10 -20l-7 -16l-29 -18h-16l-15 -2l-13 18l12 16l4 18l18 16l7 17l8 18l7 11h-22l-26 -1l-23 1l-11 -1l-23 -1l-25 1h-12l-28 -3l-34 2l-8 1l-3 18l4 18l13 18l15 15l5 18l10 16l12 17
l12 16l21 18l13 15l11 15l15 13l8 15l12 14l17 12l12 14l16 17l10 14l16 15l3 17l13 14l14 19l14 15l5 18l15 20l13 18l6 17l12 17l29 11l21 -5l13 -7l8 -26l-11 -17l-10 -18l-6 -16l-9 -15l-17 -16l-8 -16l-19 -15l-10 -15l-16 -14l-17 -14l-15 -14l-12 -14l-10 -12
l-17 -12l-13 -12l-17 -12l-33 -25l-14 -12l-11 -14l-18 -15l-16 -12l-7 -15l-17 -18l-5 -14l-15 -18l-9 -13l1 -2l16 -2l24 3h22l16 2l19 -1l22 3l16 -1l23 1l25 2h15l7 15l9 17l22 36l10 17l8 18l7 19l5 16l24 19h20l9 -19l-3 -18l-9 -19l-11 -20l-5 -19l-7 -20l-12 -18
l-10 -21h14l25 2l16 2h28l13 1l21 1l10 -18z" />
    <glyph glyph-name="five" unicode="5" 
d="M552 546l-32 -20l-21 1l-25 -2l-23 1h-22l-19 -1l-18 -3l-40 -1l-26 4l-18 -34l-13 -17l-4 -19l-14 -16l-8 -20l-11 -18l-12 -16l-13 -16l-11 -17l-23 -32l2 -1l26 20l17 12l22 6l19 5l17 5l18 1l40 2l27 -5l19 -5l17 -8l9 -9l31 -32l2 -16l8 -21l-2 -20v-21l-3 -18
l-12 -20l-17 -37l-4 -16l-15 -18l-15 -15l-8 -14l-14 -14l-20 -14l-11 -14l-19 -11l-18 -11l-10 -11l-18 -10l-27 -6l-17 -6l-18 -5l-16 -3l-19 -2l-43 -1l-16 2l-15 7l-18 9l-20 8l-20 13l-5 13l-21 16l-8 18l-8 18v18l17 7l6 -18l13 -19l13 -16l8 -13l21 -13l10 -12l23 -6
l17 -7l37 2l38 8l16 10l23 9l15 12l16 13l13 12l9 15l16 15l11 17l15 17l10 18l10 35l11 18l3 20l5 18l-1 20l6 19l-13 20l-9 13l-10 12l-18 5l-46 1l-15 -2l-21 -6l-15 -5l-21 -9l-11 -10l-14 -12l-38 -23h-14l-1 17l13 15l15 17l11 19l6 16l13 17l11 17l14 19l4 18l12 16
l8 20l10 17l15 18l5 18l13 19l7 22l13 12l44 4l38 -2l19 1l21 -1l19 3l29 1l20 -1l16 1l24 2l10 -17z" />
    <glyph glyph-name="six" unicode="6" horiz-adv-x="577" 
d="M554 541l-15 12l-11 5h-41l-16 -2l-23 -8l-19 -7l-28 -19l-21 -13l-16 -13l-10 -12l-15 -14l-26 -32l-16 -14l-13 -18l-13 -14l-12 -18l-8 -16l-11 -18l-9 -18l-10 -17l-12 -38l-12 -19l-13 -19l-3 -19l-2 -19l-5 -20l-9 -21l-3 -18l-1 -21l1 -21l-4 -21l9 -22l11 -17
l19 -11l20 -6l33 -2l27 7l16 6l15 11l18 10l15 14l16 13l12 17l8 16l10 14l13 19l20 36l5 17l1 20l4 21l-4 20l1 19l-19 16l-17 7l-44 2l-18 -6l-17 -7l-15 -11l-15 -12l-14 -15l-15 -16l-8 3l4 23l10 13l17 15l18 12l17 9l16 8l16 7l22 2l46 1l20 -5l18 -4l15 -10l20 -14
l7 -16l10 -18l1 -19l3 -20l-5 -21l-8 -21l-9 -36l-16 -14l-7 -17l-19 -15l-21 -27l-16 -12l-22 -10l-12 -10l-18 -9l-22 -10l-14 -5l-20 -6l-39 -9l-13 -2h-43l-15 4l-26 3l-14 8l-14 9l-18 13l-6 16l-15 15l-3 20l-5 18l-4 18l2 20l5 20l6 21l-1 19l10 18l2 21l10 19l10 17
l16 38l6 17l10 18l13 16l17 19l8 17l9 15l16 15l11 17l21 14l11 14l18 15l11 13l17 11l17 13l11 10l16 12l24 8l16 10l23 6l36 12l20 2l22 3l36 1l21 -4l20 -4l20 -9l19 -12l13 -13l8 -15l9 -21l-21 -19h-34l-13 20l-7 16z" />
    <glyph glyph-name="seven" unicode="7" horiz-adv-x="484" 
d="M572 529l-8 -15l-19 -17l-11 -15l-13 -15l-11 -16l-13 -13l-8 -17l-15 -15l-16 -14l-12 -15l-16 -15l-5 -15l-14 -15l-15 -14l-11 -16l-16 -16l-16 -14l-7 -15l-12 -17l-17 -16l-10 -17l-16 -16l-9 -17l-14 -16l-11 -17l-10 -17l-19 -16l-11 -19l-6 -17l-18 -19l-4 -18
l-17 -26l-14 -10h-32l-20 1l-14 16l14 18l7 17l11 16l8 18l11 18l14 15l10 16l20 17l6 14l13 17l18 17l9 13l14 17l15 15l13 14l15 15l6 15l18 14l10 14l18 13l21 13l11 16l17 13l12 11l17 13l12 14l20 14l14 12l10 14l17 13l14 15l11 15l8 15l12 15l10 11v1l-23 -4h-32
l-11 -1l-28 -1l-20 1l-16 -2l-24 2h-13h-25l-15 -1h-22l-26 -1h-17l-14 1l-20 -1h-28l-20 -3l-4 22l5 17l31 15l14 -1l23 -1h20l18 -2h19l25 -2l22 2l22 -2h15l24 1l18 1h19l22 -1l14 1l25 -1l41 1h21l11 -11l-12 -15z" />
    <glyph glyph-name="eight" unicode="8" horiz-adv-x="548" 
d="M587 473l-8 -28l-20 -26l-15 -14l-13 -14l-16 -13l-19 -11l-11 -11l-23 -9l-12 -7l-20 -10l-25 -6l-14 -6l9 -16l17 -16l9 -17l8 -17l6 -19l6 -18l3 -21l4 -19l-4 -21l-4 -21l-7 -19l-26 -35l-11 -15l-13 -11l-15 -12l-23 -12l-11 -9l-25 -6l-20 -7l-20 -4l-21 -5l-19 -4
h-12l-45 -1l-24 1l-19 4l-15 6l-22 9l-14 12l-14 12l-8 17l-10 18l-3 19l7 18l2 20l21 36l12 16l13 13l12 16l13 11l14 10l21 12l19 8l14 9l19 7l15 9l21 6l21 8l27 9l-10 11l-14 14l-8 17l-11 19l-7 17l-9 19l-2 21l9 18l2 20l5 21l25 34l9 13l17 12l13 11l16 8l23 8l18 8
l14 4l19 4l21 4l20 3h41l19 -3l18 -5l43 -18l10 -14l9 -19l1 -17l2 -21zM519 513l-1 17l-14 18l-12 11l-19 6l-40 -1l-14 -6l-21 -6l-27 -12l-10 -11l-21 -15l-20 -36l-3 -22l-5 -19l6 -20l9 -20l12 -17l13 -17l11 -16l13 -15l24 12l17 11l9 11l35 24l17 14l9 16l14 16
l14 34l8 20zM370 177l-6 19l-3 19l-7 20l-14 15l-15 16l-13 17l-15 -5l-21 -8l-18 -10l-19 -8l-19 -12l-13 -13l-22 -13l-6 -13l-21 -16l-5 -17l-17 -36l-5 -19l-1 -21v-20l12 -18l13 -15l12 -11l25 -4l39 -1l19 5l18 3l14 7l24 11l11 11l19 11l7 14l18 34l8 20l5 21z" />
    <glyph glyph-name="nine" unicode="9" horiz-adv-x="581" 
d="M130 30l11 -11l22 -4l32 -1l18 3l20 6l21 9l14 10l17 11l19 11l14 14l18 11l7 14l22 15l9 15l12 18l12 16l11 14l16 17l11 18l7 17l10 19l4 17l24 36l5 20l6 19l9 18l7 19l11 22l3 19l5 20l-1 22l-4 19l3 23l-10 20l-11 15l-12 13l-24 8l-40 -1l-12 -5l-22 -9l-19 -10
l-10 -9l-24 -12l-9 -14l-18 -14l-4 -17l-10 -15l-13 -17l-21 -36l-6 -18l-8 -20l6 -21l1 -19l8 -19l14 -15l18 -7h33l28 5l32 17l10 15l16 15l15 8l14 -4v-14l-22 -17l-9 -11l-22 -14l-11 -10l-19 -8l-28 -4l-19 -3l-36 -1l-27 3l-20 4l-16 9l-17 12l-15 16l-10 20l1 20
l4 20v21l5 18l15 39l15 15l10 17l16 14l11 14l18 14l21 11l17 13l16 8l20 10l10 9l23 5l22 6l16 5l22 2h43l21 -3l10 -6l24 -6l11 -12l18 -11l11 -16l11 -17l8 -18l3 -18l-2 -18l-4 -21l2 -21v-18l-11 -19l-7 -20l-7 -20l-3 -19l-10 -19l-19 -35l-3 -18l-16 -17l-11 -17
l-9 -18l-9 -18l-18 -15l-8 -15l-20 -17l-12 -14l-9 -14l-15 -14l-22 -12l-10 -13l-18 -12l-12 -11l-26 -12l-9 -7l-20 -10l-18 -6l-21 -5l-19 -7l-26 -4l-11 -1l-45 -1l-24 4l-10 4l-25 10l-11 11l-15 14l-12 14l-12 20l15 20l25 -1l15 2l15 -19l10 -19z" />
    <glyph glyph-name="colon" unicode=":" horiz-adv-x="392" 
d="M283 292l6 27l14 16l16 13h35l16 -13l16 -25l-7 -29l-10 -15l-21 -13l-30 2l-16 11zM129 23l4 32l18 18l25 11l25 -1l15 -10l11 -16l5 -28l-14 -26l-18 -12l-30 -2l-25 12z" />
    <glyph glyph-name="semicolon" unicode=";" horiz-adv-x="406" 
d="M291 291l3 28l7 19l20 9l31 2l20 -11l10 -19l5 -28l-14 -27l-14 -11h-30l-23 12zM151 6l-11 23l4 28l10 17l27 15l27 -2l26 -14l12 -27l-6 -29l-6 -18l-9 -18l-16 -19l-12 -16l-11 -12l-19 -13l-21 -12l-12 -10l-23 -7l-24 -6l-13 -4l-18 -1l-1 13l17 11l20 2l15 6l21 10
l22 4l16 16l7 14l23 26v4l-32 8z" />
    <glyph glyph-name="less" unicode="&#x3c;" horiz-adv-x="528" 
d="M600 503l-19 -13l-17 -13l-15 -9l-16 -11l-14 -11l-26 -12l-8 -12l-20 -9l-15 -10l-21 -12l-20 -8l-21 -11l-11 -11l-22 -7l-20 -10l-18 -9l-17 -8l-12 -9l-21 -11l-24 -7l-11 -7l-30 -17l-2 -3l27 -20l11 -16l18 -17l8 -14l11 -19l9 -15l15 -18l4 -16l10 -17l22 -35
l6 -20l6 -18l-14 -26l-18 -3l-18 28l-14 16l-8 16l-10 17l-11 17l-9 16l-12 14l-10 16l-16 16l-10 16l-14 17l-8 17l-11 13l-18 16l-15 16l14 23l19 8l17 6l14 10l20 6l13 8l24 10l11 9l27 7l15 9l15 10l24 8l17 9l18 10l19 8l18 9l11 11l21 11l15 10l17 10l20 10l10 10
l16 10l17 11l23 9l16 12l10 10l33 4l-1 -15z" />
    <glyph glyph-name="equal" unicode="=" horiz-adv-x="532" 
d="M241 363l17 -2h21l22 2l14 -1l17 -1l43 2l24 -2l19 1l11 -1l24 2h17l22 -2h17l6 -13l-3 -15l-17 -17h-19l-22 2l-24 -1l-19 1h-62l-19 -2h-16l-19 1l-25 1h-18l-37 -2l-19 2l-21 -1l-9 14l9 17l12 13l12 2h42zM154 228h20l26 -1h14l24 1h33l20 1l24 -1h18l38 1l22 -2h39
l12 -15l-12 -15l-15 -14l-23 -1l-23 2l-20 -1l-22 1l-24 -1h-15l-24 -1l-17 2l-13 -2l-26 1h-13l-18 1h-40l-19 -1l-21 1l-8 15l8 13l17 17h25z" />
    <glyph glyph-name="greater" unicode="&#x3e;" horiz-adv-x="528" 
d="M24 58l18 11l13 13l20 11l18 9l14 12l13 12l17 10l25 10l11 12l22 8l15 11l22 9l14 10l24 9l14 10l21 8l18 11l15 9l19 8l15 8l26 7l9 6v2l-10 16l-4 17l-10 16l-10 17l-14 16l-12 16l-10 17l-10 16l-6 17l-9 18l-11 16l-11 17l-9 18l-12 37l18 10l31 -7l10 -19l9 -15
l16 -17l3 -17l14 -17l6 -16l18 -14l13 -17l5 -15l18 -18l12 -15l8 -16l14 -16l11 -14l13 -15l3 -22l-28 -8l-18 -10l-23 -6l-13 -8l-18 -8l-22 -9l-14 -8l-24 -11l-14 -9l-36 -16l-18 -9l-16 -11l-23 -8l-16 -9l-18 -11l-11 -8l-24 -12l-14 -10l-14 -10l-19 -10l-23 -10
l-9 -9l-17 -11l-24 -13l-7 -10l-18 -8l-15 6l15 23z" />
    <glyph glyph-name="question" unicode="?" horiz-adv-x="540" 
d="M578 694l19 -4l18 -9l21 -9l19 -12l11 -17l7 -18l1 -19l3 -20l-2 -22l-11 -17l-15 -36l-15 -14l-12 -16l-18 -12l-11 -12l-12 -14l-24 -10l-12 -11l-18 -11l-14 -12l-11 -9l-20 -11l-17 -14l-20 -11l-8 -12l-19 -12l-16 -13l-11 -14l-16 -16l-19 -14l-9 -16l-19 -15
l-6 -17l-14 -15l-16 -18l-11 -16l-12 -17l-14 -16l-12 6l3 21l13 17l9 18l14 16l7 16l12 14l18 17l7 14l20 15l12 15l11 14l14 15l20 14l16 12l9 15l33 26l12 13l16 11l16 16l15 14l14 13l14 17l9 15l8 17l25 34l6 18l-1 21l3 19l-5 21l-7 14l-21 14l-15 6l-27 6h-36l-20 -5
l-14 -7l-18 -7l-21 -11l-14 -9l-16 -13l-17 -17l-12 -33l-12 -19l-4 -20l-1 -18l17 -19l13 -12l21 -5l14 -10l-8 -13h-22l-25 1l-15 6l-22 8l-12 9l-15 16l-12 19l6 19l-4 17l10 21l22 32l6 17l19 14l12 10l13 12l22 9l39 15l20 5l20 4l14 5l26 1l38 -1l19 -2zM142 31l6 29
l7 17l27 11h27l24 -10l14 -28l-4 -28l-13 -17l-15 -10l-32 -2l-23 13z" />
    <glyph glyph-name="at" unicode="@" horiz-adv-x="1051" 
d="M992 342v-21l-3 -20l-16 -37l-9 -21l-1 -18l-16 -19l-4 -18l-10 -19l-16 -35l-15 -17l-12 -14l-12 -16l-11 -16l-14 -15l-21 -13l-10 -14l-22 -10l-15 -10l-17 -8l-18 -8l-22 -5l-39 1l-18 4l-15 8l-25 10l-7 13l-14 15l-3 21l10 40l-1 1l-38 -41l-17 -11l-19 -10
l-17 -13l-12 -8l-18 -9l-23 -8l-32 -8l-27 -5l-38 1l-22 3l-19 7l-13 11l-15 14l-4 17l-4 19l-2 21l-1 20l7 19l-1 21l14 19l3 19l26 35l6 17l17 15l7 17l13 14l21 15l6 13l18 14l17 12l17 14l11 9l20 12l15 7l23 9l15 7l21 6l22 5l15 3l18 2l41 -1l22 -4l16 -8l9 -14
l13 -15l6 -17l-2 -30h2l18 28l4 17l13 17l26 18l26 -1l12 -1l8 -14l-11 -19l-7 -16l-12 -17l-5 -19l-15 -15l-9 -18l-7 -18l-14 -16l-10 -18l-10 -15l-4 -19l-14 -17l-20 -36l-3 -18l-9 -21l1 -20v-19l9 -18l18 -11h43l15 4l14 10l23 9l14 11l16 13l10 15l13 15l18 13l6 18
l25 34l8 18l6 17l12 18v19l11 20l13 40l1 18l3 20l-2 20v22l-3 19l2 21l-10 18l-3 17l-7 18l-15 15l-8 17l-13 13l-17 11l-19 9l-21 11l-20 13l-19 4l-16 1l-21 3l-25 8l-14 2l-37 -1l-28 -3l-36 -10l-17 -2l-21 -4l-14 -4l-26 -6l-14 -7l-22 -5l-14 -9l-25 -8l-17 -7
l-14 -8l-15 -9l-19 -12l-23 -9l-10 -11l-18 -10l-16 -14l-17 -11l-17 -13l-14 -14l-9 -12l-12 -15l-12 -14l-18 -16l-11 -16l-9 -15l-15 -17l-9 -15l-10 -17l-24 -33l-5 -18l-11 -18l-16 -19l-6 -18l-9 -19l-4 -19l-5 -19l-9 -18l4 -20l-9 -21l-3 -20l3 -19l-3 -20l11 -22
l3 -18l3 -18l8 -18l14 -14l13 -14l15 -14l23 -8l30 -15l19 -5l20 -4l18 -5h25l23 -7l-4 -16h-43l-13 3l-28 2l-15 3l-18 3l-19 6l-18 6l-20 7l-22 9l-12 10l-20 11l-11 14l-18 14l-5 17l-17 18l-1 16l-8 18l-6 20l-4 20l9 18l-5 20l1 20l8 20l4 20l7 20l9 19l6 20l8 17v20
l12 16l7 18l27 35l12 18l6 15l17 16l6 18l17 15l13 15l14 13l10 14l16 14l18 14l10 14l18 11l13 12l14 14l23 9l14 11l22 10l18 10l13 9l14 9l26 10l14 8l17 7l25 5l12 6l37 12l19 6l20 3l27 3l13 3l23 3l24 3l17 -4l23 3h37l24 -1l17 -3l22 -2l23 -6l14 -5l24 -2l18 -8
l13 -8l14 -11l20 -11l10 -13l19 -17l10 -16l14 -17l7 -17l4 -20l6 -19l2 -19l-5 -21l6 -20zM631 145l15 25l9 17l13 15l10 17l3 10l3 10l3 26l9 20v18l4 22l-16 18l-12 13l-16 5l-42 2l-15 -3l-12 -7l-21 -7l-20 -10l-14 -9l-19 -13l-13 -12l-9 -12l-19 -15l-15 -14l-8 -17
l-9 -15l-12 -17l-22 -32l-15 -20v-18l-6 -19l-11 -20l4 -20l-1 -18l12 -17l18 -15l11 -6h41l22 4l22 8l17 10l10 10l20 11l20 14l12 13l12 16l20 14z" />
    <glyph glyph-name="A" unicode="A" horiz-adv-x="773" 
d="M864 656l-7 -16l-10 -19l-9 -15l-11 -18l-6 -18l-11 -16l-16 -17l-3 -17l-18 -17l-8 -16l-8 -18l-13 -17l-7 -16l-9 -18l-14 -16l-4 -5l5 1h25h21l18 2l20 -1l24 -12l-4 -13l-35 -2h-16l-22 -1l-41 -2l-5 -1v-1l-12 -19l-9 -16l-14 -17l-10 -17l-1 -18l-15 -16l-14 -17
l-9 -18l-13 -32l-13 -19l-11 -17l-8 -19l-5 -18l-5 -19v-20l6 -20l4 -17l9 -15l16 -11l23 -5h37l22 4l14 4l17 8l21 9l15 13l11 11l19 14l12 13l13 16l13 13l7 18l18 -1l7 -11l-6 -17l-12 -15l-21 -14l-7 -15l-16 -13l-19 -11l-8 -12l-21 -10l-12 -8l-23 -10l-18 -6l-15 -4
l-22 -3l-45 1l-14 1l-25 5l-19 8l-13 12l-8 15l-9 16l-15 20l6 18l-7 21l4 19v20l10 22l6 20l14 17l5 19l24 38l1 17l12 17l11 15l13 19l8 15l15 18l1 2l-17 -2l-25 -3l-20 -3l-12 -1l-20 -5l-22 -2l-24 9l-9 -1l-31 -18l-6 -11l-13 -19l-13 -18l-4 -19l-17 -17l-3 -19
l-17 -16l-4 -18l-18 -17l-12 -15l-8 -18l-6 -17l-13 -15l-19 -16l-10 -17l-10 -16l-23 -15l-12 -14l-19 -13l-16 -12l-9 -8l-23 -8l-21 -8l-20 -2l-37 -2l-18 5l-23 8l-14 11l-17 15l-8 19l-4 22l4 21l9 19l18 35l16 15l9 15l18 15l12 12l10 14l19 10l17 14l20 9l10 11
l17 11l16 7l25 9l12 10l24 8l13 8l26 7l37 13l19 5l18 8l17 4l24 7v0l4 4l4 19l17 36l19 18l6 18l5 20l20 17l9 15l12 19l9 17l18 15l4 15l14 16l14 15l22 12l13 14l16 11l21 13l12 8l19 9l16 10l39 10l27 4l17 5l21 2l54 1l27 -1l4 -16zM776 656l-20 -4l-18 -5l-25 -3
l-22 -6l-9 -8l-20 -10l-17 -11l-20 -10l-12 -11l-21 -14l-15 -13l-6 -16l-21 -15l-9 -18l-9 -15l-13 -18l-16 -16l-7 -20l-15 -16l-6 -19l-17 -37l-14 -17v-1l13 3l18 3l19 5l17 2l20 4l20 3l21 4l21 2l23 1l10 1l2 4l14 17l5 18l17 16l9 18l7 17l14 17l15 17l11 15l7 18
l15 17l4 18l17 17l8 17l8 15l12 19l13 17zM399 318l-10 -5l-20 -7l-22 -6l-16 -6l-23 -6l-15 -9l-18 -7l-26 -7l-17 -11l-16 -7l-16 -11l-15 -11l-19 -9l-15 -12l-18 -14l-11 -12l-14 -15l-21 -15l-9 -15l-15 -35l-10 -18l-6 -19l11 -18l8 -17l13 -12l18 -5l38 -2l9 4l16 7
l20 9l13 9l17 11l16 14l14 13l13 16l8 15l18 16l12 17l5 17l14 15l9 18l18 17l11 20l9 17l11 17l5 18l12 20l13 17z" />
    <glyph glyph-name="B" unicode="B" horiz-adv-x="888" 
d="M865 509l-3 -19l-3 -18l-24 -33l-13 -15l-7 -12l-13 -12l-19 -10l-15 -11l-18 -8l-24 -5l-14 -6l-20 -6l-7 -1l12 -5l18 -7l17 -8l21 -12l18 -12l15 -16l11 -15l2 -18l9 -18l-2 -18l2 -20l4 -18l-2 -20l-17 -37l-22 -34l-14 -15l-14 -14l-15 -13l-18 -13l-15 -10l-15 -11
l-24 -8l-17 -7l-18 -6l-21 -6l-13 -5l-27 -1l-42 1l-13 2l-23 4l-13 7l-22 6l-17 12l-14 11l-15 14l-4 14l-14 17l4 23h13l19 -28l16 -16l16 -13l18 -10l15 -9l19 -7l13 -4h42l18 6l21 4l17 8l23 12l19 10l16 13l11 16l16 16l19 35l11 18v19l1 19l2 19l-2 21l-3 19l-4 16
l-14 17l-3 17l-23 13l-15 10l-14 10l-17 5l-24 5l-42 6l-15 15l3 16l34 -2v0l21 1l18 2l20 3l18 7l21 6l17 8l20 8l15 14l13 11l9 15l27 37v19l5 18l9 22v18l-6 20l-16 18l-9 17l-15 13l-15 15l-5 3l-5 -1l-21 -10l-14 -8l-17 -10l-19 -10l-11 -14l-19 -12l-15 -14l-10 -16
l-7 -17l-16 -15l-12 -17l-6 -16l-20 -18l-2 -17l-15 -18l-12 -19l-15 -36l-4 -17l-13 -19l-5 -18l-12 -15l-10 -17l-16 -17l-9 -18l-10 -16l-6 -18l-10 -17l-8 -16l-17 -17l-5 -15l-13 -18l-12 -14l-16 -16l-18 -14l-9 -15l-12 -15l-22 -13l-15 -12l-14 -13l-14 -11l-13 -9
l-24 -9l-17 -6l-16 -4l-21 -2l-38 2l-24 4l-17 9l-10 11l-19 16l-3 17l-9 20l7 19l6 20v19l10 19l20 17l19 29l11 -10l-6 -23l-6 -15l-16 -15l-10 -17l-1 -21l-2 -19l5 -18l15 -17l12 -11l20 -6l31 -3l22 7l16 5l29 21l13 14l14 15l11 13l20 16l11 17l15 17l6 18l14 16
l10 18l14 18l5 19l13 19l15 18l9 18l13 21l8 19l6 19l12 19l8 18l26 38l3 16l12 18l9 20l12 15l17 18l7 18l9 14l15 16l17 16l16 16l10 13l15 12l13 12l38 22l22 9l9 10l26 5l4 2l-8 3l-13 8l-24 5l-22 6l-14 5l-23 2l-49 2l-37 2l-16 -2l-19 -3l-21 -1l-25 -6l-21 -2
l-16 -6l-14 -5l-27 -7l-16 -10l-16 -9l-20 -9l-17 -10l-9 -13l-17 -16l-8 -15l-22 -33l-12 -18l-4 -21l3 -19l7 -17l18 -12l17 -7h40l20 7l27 7l18 10l5 -6l-4 -12l-20 -11l-14 -11l-21 -8l-18 -2h-42l-29 1l-18 5l-33 20l-20 16l-3 16l-7 20l3 23l7 18l14 35l15 16l15 13
l12 13l14 14l19 11l23 8l9 9l27 8l14 9l16 7l19 6l21 5l24 6l12 4l26 4l17 3l23 1l18 3l20 -1l20 3h41l15 -2l28 -1l14 -3l23 -4l18 -3l16 -4l26 -6l16 -7l19 -10l6 -4l8 1l11 4l24 1l18 4l19 -1l44 3l-2 -14l-17 -14l-17 -2h-22l-25 -4l-5 -1v-1l25 -11l10 -13l10 -16
l13 -14l16 -17l2 -20l12 -17l3 -21zM359 489l28 27l18 6l5 -9l-15 -7l-13 -20l-14 -7z" />
    <glyph glyph-name="C" unicode="C" horiz-adv-x="746" 
d="M949 622v-21l-5 -19l-25 -35l-11 -15l-16 -15l-5 -16l-16 -13l-13 -12l-16 -13l-17 -9l-21 -11l-19 -12l-16 -10l-14 -7l-20 -10l-23 -8l-14 -5l-22 -7l-14 -8l-27 -4l-16 -6l-18 -6l-26 -4l-22 -4l-13 -3l-23 -5l-44 -4l-13 -2l-28 -2l-17 -4l-14 1l-23 -1h-3l-4 -7
l-15 -16l-10 -19l-8 -18v-18l-11 -20l-3 -17l-6 -21l-7 -19l5 -19l-1 -22l-1 -19l9 -20v-18l12 -16l14 -13l14 -12l16 -9l21 -8l21 -6l32 -4l46 1l14 1l26 3l21 4l17 5l22 5l16 7l15 8l23 8l18 10l21 9l15 10l12 12l23 11l13 15l13 11l22 16l25 32l12 -8l-10 -23l-15 -15
l-6 -14l-17 -15l-21 -13l-10 -10l-25 -14l-13 -9l-18 -12l-14 -7l-25 -11l-20 -8l-11 -5l-19 -8l-20 -5l-22 -7l-21 -4l-24 -1l-17 -2l-16 -3h-43l-21 3l-16 2l-27 3l-17 4l-20 5l-19 8l-16 11l-16 13l-13 11l-11 16l-10 17l-4 17l-9 19l-6 20l-1 20l9 19l3 20l-5 20l10 21
l3 20l8 18l9 19l10 18l6 19l6 8l-16 1l-18 2l-20 4l-17 4l-22 4l-20 8l-15 6l-21 11l-7 13l-23 12l-4 18l-7 15l-5 19l-5 19l3 20l3 20l3 17l27 35l10 16l19 15l8 13l23 10l13 11l18 10l16 9l21 9l19 6l17 4l21 5l25 2l34 4l3 -4l1 -14l-48 -6l-34 -15l-19 -9l-19 -10
l-14 -13l-12 -12l-10 -17l-17 -15l-20 -36l-5 -16l-7 -20l1 -19l4 -19l7 -18l10 -15l12 -16l10 -9l21 -11l24 -5l15 -7l16 -3l24 -1l6 17l15 15l13 18l13 17l11 14l9 18l14 15l10 13l23 17l5 12l22 15l14 14l11 14l17 12l20 12l13 12l18 11l19 12l16 8l16 11l23 9l10 8
l22 10l17 7l19 7l41 10l59 11l25 2h38l20 -3l21 -5l20 -6l18 -11l12 -15l12 -18zM874 619l-2 18l-11 17l-19 10l-19 6l-39 1l-14 -3l-44 -9l-18 -7l-12 -5l-27 -9l-16 -9l-17 -9l-19 -11l-10 -13l-17 -12l-24 -11l-11 -12l-16 -13l-19 -15l-11 -13l-11 -17l-12 -15l-19 -13
l-16 -17l-10 -17l-15 -15l-10 -16l-12 -18l-7 -18l-11 -16l-4 -8l13 -5l23 5l22 3l13 8l10 2l20 2l28 3l13 4l19 6l21 5l25 4l18 5l12 6l23 8l17 8l16 6l25 8l15 10l17 10l17 11l19 10l16 13l9 12l16 13l14 12l10 15l16 16l23 35l12 16z" />
    <glyph glyph-name="D" unicode="D" horiz-adv-x="905" 
d="M851 332v-19l-8 -22l-6 -19l-3 -19l-11 -20l-7 -17l-8 -19l-10 -18l-21 -35l-3 -16l-14 -16l-16 -16l-9 -12l-16 -13l-16 -13l-15 -13l-23 -9l-10 -11l-26 -10l-16 -7l-35 -9l-25 -4l-20 -2h-38l-15 2l-23 7l-14 8l-22 9l-9 13l-16 12l-12 16l-5 18l-1 24l17 -3l17 -30
l16 -17l34 -24l18 -8l17 -5l40 1l20 5l22 7l16 11l13 11l17 13l23 13l8 16l17 14l29 34l15 36l17 19l3 17l6 19l15 19l4 19l6 17l5 20l7 19l-1 20l6 22l-1 19l2 21l3 20l-7 18l1 22l-4 18l-9 20l-7 18l-10 18l-1 19l-18 17l-7 16l-8 15l-8 32l-14 -9l-15 -11l-21 -9l-15 -13
l-12 -13l-14 -15l-14 -14l-10 -17l-8 -16l-19 -16l-10 -19l-12 -17l-3 -17l-16 -18l-7 -18l-14 -36l-10 -18l-15 -18l-4 -16l-11 -18l-7 -16l-9 -19l-17 -17l-6 -16l-7 -18l-16 -17l-11 -16l-7 -16l-19 -17l-7 -15l-8 -16l-17 -14l-16 -17l-13 -13l-8 -16l-17 -12l-15 -12
l-15 -13l-23 -11l-14 -10l-21 -8l-37 -10l-14 -2l-44 1l-13 4l-22 9l-15 13l-13 13l-9 19l-1 19l1 20l2 20l7 19l9 17l18 19l13 15l22 5l5 -13l-23 -27l-7 -15l-13 -18l-2 -19l1 -20l-2 -19l17 -15l13 -13l15 -7l39 1l11 3l21 7l12 11l14 11l12 12l23 13l12 17l13 16l7 15
l20 17l13 18l7 17l11 19l13 17l13 18l4 17l17 21l12 17l12 19l4 21l7 17l13 20l12 20l16 36l17 17l4 19l7 18l11 16l16 17l7 19l30 32l17 15l6 15l18 13l15 12l20 14l9 10l19 13l24 9l12 8l20 7l-42 13l-27 11l-18 2h-20l-19 2h-21l-18 2l-16 1l-43 1l-19 -2l-16 -4l-24 -4
l-12 -3l-23 -7l-14 -6l-23 -8l-13 -11l-24 -10l-7 -10l-16 -13l-19 -13l-13 -17l-18 -34l-8 -18l-4 -22l1 -20l9 -19l17 -14l16 -7l47 2l18 4l16 9l15 10l20 14l13 13l19 18l13 15l9 -5l-4 -25l-12 -15l-16 -14l-13 -13l-16 -12l-23 -9l-17 -8l-23 -4l-15 -5h-46l-11 3
l-27 3l-12 8l-21 11l-11 13l-10 14l-3 20l-7 17l4 19l11 19l12 34l13 16l11 12l18 15l11 11l23 10l13 12l18 8l23 8l14 8l14 6l20 8l20 3l26 6l17 3l14 3l23 2l21 -1h44h21l14 -3l20 -3l19 -2l25 -5l20 -8l11 -5l23 -9l20 -8l14 -9l15 5l41 8l16 6l19 3h21l25 3l38 1l3 -15
l-25 -12l-22 -3l-16 -1l-23 -3l-14 -5l-22 -4l-23 -7l-3 -2l18 -13l11 -12l12 -15l14 -16l17 -16l5 -17l10 -18l11 -17l9 -18l12 -20l1 -19l11 -17l-6 -20l4 -22l-1 -18l4 -22l4 -18z" />
    <glyph glyph-name="E" unicode="E" horiz-adv-x="690" 
d="M864 593l-13 -15l-16 -13l-13 -13l-10 -14l-19 -12l-12 -13l-21 -10l-12 -12l-19 -10l-21 -10l-20 -8l-12 -9l-24 -9l-18 -8l-22 -7l-38 -12l-10 -3v-10l-3 -18l-21 -32l-14 -13l-20 -12l-17 -9l-19 -9l-9 -9l-26 -10l-18 -10l-9 -10l-24 -11l-14 -9l-17 -12l-10 -16
l-14 -14l-20 -15l-14 -36l-12 -18l-2 -19l-3 -22l6 -18l8 -16l13 -16l20 -11l18 -9l17 -7l18 -6l20 -1l63 1l15 1l15 4l25 5l14 3l45 14l18 6l12 7l24 11l10 8l16 11l16 12l32 9l7 13l16 15l6 12l24 26l14 -2l4 -22l-20 -14l-9 -14l-16 -12l-15 -14l-18 -12l-11 -10l-22 -12
l-12 -10l-25 -10l-16 -9l-17 -7l-22 -6l-18 -7l-19 -8l-11 -4l-25 -3l-20 -4l-16 -5l-26 -1l-20 -2h-32l-23 2l-15 2l-23 3l-22 6l-30 13l-25 9l-22 27l-11 19l-5 17l-9 20l3 19l5 17l4 20l24 32l13 15l8 14l23 15l9 10l20 13l34 18l15 8l17 9l25 8l11 8l22 9l18 10l12 14
l22 31l-1 19l-8 -1l-17 -4l-17 -1l-18 -3l-27 -1l-35 1l-17 2l-27 2l-36 5l-24 3l-19 5l-16 7l-21 7l-19 10l-18 10l-14 13l-8 16l-13 18l-1 20l2 17l-1 19l22 36l15 14l9 15l34 22l15 12l19 7l21 10l19 7l21 5l17 6l42 6h41l4 -13l-19 -11l-27 -5l-15 -3l-24 -6l-17 -7
l-16 -9l-16 -10l-19 -14l-14 -14l-16 -15l-19 -34l-5 -19l7 -20l1 -19l7 -14l15 -16l23 -9l19 -11l14 -5l29 -7l16 -2l26 -2l54 -11l46 12l21 3l12 2l-8 15l4 19l-2 21l-2 20v20l8 19l7 21l19 34l11 15l17 16l10 11l16 13l20 12l16 9l14 10l24 7l12 8l27 4l21 6l13 3l27 5
l17 2l34 -2h20l24 -6l14 -8l16 -11l9 -17l2 -19l1 -20zM831 645l2 18l-19 11l-21 3l-31 1l-18 -1l-26 -4l-17 -8l-14 -5l-17 -10l-17 -11l-19 -11l-12 -11l-19 -16l-7 -14l-25 -33l-10 -19l3 -19l-9 -19l1 -19l1 -19l4 -17l2 -6l21 6l15 7l16 6l24 7l13 9l17 10l19 10l24 12
l10 10l20 12l10 14l20 11l18 16l6 13l19 16l17 36z" />
    <glyph glyph-name="F" unicode="F" horiz-adv-x="668" 
d="M842 656l-12 1l-28 -2l-12 -4l-21 -4l-23 -5l-16 -6l-20 -6l-14 -9l-21 -11l-18 -12l-6 -12l-22 -13l-8 -14l-20 -13l-7 -17l-13 -16l-17 -15l-11 -17l-4 -18l-15 -16l-13 -18l-1 -17l-9 -20h4h38l21 -1h20l26 1l20 1l3 -10l2 -7l-8 -15l-13 -15l-3 -18l-3 -20l-6 -19
l6 -17l4 -16l10 -27l-20 -2l-15 15l-8 20l-8 20l2 18l3 20v20l25 31l-4 5v0l-33 -22l-19 -6h-24l-23 -1l-20 1h-7l-4 -7l-13 -16l-5 -18l-11 -16l-7 -18l-10 -16l-7 -17l-11 -18l-18 -16l-11 -19l-3 -14l-15 -17l-13 -17l-9 -15l-14 -16l-11 -15l-20 -13l-16 -14l-6 -15
l-17 -13l-16 -10l-18 -12l-17 -9l-16 -8l-17 -6l-21 -4l-21 -4l-39 2l-16 5l-20 10l-17 11l-7 15l-16 19l4 18l-3 20l3 20l3 20l17 17l11 16l17 16l20 5l7 -15l-24 -23l-10 -17l-14 -18l-4 -19l-1 -20l6 -18l8 -15l19 -13l21 -5l28 -1l16 5l24 7l7 8l20 12l10 12l22 15l9 14
l10 17l19 15l12 18l9 17l18 17l13 19l5 17l12 19l10 18l8 19l17 18l10 19l11 18l7 20l5 12h-40l-13 -1h-21l-12 16l5 15l29 16l16 -2h44l18 1l8 18l7 17l8 20l18 16l12 19l10 16l5 16l16 17l9 17l13 14l17 16l18 14l16 11l8 13l25 12l16 12l18 8l18 8l13 8l21 4l25 11h1h-1
l-24 -1l-26 3l-20 2l-16 1l-18 1l-22 4h-22l-18 3l-39 2l-21 1l-39 -1l-19 -1h-28l-15 -3l-20 -6l-41 -10l-18 -10l-15 -7l-12 -12l-17 -13l-13 -11l-22 -14l-7 -18l-17 -35l-7 -20l-6 -20l6 -19l9 -19l10 -11l21 -8h42l20 5l12 8l22 12l15 13l15 14l30 27l9 -2l4 -24
l-13 -16l-15 -12l-23 -14l-13 -10l-18 -10l-19 -8l-25 -4l-20 -3l-40 1l-14 1l-26 4l-13 8l-38 21l-4 16l-8 17l-6 21l7 17l9 19l18 35l10 16l15 15l19 15l15 13l14 12l15 10l25 9l19 7l11 8l28 5l11 7l20 5l28 4l15 3l24 1l23 3l20 1l39 -2l25 1l16 -2l24 -1l17 -2l21 -3
h21l39 -5l13 -3l26 -1l19 -3l21 -2l14 -2l23 -2h16l21 -4l45 -1v0v-17z" />
    <glyph glyph-name="G" unicode="G" horiz-adv-x="864" 
d="M965 611l-15 -18l-17 -37l-14 -14l-8 -16l-16 -12l-16 -14l-15 -12l-12 -14l-24 -11l-13 -11l-18 -9l-16 -9l-16 -11l-41 -14l-14 -8l-43 -12l-23 -8l-18 -5l-19 -6l-24 -4l-11 -4l-22 -4l-21 -4l-25 -1l-14 -4l-24 -1l-18 -4l-19 -1h-21l-27 -2h-5l-4 -7l-10 -18l1 -18
l-13 -21l-4 -18l-1 -22l-4 -21l4 -18l12 -19l6 -17l16 -14l15 -11l19 -10l23 -5l13 -1h44l14 2l23 3l23 5l18 9l19 7l14 8l13 10l18 12l14 12l16 12l19 14v0l9 14l16 15l1 2l8 5l20 13l19 -1l21 1v-2l6 -17l-1 -12l-10 -21l-13 -20l-18 -17l-15 -18l-8 -19l-10 -17l-11 -19
l-12 -18l-3 -16l-16 -20l-6 -16l-14 -20l-8 -18l-5 -16l-10 -18l-13 -18l-13 -19l-4 -17l-20 -35l-18 -18l-4 -16l-14 -16l-18 -14l-11 -16l-16 -14l-18 -12l-12 -12l-14 -13l-16 -9l-25 -8l-12 -8l-17 -8l-19 -2l-22 -5l-38 2l-20 2l-25 4l-18 8l-12 12l-15 15l-5 16l2 21
l8 16l15 33l10 15l21 13l7 13l22 10l13 7l20 9l22 8l11 5l23 5l22 2l12 3l25 1l20 -11l1 -9l-42 -2l-18 -4l-30 8l-14 -8l-21 -7l-12 -8l-17 -15l-23 -15l-9 -21l-22 -36l-1 -21l1 -18l22 -15l13 -8l42 -1l18 7l18 6l17 12l23 12l13 12l13 16l17 15l16 16l10 17l8 17l11 16
l22 37l11 17l13 18l6 18l16 20l5 16l15 18l2 16l13 16l7 18l17 16l6 18l26 29v6l-44 -21l-15 -7l-21 -6l-17 -7l-17 -2l-27 -4l-20 -2l-14 -1h-40l-25 3l-21 1l-57 19l-12 10l-21 12l-12 14l-6 16l-10 17l-3 21l-4 17l-5 20l3 20l11 19l4 21l7 18l14 18l2 6l-41 4l-17 3
l-13 6l-19 3l-20 8l-21 7l-17 11l-18 11l-14 15l-15 15l-2 18l-5 20l-4 19l8 17l5 19l7 19l14 36l15 16l16 15l9 13l16 11l20 10l22 10l19 10l18 9l12 6l47 7l20 4h40v-12l-18 -14l-23 -1l-26 -7l-10 -6l-21 -10l-21 -10l-17 -10l-10 -15l-13 -14l-20 -15l-15 -37l-5 -18
l-12 -19l-3 -19l7 -20l9 -18l13 -15l6 -16l17 -10l21 -10l16 -7l25 -4l15 -5l15 -1l19 18l3 16l16 16l8 16l17 18l11 16l13 15l20 15l14 15l12 14l9 12l15 14l22 14l15 12l10 13l24 12l8 10l21 12l13 11l23 8l15 11l22 7l17 9l20 8l22 5l14 6l24 6l22 3l19 5l17 1l19 3h42
l17 -2l48 -12l13 -12l12 -16l13 -16l5 -20zM884 648l-5 16l-21 11l-14 5h-42l-20 -2l-17 -4l-26 -5l-20 -6l-11 -5l-21 -8l-19 -9l-20 -10l-20 -12l-15 -11l-10 -11l-20 -12l-17 -15l-18 -11l-13 -14l-14 -14l-15 -16l-14 -14l-11 -16l-19 -16l-10 -15l-11 -17l-14 -17
l-8 -17l-15 -18l-13 -18v-1l9 1h24l18 2l21 3l16 1l20 3l22 4l20 3l13 3l19 6l24 5l15 6l21 6l19 8l24 7l15 6l20 10l18 7l17 12l10 10l18 11l15 11l22 12l16 12l13 16l13 13l9 18l16 33l8 20l8 19z" />
    <glyph glyph-name="H" unicode="H" horiz-adv-x="903" 
d="M1107 692l9 -17l4 -17l-1 -21l-7 -18l-25 -34l-11 -14l-14 -13l-14 -13l-7 -14l-23 -11l-15 -12l-14 -11l-22 -9l-15 -11l-16 -10l-24 -9l-18 -7l-16 -10l-17 -6l-21 -8l-16 -7l-24 -7l-14 -9l-18 -5l-19 -7l-25 -6l-20 -3l-11 -16l-13 -34l-15 -20l-12 -18l-2 -18
l-16 -18l-3 -18l-6 -19l-12 -19l-7 -22l2 -20l-12 -19v-22l3 -21l4 -20l3 -19l12 -17l18 -13l15 -7l17 -6l43 2l25 1l19 5l16 5l21 8l13 8l23 8l10 10l17 11l19 11l14 13l20 12l18 14l16 13l10 15l23 22h13l7 -11l-28 -25l-12 -13l-15 -16l-8 -11l-14 -13l-25 -12l-24 -24
l-18 -8l-26 -9l-10 -10l-36 -16l-23 -5l-15 -6l-19 -4h-60l-27 2l-11 4l-24 5l-14 8l-16 12l-11 12l-10 15l-11 18l-6 17l-5 18l4 19l-4 22l8 18l-3 21l11 21l7 19l1 17l10 19l12 19l7 18l12 20l8 16l16 32l-19 -4l-13 -5l-23 -6l-22 -5l-19 -5l-21 -6l-32 -9l-7 -17
l-16 -18l-11 -19l-2 -17l-14 -17l-8 -19l-19 -17l-7 -16l-11 -17l-16 -17l-6 -16l-14 -17l-19 -16l-9 -15l-20 -14l-9 -13l-22 -14l-13 -12l-11 -11l-19 -10l-22 -9l-21 -5l-20 -6l-12 -4h-45l-15 4l-19 7l-23 9l-14 10l-9 16l-2 19l-8 17l6 21l6 16l13 17l6 16l18 16l12 14
l16 14l19 12l25 20l24 10l14 11l23 7l15 10l15 9l26 7l16 7l24 8l19 9l19 6l19 7l14 6l16 8l23 7l21 32l2 15l24 35l11 18l6 18l5 18l12 16l7 19l18 17l7 15l15 17l9 17l8 17l17 14l8 14l15 14l16 14l21 11l14 12l34 17l-16 3l-23 4l-18 5l-28 3l-13 3l-26 2h-21l-16 1
l-35 1h-28l-13 -2l-19 -5l-18 -4l-23 -4l-21 -6l-12 -10l-22 -7l-15 -13l-16 -10l-8 -14l-22 -13l-3 -16l-27 -35l-4 -19l-6 -20l2 -21l7 -20l17 -14l15 -7h49l17 7l21 8l19 10l15 13l16 15l5 15l22 13l11 -9l-19 -32l-22 -14l-14 -13l-11 -11l-26 -11l-10 -6l-23 -8l-25 -2
l-35 -2l-41 7l-21 7l-11 8l-28 29l-6 18l-3 19l8 21l9 16l12 36l15 16l16 13l13 15l9 13l24 11l11 12l19 9l14 7l21 9l15 6l26 6l15 6l44 7l20 2h13l28 2h37l26 -2h17l22 -4l22 -1l12 -4l20 -2l20 -4l28 -4l17 -3l18 -1l20 -2l39 -3l4 -19l-8 -9l-28 -11l-27 -5l-11 -7
l-19 -10l-19 -12l-17 -14l-14 -12l-12 -18l-6 -15l-12 -18l-16 -18l-7 -17l-15 -19l-13 -18l-3 -19l-10 -18l-11 -21l-21 -39l-13 -21l34 10l25 3l19 6l17 6l20 5l14 4l24 7l24 31l6 15l13 16l12 17l16 15l15 15l13 15l5 14l20 14l8 13l20 16l14 12l19 13l11 13l16 11l16 12
l19 11l14 9l19 10l18 10l21 7l14 6l19 7l21 4l16 3h41l17 -4zM1071 661l-9 17l-35 2l-17 -5l-21 -7l-15 -10l-26 -10l-15 -11l-16 -12l-17 -13l-15 -13l-9 -12l-16 -15l-18 -16l-18 -15l-10 -13l-19 -18l-9 -16l-15 -16l-11 -14l-13 -17l-22 -35l17 7l22 4l19 8l21 8l17 7
l13 7l17 7l18 8l26 8l13 10l15 7l23 10l17 10l13 11l21 11l9 12l22 15l11 14l14 15l13 32l12 22zM158 29l17 10l17 12l20 13l14 12l6 16l16 15l9 16l20 17l8 16l15 17l5 16l12 18l14 18l7 17l13 18l16 20l7 18l-16 4l-37 -8l-10 -8l-25 -6l-11 -8l-19 -7l-32 -24l-14 -7
l-29 -17l-17 -10l-20 -9l-29 -22l-24 -13l-14 -15l-12 -15l-6 -20l-9 -19l-3 -20l3 -20l14 -17l10 -11l19 -10h43l13 5z" />
    <glyph glyph-name="I" unicode="I" horiz-adv-x="511" 
d="M771 658l-27 -7l-26 -6l-15 -7l-11 -10l-24 -10l-16 -12l-10 -11l-14 -15l-17 -14l-9 -16l-12 -15l-18 -19l-13 -16l-7 -16l-9 -20l-10 -17l-17 -17l-8 -20l-17 -35l-5 -18l-14 -17l-6 -18l-14 -17l-1 -17l-14 -18l-14 -17l-7 -16l-11 -16l-8 -18l-11 -18l-11 -14
l-15 -17l-14 -17l-9 -16l-7 -14l-19 -14l-9 -17l-15 -12l-18 -14l-15 -13l-15 -13l-19 -11l-11 -8l-22 -9l-14 -5l-21 -3l-25 -4l-39 1l-20 4l-11 9l-21 14l-6 14l-15 18l2 19l-3 21l4 20l9 18l8 18l15 18l13 13l22 5l12 -8l-23 -28l-10 -17l-16 -17l1 -21l-1 -18l5 -19
l7 -16l15 -12l20 -6l33 -2l13 5l25 7l14 9l16 10l14 14l8 13l15 17l17 16l6 16l21 17l6 17l10 18l12 16l14 18l11 19l17 19l11 17l7 19l13 20l7 18l9 21l11 17l12 21l20 37l9 15l2 17l12 17l11 17l11 18l16 16l4 16l17 16l9 18l27 28l15 16l13 12l16 14l20 11l12 10l14 10
l22 10l13 5l-55 7l-13 3l-25 5l-18 2l-18 2l-41 12l-18 2l-42 -10l-18 -2l-17 -4l-26 -2l-16 -6l-19 -5l-18 -9l-25 -8l-11 -12l-18 -13l-20 -12l-9 -17l-16 -15l-20 -35l-4 -19l-1 -21l2 -20l6 -17l13 -14l21 -7h39l17 5l27 9l13 11l14 13l22 14l11 14l24 12l6 -8l-24 -33
l-11 -13l-17 -14l-15 -11l-19 -9l-23 -8l-14 -5l-27 -3l-34 1l-20 3l-24 3l-19 8l-15 8l-16 13l-3 17l-13 19l5 19l3 18l8 17l13 35l11 15l16 15l12 15l36 25l14 8l20 11l21 7l16 6l22 7l14 7l26 5l15 2l21 5l20 1l22 1l15 2h65l20 -3h15l28 -4l19 -3l17 -3l23 -1l14 -5
l22 -2l19 -4l22 -3h24l33 -5l2 -16z" />
    <glyph glyph-name="J" unicode="J" horiz-adv-x="533" 
d="M769 670l-32 -11l-17 -7l-21 -5l-9 -9l-22 -12l-14 -11l-14 -14l-15 -14l-12 -14l-18 -16l-12 -15l-8 -18l-13 -17l-13 -17l-8 -18l-10 -18l-14 -17l-12 -19l-16 -36l-7 -18l-5 -19l-14 -17l-11 -17l-3 -19l-8 -19l-12 -17l-12 -19l-2 -17l-9 -17l-17 -20l-5 -18l-12 -16
l-6 -20l-10 -18l-8 -16l-6 -20l-16 -18l-7 -18l-15 -15l-1 -3h7l29 3l15 4l23 3l16 6l42 10l14 6l19 8l18 7l20 10l46 35l15 16l16 13l19 17l22 12l4 -10l-18 -29l-14 -15l-15 -17l-19 -13l-10 -14l-24 -12l-10 -9l-18 -11l-22 -9l-39 -14l-12 -5l-29 -6l-11 -5l-27 -4
l-18 -2l-18 -4l-26 -2l-12 -2l-3 -4l-2 -17l-13 -15l-15 -18l-5 -18l-21 -16l-12 -16l-4 -15l-21 -17l-5 -13l-18 -17l-12 -14l-11 -15l-23 -14l-15 -12l-7 -11l-18 -12l-23 -10l-16 -8l-19 -9l-21 -6l-18 -5l-15 -5l-17 -1l-39 -1l-26 2l-15 4l-22 7l-13 7l-24 10l-17 14
l-10 14l-12 18l1 18l-11 19l4 19l6 19v19l19 34l13 16l14 14l17 11l18 11l17 11l23 6l14 7l26 8l12 4l26 5l20 3l19 3h15l25 3l18 1l61 3l21 1l22 3h21l13 2h13l4 4l5 18l14 20l10 16l10 20l8 16l7 20l11 18l11 16l5 20l7 17l18 19l5 16l7 18l8 19l14 18l8 19l9 16l6 20
l13 16l3 18l25 36l9 19l2 17l14 17l14 16l8 17l11 19l14 15l9 16l14 16l15 15l6 15l15 14l14 14l18 13l16 11l15 12l22 8l17 9l11 4l-3 1l-16 2l-62 10l-23 1l-16 3l-19 4l-25 1l-15 1l-46 -1l-15 1l-21 -4l-18 -1l-26 -6l-16 -3l-17 -8l-16 -9l-19 -7l-21 -11l-15 -14
l-7 -12l-14 -13l-12 -16l-19 -35l-6 -19l-7 -21l2 -22l5 -19l18 -12l21 -8l41 -6l20 -7l18 5l21 22l10 21l15 18l28 27h17l4 -10l-21 -32l-18 -13l-15 -15l-18 -10l-13 -8l-18 -9l-24 -5l-20 -2h-36l-25 2l-15 4l-21 6l-22 8l-9 15l-14 15l-9 19l4 18v19l7 18l21 34l14 15
l6 15l21 15l15 13l11 11l24 11l14 9l15 8l18 8l23 6l13 6l19 6l24 4l17 1l19 4l26 2h14l43 -1l16 -1l26 1l14 -4h19l16 -4l22 -1l23 -4l34 -7l21 -3l14 -3l25 -3h14l38 -2l4 -20l-8 -10zM202 -13v0l-19 -1l-24 -1l-13 -1l-20 1l-43 -2l-24 -3l-14 1l-23 -4h-18l-18 -3
l-22 -6l-25 -3l-14 -8l-23 -5l-20 -9l-30 -25l-14 -15l-17 -34l-10 -18l1 -18l-1 -20l6 -18l10 -19l6 -15l20 -12l18 -12l18 -6l18 -4h35l13 3l25 8l12 7l18 10l13 10l17 14l15 11l19 15l7 16l13 15l20 16l9 14l10 18l11 15l17 17l8 19l9 16l14 17z" />
    <glyph glyph-name="K" unicode="K" horiz-adv-x="834" 
d="M527 434l-25 -54l-13 -18l-8 -17l-6 -18l-9 -17l-9 -18l-8 -16l-13 -17l-15 -17l-2 -16l-18 -18l-8 -18l-9 -15l-8 -17l-12 -15l-12 -16l-13 -14l-18 -16l-14 -14l-18 -14l-10 -13l-19 -13l-15 -12l-17 -12l-13 -8l-22 -9l-12 -7l-46 -6l-38 1l-13 4l-16 9l-22 13l-12 16
l-10 17l-1 19l6 19v21l9 18l13 20l7 17l15 15l19 4l10 -13l-27 -25l-7 -17l-6 -18l-9 -19l2 -18l3 -19l8 -18l19 -9l22 -8l34 -2l13 6l12 8l24 7l10 11l12 15l13 13l15 14l16 18l14 14l17 17l3 17l17 20l12 18l15 16l9 20l11 16l12 20l9 19l13 18l4 20l9 18l10 19l12 19
l16 39l14 17l11 19l10 17l6 16l10 17l12 18l13 16l22 31l17 18l4 15l22 13l8 14l23 15l8 12l16 9l20 9l34 13l1 3l-41 -1l-18 3l-13 1l-26 3l-14 2l-29 2l-14 2l-18 1l-23 1h-40h-24l-20 -4l-19 -3l-17 -5l-22 -8l-20 -7l-12 -10l-23 -10l-10 -14l-21 -13l-16 -13l-6 -17
l-19 -36l-9 -20l-4 -18l6 -22l5 -17l12 -12l27 -7l41 -2l13 6l18 8l22 11l14 13l16 15l24 29l17 -4l-3 -23l-14 -16l-16 -16l-14 -12l-14 -10l-18 -11l-45 -13l-15 -3l-45 2l-16 2l-24 4l-11 5l-41 22l-10 17v17l1 21l-5 19l13 17l14 36l11 14l11 15l22 13l9 11l15 12l16 10
l39 17l20 9l19 5l13 6l28 5l17 6l19 1l41 4l21 3l42 -1h11l26 -1l17 -4l22 -1l14 -1l16 -5l46 -5l15 -3l22 -3l20 -2l12 -3l37 -6v-18l-16 -19l-16 -5l-19 -4l-17 -10l-22 -10l-15 -10l-11 -15l-16 -14l-16 -15l-14 -15l-5 -18l-12 -17l-17 -16l-5 -18l-14 -20l-6 -17z
M1093 629l-7 -23l-19 2l-23 22l-6 39l-19 19l-30 1l-19 -7l-19 -23l-22 -13l-12 -25l-8 -15l-14 -14l-6 -18l-16 -15l-13 -16l-8 -15l-13 -17l-16 -32l-13 -13l-20 -15l-6 -14l-17 -13l-21 -12l-9 -12l-18 -8l-20 -10l-18 -7l-12 -7l-40 -4v-4l61 -6l13 -7l21 -15l4 -16
l4 -19l-8 -20l-6 -16l-5 -18l-15 -18l-7 -15l-17 -15l-7 -16l-18 -16l-20 -36v-20l-12 -18l1 -23l8 -19l17 -13l13 -6l39 -1l23 4l33 11l22 10l21 11l12 11l25 11l9 12l15 15l14 14l14 14l26 9l13 -4l-12 -19l-18 -13l-9 -15l-17 -12l-12 -13l-13 -14l-20 -10l-18 -10
l-15 -12l-20 -9l-14 -6l-23 -7l-21 -7l-21 -5l-16 -3l-14 -4h-49l-19 5l-11 5l-23 12l-6 13l-11 19l-7 19l8 20l-3 19l19 37l21 34l15 16l10 18l5 16l17 15l7 18l16 16l9 20l-5 17v16l-19 9l-15 7l-26 4l-17 1l-25 4l-17 14l10 13l36 5l24 4l24 6l10 10l23 10l12 13l14 12
l17 13l16 17l8 15l19 16l11 15l6 15l12 17l18 15l7 16l33 33l7 16l19 15l16 15l14 11l17 12l13 11l24 9l17 5l25 2l33 -1l28 -3l19 -12l9 -13l18 -16z" />
    <glyph glyph-name="L" unicode="L" horiz-adv-x="831" 
d="M916 623l-1 -20l-7 -19l-23 -32l-8 -13l-11 -15l-17 -11l-18 -12l-11 -13l-23 -12l-12 -8l-20 -10l-15 -10l-22 -7l-19 -9l-19 -6l-17 -9l-16 -6l-22 -6l-21 -3l-18 -6l-24 -2l-14 -5l-25 -3h-1l-4 -10l-16 -17l-1 -19l-9 -18l-18 -18l-4 -17l-8 -20l-15 -15l-13 -18
l-5 -16l-13 -18l-7 -17l-18 -15l-6 -16l-28 -31l19 -11l15 -7l19 -11l17 -8l22 -8l16 -9l42 -10l22 -6h20l43 -1l38 6l13 4l43 13l12 8l18 13l15 12l9 16l27 10l10 -6l-20 -33l-11 -18l-10 -15l-18 -14l-11 -12l-21 -11l-18 -9l-21 -9l-15 -8l-15 -4l-27 -4l-37 2h-20l-21 6
l-14 6l-26 6l-12 9l-26 9l-12 8l-20 10l-20 11l-15 9l-35 20l-12 -13l-17 -15l-21 -13l-9 -14l-18 -11l-16 -8l-23 -11l-14 -5l-42 -9l-45 -1l-17 4l-18 5l-15 9l-22 10l-13 17l-4 15l2 19l-4 20l8 21l6 23l13 15l17 18l22 7l19 6l20 5l22 2l15 -1l22 1l22 -4l18 -4l22 -4
l35 -17l20 -4l15 17l12 17l7 17l15 17l12 16l9 17l5 20l12 18l12 17l5 17l18 18l10 18l3 19l6 9h-19h-15h-20l-23 3l-24 2l-14 3l-22 1l-16 5l-44 9l-20 8l-24 8l-14 8l-20 12l-15 13l-17 15l-4 17l-5 21l6 18l6 19l16 36l16 14l11 15l26 23l25 10l10 8l19 7l25 7l22 5l13 4
l24 2l20 1l22 -10l-3 -13l-35 -3l-23 -6l-39 -14l-13 -12l-15 -10l-21 -14l-7 -14l-20 -36l-3 -17l-3 -21l11 -16l12 -16l10 -13l23 -10l11 -9l27 -7l14 -6l22 -7l27 -3l17 -4h19l24 -3l22 -1l18 1l2 3l5 17l13 17l2 19l15 16l9 16l16 17l4 17l16 16l12 17l13 17l15 13
l14 17l16 12l13 15l17 13l13 10l21 11l17 7l13 8l25 6l12 7l21 2l23 2h36l19 -1l23 -6l17 -9l19 -12l5 -14l6 -19zM844 627l-3 17l-7 17l-15 10l-35 -1l-17 -3l-17 -4l-21 -7l-15 -10l-18 -12l-9 -15l-17 -13l-10 -16l-18 -15l-10 -18l-11 -18l-12 -18l-19 -18l-4 -19
l-18 -18l-2 -19l-18 -20l-5 -17v0l7 1l20 2l13 6l20 5l18 5l20 7l26 6l11 7l18 10l22 9l18 10l13 10l18 14l15 13l12 13l12 14l15 15l24 33l2 19zM283 107l-18 -16l-11 -13l-21 -16l-17 -14l-16 -12l-17 -11l-14 -8l-25 -5l-40 -1l-25 5l-14 12l-18 10l-12 24l3 21l22 34
l18 14l18 6l25 6l18 1l25 -3l13 -2l25 -5l20 -5l17 -7z" />
    <glyph glyph-name="M" unicode="M" horiz-adv-x="1089" 
d="M1056 31l11 12l19 12l30 32l5 16l16 17l22 11l4 -22l-14 -19l-19 -16l-13 -13l-7 -17l-17 -14l-17 -11l-20 -12l-11 -13l-24 -9l-15 -8l-18 -6l-18 -2h-48l-16 2l-25 5l-12 8l-17 10l-19 14l-11 18l-5 19l-2 21l5 18l-1 21l-1 20l5 20l8 22l17 18v19l23 37l13 16l12 16
l3 17l15 17l10 18l8 18l13 16l11 16l8 17l13 18l9 16l11 19l16 15l11 18l7 16l12 19l10 17l7 17l19 15l11 18l8 17l15 17l8 16l17 18l-47 -6l-17 -5l-20 -8l-17 -7l-19 -9l-9 -12l-22 -11l-10 -14l-21 -13l-9 -14l-17 -15l-13 -16l-13 -18l-19 -15l-7 -18l-16 -17l-11 -19
l-13 -16l-4 -19l-25 -35l-7 -18l-11 -15l-7 -18l-13 -16l-13 -18l-9 -17l-5 -16l-10 -19l-13 -15l-7 -19l-14 -15l-8 -17l-9 -17l-14 -17l-7 -19l-11 -17l-12 -17l-15 -17l-6 -14l-12 -16l-18 -16l-12 -13l-12 -13l-21 -8h-38l-14 7l-13 11l-5 17l-10 16l5 20l-3 21l9 21
l7 18l8 22l9 17l1 21l16 18l8 20l5 18l11 18l22 34l7 16l14 17l12 19l9 15l7 19l11 15l10 18l10 16l20 17l2 18l12 18l12 17l14 16l14 18l3 16l11 16l12 18l14 17l15 17l5 16l15 19l14 14l-41 -2l-18 -3l-18 -7l-20 -8l-15 -8l-16 -8l-14 -12l-19 -12l-17 -12l-12 -15
l-16 -14l-7 -15l-15 -15l-18 -5l-21 -13l-5 -18l-14 -15l-16 -17l-5 -19l-13 -18l-9 -18l-9 -19l-9 -30l-18 -38l-8 -17l-5 -19l-8 -19l-15 -17l-12 -18l-8 -18l-10 -17l-7 -17l-17 -15l-6 -17l-18 -18l-7 -17l-10 -15l-36 -30l-10 -15l-12 -13l-15 -13l-23 -13l-13 -10
l-35 -13l-27 -4h-39l-23 4l-15 6l-19 14l-11 14l-4 19l-8 22l9 20l1 22l36 16l7 -18l-6 -19l1 -19l-2 -19l12 -17l12 -10l15 -8l43 1l13 3l17 8l20 10l15 9l9 12l14 14l15 13l18 14l15 16l7 15l14 18l7 17l19 15l5 17l15 17l10 20l10 18l6 17l13 17l6 19l12 18l21 37l9 17
l6 19l12 18l10 16l8 17l11 18l14 16l8 18l14 16l16 16l7 17l13 17l13 14l16 16l12 12l23 14l16 13l30 23l15 11l25 8l15 6l18 8l17 5l21 1l24 2l42 1l14 2l14 -18l-9 -18l-16 -16l-7 -16l-9 -17l-11 -19l-9 -15l-9 -18l-17 -17l-1 -18l-10 -15l-16 -18l-7 -16l-8 -17
l-15 -19l-11 -15l-5 -19l-16 -17l-2 -15l-17 -19l-10 -15l-9 -19l-7 -16l-12 -16l-14 -18l-6 -18l-6 -16l-27 -34l-2 -20l-17 -16l-11 -18l-3 -19l-6 -19l-15 -18l-5 -19l2 -20l-8 -23l31 -7l10 7l11 14l11 14l12 14l12 16l11 19l12 17l10 19l7 16l12 19l9 20l15 19l8 18
l15 21l6 17l12 21l11 17l14 21l14 18l6 19l13 18l22 37l8 16l7 19l18 17l10 16l9 14l11 18l16 15l5 15l22 14l9 17l16 13l9 14l18 14l15 13l11 10l16 12l55 27l23 8l15 4l21 5l55 1h22l10 -17l-10 -16l-6 -17l-15 -16l-11 -19l-10 -17l-13 -17l-10 -16l-2 -17l-15 -18
l-5 -15l-18 -19l-8 -16l-12 -16l-4 -17l-12 -19l-13 -17l-10 -15l-5 -17l-15 -18l-8 -17l-8 -16l-15 -19l-3 -17l-10 -15l-12 -19l-12 -16l-17 -35l-7 -18l-12 -16l-3 -20l-8 -17l-4 -21l-6 -18l3 -22l12 -17l6 -16l20 -10l13 -4l46 -1l33 11z" />
    <glyph glyph-name="N" unicode="N" horiz-adv-x="871" 
d="M1221 614l-8 -18v-21l-14 -14l-20 7l-6 25l1 20l5 17l-4 19l-11 17l-13 12l-17 7l-33 -1l-22 -4l-13 -7l-19 -10l-16 -11l-15 -11l-22 -15l-5 -15l-15 -13l-17 -17l-12 -15l-8 -19l-14 -17l-7 -16l-19 -17l-9 -19l-2 -17l-18 -19l-10 -17l-14 -38l-11 -18l-11 -16l-1 -20
l-12 -17l-6 -19l-13 -18l-12 -16l-10 -18l-4 -18l-9 -20l-17 -17l-10 -18l-6 -17l-17 -16l-3 -16l-21 -16l-8 -15l-10 -14l-13 -15l-18 -17l-9 -13l-19 -13l-35 -15l-14 20l5 17l11 21v19l9 21l3 20l-3 18l11 20l-1 22l5 20l2 19l1 20l3 19l6 22l-4 18l3 22l4 18l-6 20
l-1 22l4 19l1 18l-1 19v20l11 20v18l1 20l7 17l1 19l13 19l5 19l5 21l8 19l12 19l10 16l2 4h-4l-21 -21l-14 -13l-16 -14l-9 -17l-17 -16l-12 -16l-16 -18l-11 -19l-13 -19l-7 -17l-9 -21l-17 -17l-12 -20l-9 -18l-14 -39l-10 -18l-7 -18l-11 -17l-9 -18l-16 -18l-11 -18
l-7 -19l-11 -18l-11 -17l-8 -17l-6 -17l-14 -18l-13 -16l-24 -33l-13 -16l-16 -17l-12 -15l-14 -14l-18 -15l-13 -13l-16 -10l-21 -12l-16 -6l-20 -6l-13 -4h-44l-19 3l-23 8l-15 12l-12 14l-4 17l-4 22l-5 18l9 22l11 27h26l10 -24l-6 -17v-19l2 -20l1 -15l21 -12l20 -7h28
l17 3l16 7l17 8l17 9l11 12l17 13l10 15l15 13l17 17l6 16l13 15l11 16l11 19l17 15l10 20l5 17l12 18l15 18l8 19l6 18l12 16l16 20l9 17l7 17l17 38l11 18l8 16l10 16l6 17l15 18l10 16l7 18l13 17l10 14l11 17l16 16l8 16l18 15l14 13l14 14l11 12l20 12l10 10l45 5v0
l20 -18l-7 -18l-3 -21l-13 -19l-4 -20l-5 -20l1 -18l-9 -21l2 -19l-9 -21v-19l1 -20l-8 -20l1 -22l5 -19l-5 -21l2 -18l-7 -20l2 -21l-6 -19l-1 -22l6 -19l-10 -21l5 -19l-4 -19l-9 -19l-2 -19l-3 -20l-10 -18l-4 -20l-9 -21l4 -2l14 19l10 16l7 14l11 17l14 15l14 19l10 16
l8 16l12 18l3 19l12 18l13 16l9 19l10 19l1 17l13 19l13 18l14 35l13 17l1 19l15 17l11 19l4 15l10 18l13 16l16 19l10 15l13 17l16 14l9 15l15 16l11 15l13 12l24 11l10 12l20 8l20 9l23 5l13 1l40 1l17 -5l19 -6l23 -11l7 -17l13 -18l5 -20z" />
    <glyph glyph-name="O" unicode="O" horiz-adv-x="879" 
d="M620 375l-19 7l-20 9l-13 12l-16 16l-8 18l-4 18l-5 20l5 20l-1 20l10 21l5 19l15 35l21 16l8 15l19 15l9 13l21 10l15 12l13 11l21 8l43 11l13 4l19 3l39 -1l24 -3l20 -4l15 -10l21 -9l11 -14l16 -14l7 -16l3 -20l5 -19l5 -18l-8 -20l4 -21l-1 -20l-13 -19l-3 -22
l-1 -19l-13 -18l-2 -20l-14 -20l-7 -18l-10 -17l-25 -36l-4 -17l-15 -17l-9 -17l-11 -14l-18 -18l-4 -14l-14 -17l-15 -13l-12 -15l-18 -15l-9 -13l-13 -16l-18 -13l-16 -11l-18 -13l-12 -12l-13 -11l-21 -12l-19 -10l-17 -11l-16 -9l-14 -9l-17 -8l-24 -7l-17 -7l-14 -6
l-18 -6l-47 -8l-15 -4h-21l-40 -1l-17 3l-24 3l-11 5l-18 7l-23 8l-12 10l-16 11l-19 15l-7 14l-13 18l-5 18l-1 17v20l-8 20l3 19l1 22l10 19l2 19l6 20l5 20l13 17l7 18l2 20l29 35l9 15l11 18l10 14l7 17l18 16l5 13l13 15l21 17l7 12l20 16l7 13l16 12l20 13l8 15l19 11
l17 12l14 12l14 13l13 10l23 13l17 9l14 9l18 10l13 8l26 8l17 11l19 -3l2 -6l-14 -8l-21 -16l-15 -10l-14 -11l-19 -10l-18 -13l-14 -12l-16 -13l-11 -13l-22 -14l-22 -28l-16 -15l-17 -16l-8 -15l-18 -16l-12 -14l-7 -18l-19 -14l-8 -17l-12 -18l-9 -16l-16 -18l-12 -33
l-12 -19l-5 -17l-17 -21l-6 -18l-6 -19l2 -20l-10 -21l-5 -20l-1 -18l3 -21l-2 -19l9 -22l6 -19l13 -16l17 -14l17 -12l11 -11l21 -11l20 -2l38 1l21 2l19 5l18 4l19 10l17 7l15 11l24 10l14 8l16 13l20 9l9 12l15 15l18 12l13 14l19 13l15 13l10 16l17 16l12 15l6 15l16 16
l9 17l19 14l5 18l17 17l11 18l15 34l9 17l7 18l9 20l16 17l3 21l12 19l4 19l1 20l10 19l-3 20l4 21l1 20l-1 22l-8 21l-9 22l-15 15l-17 14l-41 3l-23 -10l-18 -9l-14 -16l-17 -12l-17 -14l-9 -15l-19 -16l-14 -17l-13 -38l-10 -18l-9 -21l-3 -18l5 -20l-1 -20l9 -20l15 -15
l14 -14l21 -16l18 -4l-5 -11h-17l-23 4z" />
    <glyph glyph-name="P" unicode="P" horiz-adv-x="821" 
d="M888 442l-3 -19l-7 -18l-17 -34l-10 -17l-20 -13l-8 -14l-22 -15l-16 -11l-8 -10l-25 -11l-17 -8l-14 -10l-13 -5l-40 -12l-26 -1l-19 -4l-18 1h-17l-19 -1l-27 7l-28 2l-20 13v9l19 8l35 -7l16 -1h16l28 2l20 4l19 5l18 7l19 8l50 30l18 15l10 12l15 18l20 34l5 19
l13 19l5 20v19v20l-3 20l-5 20l-12 20l-3 18l-11 16l-19 15l-7 15l-32 23l-17 10l-7 -5l-17 -16l-22 -10l-12 -13l-18 -18l-11 -14l-16 -16l-6 -16l-11 -25l-9 -18l-12 -16l-13 -18l-7 -18l-13 -18l-10 -17l-19 -35l-11 -20l-10 -16l-7 -17l-8 -18l-11 -16l-13 -19l-6 -15
l-15 -17l-4 -17l-15 -17l-7 -17l-14 -18l-10 -15l-9 -17l-10 -15l-15 -16l-13 -13l-14 -16l-17 -15l-15 -12l-12 -12l-15 -14l-18 -9l-19 -11l-21 -7l-17 -6l-13 -5l-19 -1l-47 1l-13 3l-20 11l-11 10l-13 17l-8 18l-9 18l1 20l1 21l15 18l7 18l11 16l17 15l17 11l11 -10
l-9 -18l-10 -14l-12 -18l-8 -17l-10 -19l-2 -19l11 -21l7 -14l18 -11l15 -8l33 -1l15 4l24 7l11 9l13 11l12 15l19 13l18 16l10 16l7 14l18 19l8 16l11 17l17 18l8 18l17 20l10 18l9 19l14 17l6 21l10 18l10 19l12 18l8 21l23 36l5 17l16 18l5 19l15 17l12 16l6 19l12 15
l13 15l17 15l12 17l17 14l12 12l16 13l14 12l22 10l12 10l24 6l14 6l-21 7l-16 8l-21 6l-23 5l-18 3l-20 3l-19 1l-21 2l-37 -1h-19l-47 -4l-14 -6l-20 -4l-21 -6l-21 -8l-12 -7l-22 -9l-12 -9l-24 -11l-13 -14l-10 -13l-10 -15l-23 -36l-9 -19l-6 -21l3 -18l10 -18l13 -13
l21 -8l42 1l17 3l20 9l19 11l21 13l10 15l16 15l20 11l10 -5l-4 -17l-16 -16l-17 -16l-17 -14l-18 -10l-13 -10l-18 -7l-22 -7l-21 -5h-37l-24 1l-20 4l-13 7l-23 11l-14 12l-7 18l-13 17l3 19l3 18l5 18l18 34l15 17l17 12l10 14l16 11l13 13l14 9l18 10l21 8l21 5l16 7
l20 6l19 6l27 3l11 3l21 2l21 4h25l20 1l36 -1l24 1l21 -3l20 -2l20 -5l13 -3l19 -7l22 -6l21 -7l14 -7l21 -6l2 -1l2 1l24 5l24 3l19 4h20l17 1l25 3l11 -14l-14 -13l-21 -1l-19 -4l-25 3l-42 1l27 -19l18 -11l20 -13l14 -11l7 -15l16 -16l17 -14l7 -17l6 -20l9 -18l6 -20
l-3 -19l7 -19z" />
    <glyph glyph-name="Q" unicode="Q" horiz-adv-x="835" 
d="M781 108l-18 -14l-8 -16l-20 -13l-12 -14l-22 -13l-13 -9l-23 -8l-14 -10l-24 -4l-15 -7l-18 -3l-44 2l-19 2l-16 2l-23 6l-14 5l-27 9l-12 8l-21 8l-19 9l-22 7l-2 2l-5 -5l-21 -8l-21 -10l-18 -7l-16 -9l-19 -5l-17 -8l-17 -3l-16 -5l-20 -2l-26 -2l-38 -1l-24 2l-16 7
l-17 6l-11 12l-20 14l-6 17l-10 18l3 18l-4 18l22 36l20 28l22 9l17 8l18 3l20 1l27 -4l13 -2l20 -7l64 -22l11 -7l21 -9l21 -7l12 -7l24 -10l10 -3l14 12l22 13l13 13l13 13l15 13l15 15l10 15l14 15l7 16l24 32l17 16l12 16l3 17l17 19l21 36l7 19l12 17l3 21l10 17l7 20
l11 21l6 19l2 20l2 21l10 21v18l-1 22l-12 19l-5 17l-8 15l-8 12l-21 8l-19 6h-38l-14 -5l-24 -6l-15 -8l-22 -9l-16 -12l-10 -14l-17 -13l-17 -14l-7 -17l-11 -17l-15 -35l-15 -19l-9 -17l3 -20l-5 -20l-2 -20l-1 -21l4 -19l8 -18l10 -16l15 -16l40 -26l12 -12l24 -2l15 -4
l-3 -6h-22l-39 4l-20 3l-14 7l-19 7l-24 10l-18 12l-12 16l-10 16l-6 17l-13 18l-1 22l4 20l1 19l1 19l8 20l2 21l16 18l17 35l15 14l8 15l20 14l6 13l21 14l14 10l20 10l10 9l20 9l22 6l16 7l16 4l20 3l26 2l33 -2h22l17 -5l22 -7l17 -6l18 -13l13 -11l17 -16l8 -17l4 -20
l8 -19l-6 -21l1 -18l-6 -21l2 -19l-2 -20l-13 -18l-3 -21l-13 -19l-4 -18l-5 -18l-8 -16l-8 -20l-25 -35l-9 -17l-9 -17l-16 -15l-14 -17l-10 -16l-10 -15l-18 -18l-14 -13l-6 -16l-14 -16l-20 -14l-11 -12l-19 -13l-15 -13l-16 -15l-10 -10l-16 -8l16 -5l22 -6l20 -4l32 -9
l25 -5l19 -2h42l19 3l19 5l23 5l21 1l26 6l13 5l8 6l20 11l24 46l10 1l6 -24zM320 84l-11 10l-21 10l-19 10l-15 7l-24 11l-21 9l-19 6l-14 8l-25 3l-20 4l-15 -3l-14 -8l-31 -25l-12 -20l-5 -18l-1 -18l14 -19l21 -17l10 -10l45 -11l39 4l25 4l19 3l13 5l24 9l20 8l13 9
l30 19l10 5z" />
    <glyph glyph-name="R" unicode="R" horiz-adv-x="838" 
d="M898 126l-11 -13l-8 -15l-20 -13l-14 -14l-16 -10l-16 -12l-18 -12l-11 -10l-20 -7l-17 -8l-14 -8l-27 -5l-20 -7l-29 -5l-41 1l-20 3l-24 6l-13 11l-11 13l-13 17l-2 21l7 20l2 19l4 19l14 17l13 34l13 18l13 16l15 17l5 14l14 17l9 19l10 16l6 19l-4 15l-22 13l-19 5
l-23 10v0l-16 -3l-26 2l-7 14l8 14l39 -1l20 5l16 2l26 5l12 5l19 4l21 9l18 9l22 10l16 15l11 15l20 33l3 19l12 17l-6 21l6 19l-11 17l-1 18l-15 15l-7 14l-18 15l-14 12l-19 -5l-22 -9l-15 -16l-21 -15l-12 -12l-13 -13l-16 -15l-7 -15l-19 -16l-6 -17l-13 -17l-10 -15
l-19 -18l-9 -18l-9 -18l-10 -17l-11 -38l-16 -16l-5 -19l-11 -16l-10 -17l-5 -17l-15 -18l-4 -16l-18 -18l-11 -17l-2 -17l-20 -17l-10 -15l-9 -16l-9 -17l-10 -15l-32 -31l-8 -15l-17 -13l-18 -14l-15 -13l-10 -11l-23 -12l-13 -9l-23 -8l-15 -6l-16 -4l-23 -3l-41 2l-12 3
l-19 10l-15 11l-14 17l-8 16l-2 21l3 20l3 19l3 19l10 17l16 19l6 14l27 6l8 -10l-10 -16l-18 -15l-5 -14l-7 -19l-11 -18l4 -21l6 -20l10 -14l9 -12l23 -8l35 -1l18 6l17 8l15 8l14 11l8 14l15 14l13 14l30 31l8 19l13 17l11 16l12 19l11 17l11 19l15 17l7 19l15 19l7 20
l9 20l18 17l9 19l10 21l16 35l8 18l10 20l12 16l9 19l11 17l16 16l9 15l15 18l8 13l19 15l13 16l17 13l18 10l11 14l34 19l17 7l21 8l9 3l-15 7l-14 5l-21 4l-23 4l-15 4l-16 1l-24 2l-16 2h-46l-15 -1l-20 -1l-17 -4l-24 -4l-15 -3l-27 -6l-19 -6l-14 -5l-19 -8l-19 -9
l-16 -11l-14 -12l-15 -10l-17 -15l-9 -14l-24 -35l-2 -18l-9 -20l1 -20l8 -19l23 -12l18 -7l34 1l24 3l22 10l15 10l21 13l11 13l14 17l14 16l13 -6l-2 -25l-19 -15l-12 -14l-14 -13l-16 -11l-16 -9l-26 -8l-14 -5l-25 -2l-42 -1l-12 2l-25 5l-15 7l-22 9l-10 14l-15 17
l2 18l-8 19l8 17l4 18l19 34l15 14l18 14l8 14l19 12l17 12l16 10l17 7l18 8l16 7l27 8l17 6l14 5l27 4l16 4l22 3l17 1l21 3l21 2l21 1h38l25 -3l20 -2l20 -1l13 -3l23 -3l16 -5l23 -6l23 -7l14 -6l18 -8h1l3 1l23 4l19 2l21 3h16l25 2l17 -2l2 -12l-23 -14l-19 1l-18 -3
l-33 4l23 -19l15 -13l17 -14l7 -14l17 -18l5 -19l3 -18l8 -20l2 -21l-5 -19l-7 -18l-15 -35l-12 -15l-17 -11l-15 -11l-22 -12l-31 -15l-24 -6l-19 -4l-12 -7l-31 -1v-3l39 -10l16 -13l14 -18l-3 -19l-4 -17l-13 -20l-8 -16l-11 -15l-13 -18l-10 -15l-14 -16l-11 -17
l-18 -35l-5 -17l-7 -20l-3 -23l7 -17l13 -16l25 -7l38 -1l38 10l19 9l13 8l21 9l11 12l16 11l20 15l10 12l27 13l8 17l12 13l12 -5z" />
    <glyph glyph-name="S" unicode="S" horiz-adv-x="670" 
d="M952 631v-18l-26 -36l-11 -16l-14 -14l-9 -13l-11 -14l-15 -14l-22 -12l-10 -10l-20 -11l-17 -12l-22 -7l-14 -10l-20 -8l-15 -8l-25 -8l-18 -6l-17 -5l-23 -5l-20 -6l-16 -2l-17 -5l-27 -2l-16 -4h-22l-4 -8l-8 -18l-12 -18l-6 -19l-15 -19l-6 -17l-25 -34l-11 -18
l-7 -17l-14 -17l-14 -16l-3 -17l-20 -18l-3 -15l-16 -15l-11 -16l-19 -16l-14 -14l-16 -14l-15 -14l-28 -24l-20 -8l-18 -10l-17 -6l-14 -7l-27 -3l-18 -2h-35l-24 4l-19 10l-9 11l-13 14l-10 17l-13 20v20l11 21v19l9 18l16 16l16 15l14 21l21 -12l-5 -25l-25 -16l-4 -16
l-19 -18l-2 -22l5 -18l3 -20l14 -19l14 -10l28 -4l33 3l14 3l19 5l17 10l15 8l8 13l13 14l20 13l13 15l7 14l17 18l11 14l11 19l11 17l15 16l14 17l10 18l9 19l14 19l9 16l9 18l12 19l4 20l8 19l22 27l-18 -3l-64 8l-15 3l-41 13l-26 8l-17 8l-14 13l-15 13l-14 17l-1 17
l-4 20l-4 17l6 20l24 35l7 15l13 13l20 12l11 10l25 11l10 9l21 6l15 9l24 6l12 4l27 5l16 3h22l20 -3l2 -6l-23 -7l-21 -4l-18 -10l-21 -8l-23 -10l-16 -11l-23 -12l-7 -12l-18 -17l-23 -35l-3 -20l3 -18l1 -17l7 -19l15 -12l20 -12l42 -17l17 -6l20 -4h19l18 -4l7 23
l15 18l10 15l12 19l12 14l11 16l11 15l16 17l17 13l5 14l22 16l14 11l12 15l16 11l18 12l19 11l16 8l13 10l18 8l28 9l17 5l15 8l19 3l22 3l24 3l33 -2l18 -2l25 -6l9 -10l18 -13l11 -18zM893 660l-17 13l-40 2l-25 -4l-10 -5l-27 -5l-17 -9l-9 -7l-17 -10l-24 -11l-8 -13
l-15 -12l-18 -14l-15 -14l-14 -13l-14 -16l-16 -14l-8 -16l-16 -18l-9 -15l-13 -18l-10 -17l-6 -16l-6 -17l8 1l16 1l20 4l22 3l22 4l16 6l20 7l19 6l19 7l22 7l18 10l17 19l20 10l9 11l18 13l17 13l13 6l16 16l12 11l13 16l22 38l3 22z" />
    <glyph glyph-name="T" unicode="T" horiz-adv-x="547" 
d="M1017 686l-17 -11l-15 -15l-17 -11l-16 -12l-11 -9l-16 -8l-19 -10l-17 -7l-19 -5l-20 -5l-23 -2l-33 -2l-21 5l-42 9l-21 9l-11 9l-23 9l-28 -21l-13 -12l-9 -17l-15 -16l-11 -16l-12 -18l-15 -18l-11 -18l-7 -18l-13 -17l-10 -17l-10 -21l-20 -34l-10 -18l-4 -18
l-7 -18l-9 -18l-9 -16l-13 -16l-15 -18l-10 -17l-6 -17l-13 -16l-13 -19l-8 -16l-12 -16l-7 -16l-18 -16l-8 -14l-15 -16l-11 -14l-13 -15l-18 -11l-11 -14l-24 -11l-14 -13l-21 -8l-11 -9l-38 -11l-22 -1h-36l-23 4l-19 9l-11 12l-8 16l-9 18l-7 19l-3 21l3 19l11 19l8 19
l19 17l10 15l15 9l9 -7l-5 -23l-9 -14l-11 -16l-17 -17l2 -21v-20l-2 -18l13 -17l20 -9l19 -7h32l13 3l15 6l16 11l22 9l9 15l13 13l17 16l10 14l12 16l18 17l11 17l15 19l12 19l7 18l8 18l11 18l9 18l17 18l11 20l3 19l10 20l13 19l10 17l22 39l10 16l4 20l17 16l6 20l7 17
l18 16l13 17l6 19l18 15l11 15l23 14l16 14l17 11l28 12l16 6l-29 13l-13 9l-24 8l-16 8l-14 7l-18 7l-29 3l-18 3l-35 -2h-20l-28 -4l-19 -5l-17 -6l-14 -8l-18 -8l-23 -9l-18 -10l-12 -12l-14 -14l-19 -13l-12 -15l-17 -34l-8 -19l-3 -22l4 -19l5 -20l11 -14l18 -6l39 -1
l23 3l23 7l10 8l36 22l11 14l17 14l12 15l8 -5l-5 -22l-13 -13l-16 -16l-6 -12l-16 -9l-26 -10l-17 -9l-15 -4l-19 -6l-22 -3l-33 1l-22 2l-21 4l-13 5l-23 11l-16 12l-10 18l-2 16l-4 19l8 20l9 19l15 32l11 17l21 12l15 14l14 12l15 11l18 10l10 10l19 8l27 5l12 9l21 5
l15 6l23 2l25 4l17 2l23 4l17 1h44l12 -1l27 -4l19 -2l19 -4l19 -3l21 -5l36 -13l15 -8l26 -6l14 -7l25 -6l18 -6l12 -7l28 -3l15 -2l39 2h22l24 6l24 4l12 7l26 7l18 11l18 10l17 13l10 -9z" />
    <glyph glyph-name="U" unicode="U" horiz-adv-x="775" 
d="M871 657l-9 -18l-7 -18l-9 -17l-7 -17l-13 -16l-13 -17l-7 -18l-15 -15l-3 -18l-15 -16l-6 -19l-13 -17l-6 -16l-18 -17l-9 -17l-10 -17l-7 -16l-13 -17l-6 -17l-9 -17l-15 -19l-5 -15l-7 -17l-18 -19l-4 -16l-25 -35l-8 -17l-2 -18l-10 -20l-5 -19l-8 -18l5 -22l-2 -20
l4 -18l16 -13l11 -11l23 -6l44 1l17 4l19 8l40 21l14 10l11 16l20 14l8 16l17 16l12 18l16 15l8 -6v-24l-14 -17l-16 -15l-9 -16l-20 -14l-12 -14l-12 -15l-22 -10l-20 -11l-18 -8l-16 -8l-22 -7l-54 -4l-20 4l-26 4l-37 21l-12 13l-10 18l-2 19l-7 19l-5 20l2 22l8 20
l-19 -21l-12 -16l-15 -14l-9 -15l-22 -13l-9 -13l-24 -13l-16 -14l-14 -9l-20 -10l-16 -9l-22 -7l-19 -2l-43 -3l-14 3l-19 7l-17 8l-16 11l-15 13l-12 16v20l-6 20l-3 21l6 20l7 18l9 21l3 18l12 20l3 19l19 35l14 18l9 16l19 18l5 16l15 16l11 17l17 19l6 16l9 16l18 18
l7 18l12 15l13 17l12 18l3 19l10 16l9 20l13 19l7 18l6 21l-2 19l5 21l-6 18l-4 15l-15 14l-20 5l-26 3h-37l-15 -2l-23 -2l-18 -6l-20 -5l-20 -7l-13 -10l-17 -8l-14 -12l-21 -11l-10 -13l-13 -13l-19 -16l-13 -36l-13 -17l-5 -22l3 -20l5 -19l17 -12l16 -8l41 -1l21 6
l21 7l17 12l17 12l18 17l7 15l19 16l10 -7l-3 -22l-9 -18l-18 -13l-19 -13l-16 -11l-15 -8l-21 -7l-16 -7l-26 -2l-43 -1l-13 2l-22 5l-21 7l-16 9l-13 12l-4 17l-14 18l1 18l6 21l5 18l20 34l7 13l20 15l11 12l15 12l21 12l10 9l18 11l21 7l13 10l26 5l16 7l24 6l17 2l18 5
h17l22 4l39 -1l21 -3l23 -2l17 -5l19 -9l22 -10l12 -14l12 -16l-3 -17l9 -19l-2 -19l-7 -21l-5 -19l-7 -19l-6 -20l-5 -16l-5 -18l-11 -18l-15 -19l-10 -18l-5 -17l-14 -17l-14 -15l-8 -19l-13 -17l-10 -17l-8 -16l-9 -14l-12 -17l-14 -15l-5 -18l-19 -14l-3 -18l-28 -34
l-1 -16l-11 -20l-7 -18l-12 -19l4 -17l-8 -22l2 -19l11 -19l5 -16l18 -10l20 -8h38l29 11l26 9l16 12l16 9l15 9l16 11l16 16l14 12l17 13l13 24l9 17l9 14l13 17l8 19l15 16l15 34l16 17l10 17l8 18l14 17l1 17l17 18l7 17l8 15l14 19l7 17l15 16l6 16l11 18l8 17l15 16
l4 17l12 18l13 16l11 19l3 16l16 17l13 17l8 18l6 15l12 19l41 16l24 1l9 -17z" />
    <glyph glyph-name="V" unicode="V" horiz-adv-x="808" 
d="M411 727l43 -14l15 -9l13 -15l12 -16l4 -18l4 -19l-1 -21l-8 -20l-3 -17l-4 -20l-12 -19l-5 -17l-9 -19l-14 -17l-6 -18l-6 -19l-17 -15l-8 -18l-9 -18l-14 -17l-10 -15l-11 -17l-5 -16l-16 -16l-7 -18l-13 -15l-8 -16l-11 -16l-18 -18l-22 -34l-8 -16l-4 -19l-5 -18
l-12 -18l-5 -19l3 -20l-3 -20l13 -19l5 -16l18 -8l14 -7l40 -9l41 6l17 5l24 14l32 15l21 9l15 10l22 12l16 12l10 14l8 13l14 14l15 12l16 15l17 13l18 15l9 16l8 13l14 16l18 18l11 15l7 15l11 19l14 16l7 18l24 33l12 20l6 16l7 21l16 17v21l12 18l4 21l2 20l8 18l-1 21
l4 21l-2 20l-3 21l-1 21l-12 17l-18 20l-33 9v9l30 5l21 1l16 -3l22 -8l15 -8l11 -15l14 -15l7 -17l6 -16l-1 -20l1 -21l4 -19l-6 -21l6 -18l-12 -21l-6 -21v-18l-8 -19l-15 -20l-9 -20l-10 -19l-2 -16l-23 -36l-17 -18l-5 -18l-11 -15l-18 -17l-4 -15l-17 -16l-18 -17
l-9 -16l-10 -13l-16 -17l-15 -13l-13 -13l-19 -15l-15 -13l-36 -23l-17 -12l-15 -13l-20 -9l-16 -12l-17 -8l-12 -9l-27 -7l-12 -8l-25 -6l-12 -8l-24 -5l-16 -4l-22 -3l-22 -2l-46 2l-11 2l-23 6l-16 8l-24 10l-11 14l-5 16l-6 19l-2 20l1 20l-6 22l14 19l1 21l11 19l2 19
l17 20l19 35l6 17l13 15l7 17l21 19l11 17l10 17l7 15l19 18l6 18l17 17l11 15l8 17l10 19l14 15l4 20l13 16l10 20l8 17l2 21l10 19l2 19l2 22v17l-16 16l-16 13l-17 7l-23 2l-31 1l-20 -1l-18 -4l-19 -6l-20 -5l-20 -8l-16 -9l-18 -7l-15 -12l-23 -13l-15 -13l-11 -14
l-7 -15l-19 -33l-9 -20l-8 -20l4 -20l4 -19l22 -13l19 -8l36 1l18 4l15 11l17 10l18 12l11 15l16 17l15 9l14 -6l-8 -17l-11 -16l-15 -15l-19 -12l-18 -12l-15 -9l-20 -8l-14 -6l-22 -3l-33 -2l-27 1l-15 6l-19 7l-15 9l-18 13l-12 17l3 17l-2 18l5 20l5 17l18 36l7 13
l22 14l8 13l17 13l15 11l17 11l22 9l10 8l24 9l15 7l24 5l38 9l22 3l14 3l25 1h35l22 -2z" />
    <glyph glyph-name="W" unicode="W" horiz-adv-x="1226" 
d="M1202 688l18 -10l22 -8l8 -13l11 -15l9 -18l4 -19l10 -18l-4 -19l3 -20l3 -21l-11 -19l2 -20l-13 -20l-1 -21l-9 -18l-2 -20l-14 -20l-11 -17l-8 -20l-24 -33l-7 -17l-9 -17l-15 -18l-14 -16l-6 -16l-11 -17l-17 -16l-13 -15l-13 -15l-9 -15l-23 -17l-11 -12l-17 -16
l-9 -13l-19 -14l-13 -13l-13 -12l-24 -12l-15 -10l-13 -11l-25 -9l-9 -10l-24 -7l-22 -8l-12 -4l-25 -5l-15 -5l-22 -3l-61 4l-14 4l-17 6l-24 11l-10 11l-13 16l-5 17l-10 18l-3 17l4 22l3 18v20l6 20l10 18l14 19l2 18l22 35l12 15l9 18l11 17l5 18l11 16l11 18l14 15
l3 17l18 18l2 17l16 17l8 17l17 35l16 17l6 18l12 21l8 18l9 18l10 21l6 20l4 20l-1 22l-12 14l-20 -10l-9 -7l-8 -14l-17 -13l-10 -14l-12 -19l-11 -17l-9 -16l-9 -19l-16 -17l-2 -19l-11 -18l-19 -19l-5 -19l-10 -21l-13 -17l-8 -21l-20 -17l-11 -21l-6 -17l-11 -18
l-8 -20l-20 -36l-14 -15l-9 -17l-11 -17l-15 -18l-12 -15l-10 -16l-13 -16l-6 -16l-13 -17l-16 -15l-29 -28l-18 -14l-11 -14l-12 -13l-16 -10l-16 -12l-16 -9l-23 -10l-21 -7l-15 -8l-16 -4l-39 2l-18 1l-25 8l-11 9l-24 12l-8 13l-11 17l-2 21l-3 20l-1 18l7 21l1 19
l14 20l3 20l11 20l7 18l20 35l6 17l14 16l17 17l7 18l10 15l19 19l12 17l7 15l12 18l13 16l8 17l12 17l17 18l2 16l14 20l5 16l18 20l1 17l6 20l15 39l-1 21l-7 20l-3 16l-20 12l-19 7l-22 4h-35l-18 -2l-17 -4l-21 -7l-24 -5l-10 -6l-17 -9l-24 -8l-18 -11l-7 -14l-22 -13
l-14 -13l-11 -14l-13 -36l-9 -18l-6 -21l-4 -21l13 -17l11 -13l19 -8l44 -1l15 7l22 9l12 11l15 13l17 14l8 17l14 12l11 -3l6 -23l-18 -16l-15 -14l-9 -13l-23 -11l-12 -9l-20 -8l-22 -6l-12 -5l-45 -2l-16 4l-20 3l-17 7l-21 10l-13 13l-5 15l-7 18l-1 21l-2 19l11 18
l22 34l10 13l17 16l12 12l20 12l13 11l20 10l8 11l26 9l19 7l10 6l27 8l13 5l22 3l20 4l42 4h40l18 -4l21 -3l19 -5l21 -7l12 -10l17 -12l7 -17l12 -19l-4 -18l4 -21l-8 -19l-6 -19l-1 -19l-11 -18l-2 -20l-13 -18l-6 -18l-11 -18l-7 -15l-13 -17l-15 -18l-12 -16l-10 -19
l-7 -17l-15 -15l-8 -15l-14 -17l-4 -17l-17 -15l-7 -16l-9 -15l-10 -17l-29 -36l-2 -18l-14 -18l-6 -20l1 -19l-11 -19l-4 -21l11 -21l6 -19l8 -16l18 -6l41 -2l18 5l15 7l17 10l23 10l10 11l17 12l18 15l19 14l12 14l12 15l13 17l16 14l9 16l9 17l18 17l16 17l10 18l18 17
l9 18l20 35l14 16l5 19l4 15l8 18l11 16l11 19l6 16l14 18l10 15l9 17l4 18l10 16l10 18l13 17l14 16l7 17l15 19l5 17l13 15l17 17l14 13l14 15l17 12l15 8l35 1l18 -5l8 -10l15 -14l-2 -17l2 -21l-2 -20l1 -20l-6 -20l-15 -18l-6 -21l-8 -20l-3 -20l-18 -20l-8 -19
l-11 -18l-13 -34l-11 -18l-13 -16l-4 -15l-12 -16l-12 -19l-7 -16l-10 -20l-12 -17l-11 -19l-11 -16l-19 -37l-12 -18l-6 -18l-9 -18l-2 -20l-9 -19l1 -22l6 -19l2 -18l15 -15l17 -8l15 -5l47 1l13 3l18 4l23 7l12 9l22 9l12 12l20 11l11 13l20 11l8 13l12 14l21 14l12 16
l8 16l13 14l20 16l14 16l4 16l12 16l14 14l9 17l18 17l11 17l4 18l26 35l9 19l10 18l4 18l11 18l8 21l6 17l5 21l2 19l11 22l5 19l-1 21v21l-9 22v21l-22 29l-33 12l-7 18l11 11l35 -6z" />
    <glyph glyph-name="X" unicode="X" horiz-adv-x="952" 
d="M1149 595l-22 -19l-9 2l-9 19l9 21l1 19l-11 19l-9 14l-15 10l-26 4l-39 2l-12 -5l-18 -4l-21 -7l-20 -6l-20 -8l-17 -11l-12 -8l-23 -13l-12 -11l-20 -12l-13 -14l-20 -12l-16 -14l-12 -14l-16 -15l-11 -14l-11 -14l-14 -15l-18 -18l-6 -16l-14 -14l-14 -17l-11 -19
l-11 -15l-12 -18l-20 -28l-5 -8l-1 -2l-7 -14l-6 -19l-13 -17l-8 -21l-6 -17l-2 -19l-2 -22l-12 -20l7 -20l-4 -19v-20l8 -20l3 -20l15 -17l5 -14l23 -10l14 -10l15 -8l25 -4l14 -1l39 -1l26 4l20 4l16 5l18 4l18 7l19 10l22 8l23 9l15 9l18 12l13 13l15 10l22 13l13 15
l16 12l12 15l23 11l6 -16l-28 -21l-14 -15l-13 -13l-12 -14l-17 -11l-17 -13l-21 -12l-37 -19l-17 -8l-17 -10l-16 -8l-19 -5l-20 -7l-16 -4l-23 -4l-21 -5h-20l-39 -2l-28 2l-14 5l-24 2l-15 8l-20 7l-19 8l-21 10l-12 15l-10 13l-16 18l-1 17l-11 21l3 30l14 41h-4
l-32 -39l-12 -13l-15 -13l-12 -12l-18 -10l-13 -12l-24 -11l-8 -12l-26 -9l-9 -10l-26 -9l-14 -7l-21 -9l-17 -8l-17 -5l-15 -4l-20 -6l-23 -3l-22 -2l-14 -3l-38 2l-20 2l-22 7l-13 8l-20 11l-2 17l-11 16l-3 18l6 21l3 16l5 19l14 18l13 14l20 15l7 11l17 14l25 -2l6 -13
l-27 -23l-13 -14l-14 -18l-10 -18l-6 -21v-22l8 -17l7 -16l20 -13l22 -5l40 -2l13 2l24 5l18 4l15 8l19 6l20 8l21 10l16 9l10 11l20 13l18 11l15 14l8 13l24 11l25 28l11 17l11 14l18 14l7 16l12 17l14 16l12 17l10 15l10 12v3l10 19l22 35l10 18l4 5l10 14l11 19l1 17
l10 19l11 20l6 18l-1 21l13 20l-3 19l4 22l-1 19l-9 22l1 17l-17 18l-10 14l-16 9l-23 5h-35l-25 -2l-17 -5l-18 -6l-24 -9l-14 -9l-20 -12l-24 -9l-14 -12l-17 -10l-8 -14l-21 -36l-3 -29l-2 -19l-4 -19l-1 -21l12 -20l7 -15l14 -15l14 -10l16 -10l24 -3l17 -4l20 -3v-10
l-23 -9l-19 1l-23 2l-17 7l-18 7l-25 8l-9 13l-12 14l-16 18l-3 19l-4 20l2 20l3 19l10 21l10 17l21 36l5 15l19 16l14 14l16 12l21 13l16 10l15 8l24 9l12 6l24 6l23 3l13 4l20 3l47 -1l21 -4l18 -5l21 -6l9 -10l18 -11l15 -15l12 -18l1 -18l4 -18l5 -21l-2 -20l-10 -36h2
l20 23l12 13l17 13l10 12l19 14l16 12l14 9l21 13l14 8l17 11l20 9l20 7l13 9l19 8l19 4l19 7l17 3l21 2l24 4l55 -3l22 -7l23 -6l10 -14l10 -16l9 -18l4 -18v-20z" />
    <glyph glyph-name="Y" unicode="Y" horiz-adv-x="742" 
d="M881 651l-16 -16l-4 -18l-8 -15l-16 -17l-5 -18l-15 -18l-8 -19l-14 -17l-6 -19l-10 -19l-9 -18l-16 -15l-9 -17l-5 -17l-13 -19l-5 -15l-9 -18l-16 -17l-7 -16l-11 -19l-14 -16l-11 -17l-4 -17l-8 -17l-12 -17l-11 -18l-12 -17l-18 -34l-9 -16l-8 -18l-18 -15l-9 -17
l-8 -19l-13 -15l-16 -37l-5 -15l-11 -18l-16 -18l-7 -16l-6 -17l-16 -18l-4 -16l-29 -33l-3 -19l-15 -14l-13 -17l-10 -15l-20 -16l-5 -14l-23 -11l-14 -12l-18 -13l-17 -10l-16 -8l-18 -7l-16 -7l-21 -4l-20 -2h-42l-16 4l-21 3l-13 10l-23 10l-7 15l-6 17l-3 21l11 17
l11 35l15 13l11 15l23 12l10 8l23 9l16 10l15 6l23 7l14 3l17 4l23 4l23 1l13 -11l-3 -10l-12 -3l-23 -3l-33 -5l-26 -7l-16 -8l-17 -8l-19 -10l-13 -12l-15 -15l-28 -24l-6 -32l9 -20l8 -14l19 -9l51 -1l19 6l18 10l20 11l21 10l16 15l14 15l9 15l20 14l8 17l17 19l6 18
l24 31l3 17l12 16l6 17l9 18l18 17l7 19l8 16l7 18l19 19l20 35l7 16l19 37l13 17l16 30v4l-22 -31l-18 -13l-11 -11l-19 -14l-20 -9l-17 -11l-17 -10l-13 -5l-23 -7l-15 -4h-43l-17 2l-24 7l-12 6l-18 11l-8 15l-9 18l-3 20l-2 19l4 19l-5 20l12 21l4 19l12 19l7 19l19 34
l7 17l16 17l14 17l23 33l4 18l15 17l12 17l5 17l17 18l11 19l6 18l4 19l12 20l6 18l4 21l3 21l-4 21l-4 16l-15 13l-18 7l-24 5l-38 -1l-22 -1l-33 -9l-19 -7l-18 -6l-16 -9l-23 -7l-12 -11l-19 -14l-8 -12l-14 -15l-14 -13l-23 -37l-2 -18l-3 -20l-8 -21l14 -17l9 -16
l18 -6l46 -1l16 5l20 9l19 10l16 15l22 15l10 26h19l10 -7l-14 -17l-11 -15l-17 -14l-14 -15l-28 -18l-19 -7l-20 -5l-21 -5l-43 2l-20 1l-23 3l-15 7l-14 12l-17 13l-7 15l-11 17l4 19l1 21l10 17l13 33l18 15l11 16l16 12l16 11l13 11l17 10l19 12l39 16l11 6l24 7l15 5
l27 4l32 4l25 2l40 1l21 -2l21 -3l13 -5l24 -8l16 -12l13 -12l13 -18l5 -19l-3 -19l4 -21l-3 -19l-10 -21l-2 -17l-13 -19v-20l-24 -35l-11 -18l-11 -20l-7 -15l-13 -17l-10 -17l-5 -19l-20 -17l-4 -16l-9 -17l-14 -16l-24 -36l-10 -19l-5 -18l-10 -19l-4 -20v-20l3 -21
l4 -20l12 -11l24 -7l42 1l35 9l16 9l20 9l18 12l10 11l16 13l22 14l40 42l16 21l5 15l13 18l11 16l13 18v0l4 13l19 17l2 19l9 15l15 19l13 17l8 16l10 17l10 16l4 18l13 17l14 18l7 15l11 18l11 16l7 18l7 16l19 19l8 15l7 17l13 19l22 15l25 2h19l5 -17z" />
    <glyph glyph-name="Z" unicode="Z" horiz-adv-x="826" 
d="M822 647l-26 -12l-19 -3l-12 -3l-23 -4l-17 -6l-22 -7l-17 -11l-12 -11l-19 -10l-15 -13l-10 -15l-10 -16l-21 -15l-9 -15l-8 -18l-19 -17l-11 -17l-2 -16l-16 -18l-10 -18l-19 -32l-7 -13l19 2l23 -2l94 5l4 -17l-15 -10h-20l-23 -2h-20l-20 1h-24l-16 -1l-19 2h-1
l-12 -14l-11 -15l-9 -18l-7 -14l-19 -17l-7 -17l-10 -14l-14 -17l-9 -15l-15 -17l-10 -15l-11 -17l-23 -30l17 -9l20 -8l14 -7l20 -6l16 -9l16 -7l19 -5l25 -4l18 -6l18 -5l23 -3h15l41 -2l14 2l18 4l22 4l18 8l18 7l20 7l13 12l21 14l5 13l9 17l21 -4l-5 -26l-6 -16
l-19 -15l-6 -15l-20 -15l-12 -11l-21 -11l-14 -10l-21 -9l-24 -6l-20 -5l-21 -2l-37 -2l-22 4l-21 4l-11 4l-24 6l-20 7l-14 8l-26 9l-13 10l-20 7l-16 11l-33 14l-19 13l-13 -16l-20 -13l-13 -14l-21 -11l-32 -23l-37 -16l-16 -4l-29 -3h-35l-16 1l-21 6l-18 8l-19 13
l-9 13l-11 18l-11 20l5 21l2 19l23 31l16 13l11 10l19 8l14 7l23 2l25 2l15 -1h20l25 -2l14 -6l18 -3l20 -7l44 -16l4 11l19 23l11 15l14 16l9 16l15 16l6 18l10 16l17 17l15 17l6 18l18 16l-9 1l-20 -2l-22 2l-13 -1l-23 1h-18l-40 -1l-3 13l21 14l19 -2h39l20 2h17l26 -1
h20l8 10l14 35l13 15l14 17l7 17l16 17l13 19l12 16l10 16l12 16l15 17l4 14l13 14l19 16l12 12l20 14l17 11l18 12l14 9l35 17v2l-45 2l-22 5l-17 2l-18 3l-18 5l-22 2l-17 3l-23 3l-17 3l-26 1l-34 -1l-30 -1l-27 -12l-32 -6l-16 -5l-20 -9l-23 -6l-15 -11l-16 -12
l-20 -11l-24 -31l-18 -36l-8 -19l-9 -20l2 -20l8 -16l16 -14l24 -7l34 -1l16 6l18 6l19 10l16 11l19 11l20 23h13l9 -10l-42 -39l-14 -11l-17 -11l-9 -7l-21 -7l-17 -3l-21 -5h-43l-18 3l-13 5l-21 7l-17 8l-15 14l-6 17l-12 18l5 17l2 20l7 19l19 34l10 14l14 15l15 11
l13 13l19 10l18 12l16 7l24 9l18 8l15 4l27 7l16 3l24 3l35 6l21 -1l20 2l38 1l25 -3l22 1l14 -1l19 -2l24 -2l17 -4h25l14 -2l27 -2l17 -4l21 -2l16 -2l21 -1l23 -3h18l18 -3l38 -2l1 -23zM220 104l-25 13l-18 7l-23 5l-18 6l-20 1l-23 3l-20 -3l-18 -4l-18 -6l-17 -12
l-27 -34l-3 -21l10 -22l20 -16l17 -12l22 -6l38 1l16 5l25 8l20 11l18 13l9 15l16 15l40 31z" />
    <glyph glyph-name="bracketleft" unicode="[" horiz-adv-x="342" 
d="M393 646l-6 -19l-10 -17l-17 -18l-11 -19l-5 -18l-10 -17l-12 -17l-13 -19l-10 -18l-6 -18l-9 -18l-12 -19l-11 -17l-6 -18l-17 -19l-5 -16l-12 -19l-10 -18l-6 -18l-17 -18l-2 -17l-15 -19l-4 -17l-15 -19l-13 -18l-8 -17l-8 -18l-11 -15l-7 -18l-15 -16l-10 -17l-3 -19
l-15 -15l-9 -18l-9 -17l-10 -17l-7 -17l-19 -16l-10 -17l-2 -19l-7 -15h12l20 2h19l16 -1h22l19 1l19 -1l6 -17l-10 -14l-21 -15l-20 2h-26l-13 -2l-21 1l-24 -1l-22 1l-19 -1h-15l-22 1l-13 15l10 17l10 18l7 17l10 17l17 15l12 19l6 16l8 18l11 15l13 19l7 17l11 16l9 17
l14 17l17 34l8 18l12 17l11 17l12 16l6 17l15 16l9 17l9 19l5 16l11 17l12 17l13 16l11 18l1 18l13 17l7 16l10 16l11 18l11 17l12 18l12 16l12 18l5 17l15 15l2 17l16 18l11 17l7 16l11 17l12 17l8 18l6 16l32 17h23h18l19 -2l23 2l18 -2l22 2l22 -1l19 1h15l13 -15
l-12 -14l-23 -15l-17 -3h-21l-17 2l-25 -2l-21 1h-16l-30 -16l-8 -17z" />
    <glyph glyph-name="backslash" unicode="\" horiz-adv-x="420" 
d="M124 700l5 -18l5 -20l6 -17l5 -19l12 -20v-18l3 -20l12 -18l5 -19l-4 -19l11 -21l-1 -19l6 -19l10 -19l4 -18l8 -18l3 -19l4 -19l4 -21l6 -19l9 -19l-3 -19l11 -18v-20l11 -19l-3 -18l7 -20l4 -18l11 -18l5 -19l2 -21l6 -18l9 -19v-20l1 -18l11 -18l8 -21l3 -19l5 -19
l8 -19l1 -17l12 -21l7 -19l4 -18l-13 -20h-19l-33 21l2 17l-12 19l-8 19l-6 19l-2 19l-7 21l-7 17l-4 21l-10 19l2 17l-11 20l2 18l-10 20l-7 18l2 21l-9 17l-9 19l-3 21l-3 18v18l-11 20l1 18l-14 21l-4 17l2 19l-5 20l-13 19l4 19l-7 19l-8 18l-1 21l-12 19l1 18l-8 18
l-2 21l-5 17l-5 21l-11 17l-2 21l-8 19l-3 18l1 20l-10 18l-4 18l14 19l23 2z" />
    <glyph glyph-name="bracketright" unicode="]" horiz-adv-x="445" 
d="M121 -48l10 17l10 18l6 18l11 19l11 16l14 18l6 20l13 16l10 20l14 17l9 18l9 17l9 18l5 19l16 18l3 17l19 19l6 19l11 18l8 16l13 19l7 18l13 18l6 18l7 19l10 16l10 19l15 17l10 18l6 16l12 18l15 15l8 19l7 15l12 17l12 19l5 15l11 17l10 18l10 16l-11 18l-15 -2
l-16 -1l-25 2l-18 -2h-18l-14 1l-12 18l9 15l29 13l23 -1l17 -1h15l26 1l13 -1l22 1l19 -1l22 2l20 -1l14 -15l-15 -18l-9 -16l-6 -16l-14 -18l-13 -18l-10 -16l-5 -17l-12 -18l-5 -15l-16 -19l-8 -15l-13 -19l-10 -15l-7 -19l-11 -16l-5 -17l-18 -18l-7 -17l-10 -17
l-13 -16l-9 -18l-8 -15l-8 -19l-13 -17l-6 -15l-11 -19l-13 -15l-12 -18l-9 -16l-7 -19l-7 -17l-16 -17l-10 -15l-8 -17l-11 -18l-5 -17l-12 -16l-11 -18l-9 -17l-9 -18l-14 -17l-6 -16l-14 -16l-7 -19l-10 -15l-11 -17l-7 -18l-8 -16l-33 -18l-23 3l-14 -1h-22l-22 -1h-16
l-48 2l-33 -3l-10 16l8 15l23 14l20 3l21 -1l17 1h22l12 -1h20l34 14l3 18z" />
    <glyph glyph-name="asciicircum" unicode="^" horiz-adv-x="598" 
d="M139 271l15 14l15 16l15 15l11 14l9 17l19 15l14 16l8 16l12 17l21 16l6 17l18 15l13 15l8 18l16 16l17 15l10 15l8 16l12 17l34 31l12 16l7 17l16 17l8 15l17 17l11 14l10 1l7 -18l-3 -21l7 -17l-3 -20l3 -18l8 -22l2 -19l5 -21l-1 -20l8 -20l-5 -18l5 -20l2 -22l9 -18
l-4 -21l12 -20l-6 -19l11 -21l1 -19l1 -22l8 -19l-2 -19v-22l-20 -19l-27 19l1 22l-6 18l-3 20v22l-5 18l-2 20v21l-2 21l-5 19l-6 20l-4 20l2 19l-3 22l-10 19l2 20l-5 19l-13 6l-11 -14l-16 -15l-9 -15l-13 -15l-12 -17l-8 -13l-13 -16l-16 -15l-8 -14l-13 -15l-10 -15
l-11 -17l-16 -14l-14 -14l-15 -17l-12 -15l-12 -14l-12 -16l-15 -13l-9 -17l-16 -14l-11 -14l-36 -15l-13 -1h-25l-4 16l16 13z" />
    <glyph glyph-name="underscore" unicode="_" horiz-adv-x="650" 
d="M99 -91l13 -1h25l13 2h26l23 -1l20 1l18 -2h16l25 1l14 -1l21 2l25 -1h20l21 -1l20 1l3 -15l-2 -14l-16 -17h-34l-43 2l-15 -1l-19 1l-25 -2h-37l-17 1h-42l-18 -1l-18 2h-26l-20 -1l-15 -1l-27 1l-5 16l4 15l27 15l27 -2z" />
    <glyph glyph-name="grave" unicode="`" horiz-adv-x="250" 
d="M383 490l-8 15l-1 16l-14 22l-9 17l-4 32l-6 20l4 16l11 24l18 5l26 -22l-1 -18v-21l-2 -37l5 -20l6 -22l3 -16l1 -25l-15 -5z" />
    <glyph glyph-name="a" unicode="a" horiz-adv-x="573" 
d="M657 143l-17 -17l-16 -18l-7 -15l-20 -15l-15 -17l-10 -13l-18 -13l-18 -11l-12 -13l-24 -7l-22 -9l-14 -5l-26 -6l-34 2l-16 3l-15 6l-16 10l-18 15l-6 15l-2 21v18l-4 14l-17 -19l-18 -11l-19 -12l-13 -10l-31 -22l-24 -6l-10 -8l-20 -5l-18 -5l-22 -4l-45 2l-19 3
l-18 7l-9 12l-18 14l-12 17l3 19l-2 20l-2 18l2 20l11 21l10 18l6 20l17 35l11 16l10 17l20 15l11 15l10 15l15 13l14 13l20 15l12 12l15 9l23 11l18 10l13 8l23 9l12 4l25 5l12 5l22 2l42 -1l21 -6l10 -7l18 -14l4 -13l8 -19v-32h2l21 29l8 19l6 17l34 16l15 1l23 -2l5 -16
l-9 -15l-15 -20l-6 -16l-15 -18l-10 -16l-7 -18l-10 -15l-12 -17l-8 -17l-7 -17l-15 -19l-6 -16l-18 -35l-11 -21l-8 -18l-3 -23l5 -18l13 -19l23 -8h39l19 4l13 8l24 11l13 10l13 14l20 14l17 14l4 17l12 17l19 18l25 11l10 -4zM338 127l17 25l14 29l10 16l11 19l13 18
l3 26l5 21l1 19l3 21l-9 16l-20 14l-11 6l-41 1l-15 -2l-36 -16l-18 -8l-13 -10l-18 -10l-16 -13l-19 -14l-11 -12l-16 -15l-7 -17l-9 -14l-17 -18l-22 -33l-1 -17l-8 -18l-11 -19v-22l-6 -20l2 -18l17 -18l10 -11l18 -8h43l21 6l15 7l19 7l18 11l15 10l20 13l15 13l29 23z
" />
    <glyph glyph-name="b" unicode="b" horiz-adv-x="520" 
d="M444 394l17 -8l15 -11l11 -16l7 -16l5 -18l-1 -18l-1 -21v-19l-12 -19l-7 -18l-7 -16l-22 -37l-4 -16l-16 -18l-12 -16l-10 -13l-17 -17l-13 -13l-18 -13l-13 -13l-15 -12l-17 -12l-24 -9l-11 -8l-19 -9l-19 -8l-26 -4l-15 -5l-20 -3l-21 -2l-45 1l-13 1l-24 3l-12 7
l-22 12l-6 13l-10 17v21l-4 17l11 20l3 18l2 20l26 33l4 19l16 18l7 16l14 17l11 18l4 16l14 19l5 15l17 17l3 19l18 33l29 35l6 17l14 20l10 17l1 18l16 18l4 17l16 20l10 16l11 19l5 18l14 19l4 18l15 17l13 18l10 19l22 17l17 1l30 1l5 -18l-11 -17l-6 -18l-13 -18
l-23 -20l-4 -17l-10 -19l-12 -18l-14 -34l-7 -19l-14 -18l-4 -16l-16 -19l-10 -18l-5 -16l-18 -32l-12 -18l9 -1l16 10l20 12l10 6l23 9l18 4l26 2h38l14 -1zM412 247l2 20l7 20l-3 21l-4 21l-5 16l-17 13l-16 7l-38 -2l-21 -3l-21 -7l-16 -9l-14 -9l-23 -12l-14 -13l-9 -14
l-16 -17l-19 -31l-17 -18l-1 -18l-15 -17l-7 -17l-12 -16l-18 -33l-11 -20l-2 -17l-7 -21v-21l4 -18l17 -10l19 -7l41 2l20 2l21 7l16 9l18 10l12 12l13 11l18 14l12 14l17 15l18 16l9 14l14 16l6 18l23 34l4 18z" />
    <glyph glyph-name="c" unicode="c" horiz-adv-x="443" 
d="M480 115l-10 -12l-15 -12l-16 -14l-16 -9l-24 -11l-17 -11l-14 -8l-19 -8l-20 -7l-24 -7l-13 -7l-17 -5l-22 -5l-17 -3l-49 -4l-12 -2l-42 -1l-25 4l-14 6l-20 8l-15 10l-19 14l-6 17l-14 19l3 20l-2 19l2 21l10 21v19l10 19l16 36l15 18l14 16l14 16l8 17l18 14l16 13
l14 15l8 13l17 13l23 11l10 10l21 9l18 6l22 8l15 6l21 3h41l23 -6l21 -8l19 -10l16 -16l6 -20l8 -20l-6 -39l-18 -18l-12 -12l-18 -8l-18 -3l-20 6l-12 12l-7 22l7 20l16 14l26 3l17 -7l3 -6h3l4 17l-10 18l-13 14l-20 7l-36 2l-19 -5l-26 -5l-15 -10l-15 -9l-18 -14
l-16 -12l-16 -13l-9 -17l-16 -15l-9 -14l-12 -18l-15 -16l-23 -36l-2 -20l-6 -19l-5 -21l2 -20l-7 -19l11 -18l13 -16l17 -14l33 -11l42 -1l19 1l21 4l21 5l19 5l19 4l20 8l20 5l9 10l21 9l19 7l21 11l8 10l18 12l18 13l12 14l11 14l27 7l5 -8l-18 -30z" />
    <glyph glyph-name="d" unicode="d" horiz-adv-x="568" 
d="M716 654l-14 -17l-13 -17l-10 -19l-2 -19l-13 -18l-10 -18l-15 -18l-2 -16l-19 -18l-1 -20l-14 -16l-9 -18l-16 -17l-2 -17l-28 -35l-5 -17l-10 -18l-9 -16l-10 -18l-12 -17l-14 -16l-6 -18l-7 -17l-8 -16l-16 -18l-8 -16l-11 -18l-22 -36l-6 -17l1 -22l-8 -19l-1 -22
l20 -18l12 -9l39 1l21 3l22 9l20 11l13 10l11 14l20 13l12 16l18 17l9 15l10 18l24 13l10 -4l-5 -16l-18 -21l-6 -18l-21 -14l-6 -16l-15 -15l-14 -13l-18 -14l-24 -12l-16 -10l-19 -9l-16 -9l-15 -7l-25 -3l-38 1l-21 4l-12 7l-21 10l-7 13l-10 16l-1 21l2 19v13h-1
l-17 -17l-18 -13l-21 -12l-15 -12l-14 -10l-18 -10l-21 -7l-10 -8l-46 -11l-15 -3l-38 1l-19 5l-21 6l-14 12l-17 13l-8 18l-7 17l-1 20l8 20v22l11 20l2 17l13 19l21 37l11 17l5 16l17 15l13 16l11 13l13 14l14 14l17 13l21 11l10 12l24 11l11 8l17 9l22 8l15 5l18 5l28 5
l15 2l40 -3l18 -4l14 -9l16 -10l15 -17l1 -17l-1 -26l4 -1l9 26l12 16l14 18l15 34l14 19l7 17l14 17l6 18l8 20l9 17l14 18l12 18l13 18l5 19l9 16l10 19l12 19l11 18l11 18l24 18l19 -2l17 4l12 -21zM338 132l7 16l12 17l23 37l7 16l9 20l9 17l4 20l2 19l-7 21l-5 19
l-13 13l-24 5l-31 1l-25 -3l-9 -6l-27 -7l-15 -9l-18 -10l-13 -11l-17 -13l-9 -14l-11 -13l-13 -15l-15 -16l-17 -15l-6 -16l-20 -34l-6 -19l-9 -18l-8 -18l-7 -21l5 -18l3 -21l4 -17l16 -13l21 -7l35 1l45 11l15 9l16 11l14 12l21 14l15 15l17 12l11 18z" />
    <glyph glyph-name="e" unicode="e" horiz-adv-x="431" 
d="M476 112l-15 -13l-21 -11l-13 -10l-16 -11l-16 -12l-18 -9l-20 -10l-16 -6l-18 -8l-16 -9l-22 -5l-14 -4l-18 -7l-23 -2l-17 -3l-26 -3l-19 -1h-35l-21 1l-24 6l-19 6l-12 11l-15 11l-17 17l-5 19l-2 19l-2 21l7 21l1 20l16 20v20l24 35l7 18l12 16l13 16l19 15l7 17
l21 14l14 14l11 12l24 13l10 9l20 10l33 17l24 7l14 6l22 6l22 2h40l18 -2l21 -7l19 -21l6 -21l-2 -20l-26 -36l-12 -15l-8 -15l-21 -12l-17 -13l-12 -10l-16 -11l-35 -19l-16 -6l-20 -9l-20 -5l-20 -7l-13 -8l-20 -5l-25 -4l-22 -8l-26 -4l2 13l15 5l22 5l22 11l17 5l26 11
l11 8l16 8l25 7l16 7l20 11l10 9l23 11l14 13l11 11l10 17l23 34l-11 21l-16 9l-32 2l-22 -4l-16 -8l-21 -7l-20 -11l-14 -13l-19 -11l-17 -14l-10 -15l-18 -16l-8 -17l-14 -16l-8 -18l-20 -34l-14 -19v-2l-2 -13l-11 -25l1 -20l6 -20l8 -20l9 -15l15 -8l25 -7l16 -3l43 -1
l16 3l26 4l17 3l18 5l16 6l27 7l12 8l23 9l31 21l20 10l13 12l17 15l12 13l21 13l21 8l7 -5l-16 -18l-11 -15z" />
    <glyph glyph-name="f" unicode="f" horiz-adv-x="269" 
d="M566 576l-6 -18l-16 -16l-22 -10l-18 -3l-21 5l-18 16l-3 23l6 19l11 15l21 3l18 -5l15 -10h4l4 18l-6 16l-18 14l-17 9l-41 -1l-21 -6l-8 -9l-22 -10l-12 -13l-17 -14l-11 -14l-11 -18l-16 -14l-12 -19l-5 -15l-16 -17l-6 -19l-16 -18l-10 -17l-11 -17l-16 -18l-11 -19
l21 -1l15 -1h25l23 2l13 -2l14 -13l-13 -17l-25 -14l-22 1h-19l-22 -2l-18 1l-23 -1l-9 -23l-7 -20l-8 -15l-15 -20l-2 -17l-8 -15l-14 -18l-3 -19l-10 -14l-11 -18l-7 -18l-13 -16l-6 -16l-9 -18l-11 -16l-6 -19l-15 -16l-2 -18l-17 -15l-7 -19l-5 -15l-14 -18l-11 -17
l-13 -18l-2 -17l-16 -15l-11 -19l-11 -15l-5 -17l-20 -19l-3 -17l-12 -17l-11 -17l-14 -15l-13 -16l-11 -15l-9 -16l-29 -17l-27 2l-12 -2l-11 15l9 15l13 13l7 14l11 17l13 13l13 16l5 17l18 15l4 17l13 17l13 16l7 16l10 18l12 17l12 16l15 17l5 18l15 16l13 17l3 19
l11 19l11 18l12 16l10 19l11 17l11 20l6 17l14 17l7 19l11 18l10 18l6 18l11 19l16 18l4 17l14 17l8 18l6 13h-22l-36 -2h-20l-7 17l8 14l29 14h41l19 1l12 -1l8 17l8 19l15 19l7 18l6 15l15 17l8 18l16 17l3 17l17 16l7 15l19 18l13 14l9 14l20 15l12 13l16 11l21 10l16 7
l21 7l18 5l39 -2l19 -2l22 -10l13 -10l16 -14l10 -18l4 -25z" />
    <glyph glyph-name="g" unicode="g" horiz-adv-x="540" 
d="M558 352l-10 -18l-9 -15l-12 -19l-17 -17l-8 -17l-8 -16l-9 -17l-6 -17l-19 -17l-1 -18l-13 -17l-16 -16l-9 -17l-2 -17l-14 -18l-10 -17l-10 -15l-12 -17l-9 -18l-9 -17l-14 -17l-9 -18l-10 -17l-3 -16l-12 -16l-13 -18l-10 -16l-20 -36l-12 -15l-7 -16l-10 -18l-22 -15
l-7 -14l-13 -15l-21 -12l-10 -11l-18 -13l-18 -8l-33 -16l-20 -8l-22 -3l-17 -2l-37 -2l-25 5l-22 5l-33 17l-8 15l-8 20l6 18l5 19l11 32l14 16l23 15l9 10l23 12l19 8l21 9l13 8l28 5l19 2l44 7l22 -11l-1 -8l-6 -8l-20 3l-18 -3l-16 -3l-19 -3l-25 -7l-16 -7l-14 -8
l-23 -10l-15 -12l-9 -14l-25 -36l-5 -21l7 -24l14 -15l24 -12l33 -1l20 10l26 10l9 11l24 15l12 16l14 14l17 13l10 18l13 16l15 17l14 18l19 36l5 18l8 16l18 19l11 18l8 16l8 17l13 17l7 15l12 18l5 10l-1 3l-12 -12l-20 -16l-12 -11l-21 -9l-12 -12l-24 -8l-16 -6
l-34 -11l-19 -1l-44 -1l-24 4l-13 6l-21 13l-14 12l-2 18l-7 20l-2 20l5 18l7 22l-3 20l15 17l6 19l17 36l16 18l10 14l13 18l12 15l11 15l14 12l14 14l16 14l17 10l16 13l21 9l13 9l24 8l15 8l16 7l24 5l17 3l16 4l42 -3l17 -4l18 -9l22 -26l7 -18l1 -19l-2 -24h2l18 40
l3 17l12 18l33 20l19 -2l18 2l9 -19zM334 112l10 15l21 36l19 35l9 18l11 16l9 21l7 19l2 19l-2 20l-11 18l-9 13l-23 7l-40 2l-13 -4l-18 -8l-21 -6l-16 -10l-17 -10l-11 -10l-16 -14l-18 -13l-11 -12l-20 -15l-7 -15l-17 -18l-2 -15l-26 -34l-16 -19l-3 -18l-2 -18l-7 -20
v-19l7 -20l7 -18l14 -12l19 -8l42 1l23 4l16 9l21 8l16 11l15 13l12 12l18 14l13 16z" />
    <glyph glyph-name="h" unicode="h" horiz-adv-x="526" 
d="M606 135l-13 -18l-12 -14l-19 -17l-12 -15l-7 -12l-24 -14l-7 -12l-22 -14l-16 -6l-21 -10l-15 -8l-41 -12l-19 -4h-34l-17 5l-18 8l-17 10l-17 15l-4 16l-6 19l7 19l3 19l2 19l10 21l15 31l11 16l9 16l14 16l8 16l24 32l7 18l10 22l-4 20l2 19l-15 13l-23 9l-39 1
l-20 -5l-15 -8l-19 -11l-9 -10l-15 -14l-23 -15l-8 -13l-10 -18l-12 -15l-2 -1l-20 -34l-8 -17l-14 -15l-9 -18l-9 -17l-13 -18l-2 -17l-19 -17l-9 -17l-8 -17l-10 -15l-7 -19l-12 -15l-30 -18h-15l-20 -1l-6 18l6 20l13 16l9 16l8 17l7 17l15 18l12 18l9 15l9 18l6 17l8 17
l17 17l11 18l8 20l15 19l3 18l14 16l4 17l16 16l4 18l14 15l20 36l6 18l15 19l6 18l16 16l9 20l6 18l10 16l8 18l16 18l8 19l14 18l4 18l8 19l17 16l10 20l20 17l22 5l16 -4l17 -18l-15 -17l-5 -18l-9 -17l-16 -18l-9 -19l-9 -19l-6 -17l-14 -18l-12 -18l-3 -17l-16 -18
l-8 -19l-11 -19l-12 -18l-6 -17l-18 -29l-12 -21l-12 -17h3l22 19l15 15l22 9l13 7l19 8l21 4l43 -1l13 -3l21 -7l21 -13l13 -14l6 -15l11 -20l3 -20l-7 -21l-4 -19l-10 -18l-25 -31l-9 -14l-16 -16l-10 -14l-3 -15l-21 -35l-7 -18l-10 -21l5 -19l7 -19l15 -15l19 -10l38 -4
l18 3l21 9l15 11l18 17l18 12l7 15l22 15l11 16l5 17l18 17l21 11l8 -7z" />
    <glyph glyph-name="i" unicode="i" horiz-adv-x="274" 
d="M254 540l-8 21l6 18l15 19l23 14l32 -2l20 -14l9 -16l1 -32l-9 -25l-29 -13l-32 3l-12 11zM243 342l-16 -16l-3 -16l-11 -17l-10 -18l-9 -17l-13 -17l-14 -16l-2 -17l-13 -17l-15 -19l-15 -35l-11 -19l-5 -19l-3 -21l3 -23l12 -17l14 -7l45 -1l19 6l20 7l21 10l14 12
l11 13l20 15l11 14l10 15l16 19l17 15l18 13l5 -23l-14 -14l-17 -16l-3 -17l-13 -13l-17 -15l-15 -13l-18 -12l-16 -12l-16 -12l-17 -9l-20 -7l-14 -8l-15 -5l-19 -3h-39l-22 4l-20 7l-12 11l-14 13l-5 18l-5 17l-1 20l3 22l5 17l6 21l20 33l15 16l5 18l11 17l10 18l24 36
l12 19l8 17l5 19l13 17l6 17l9 16l38 18h19l18 -2l6 -15l-6 -17z" />
    <glyph glyph-name="j" unicode="j" horiz-adv-x="249" 
d="M254 540l-6 20l7 20l13 16l17 12l23 4l19 -4l18 -13l8 -25l-3 -30l-11 -15l-12 -11l-31 -4l-26 11zM-192 -106l-22 -3l-23 -7l-19 -7l-18 -9l-16 -8l-14 -14l-19 -12l-21 -37l-2 -21l11 -21l14 -14l21 -16l41 3l15 6l45 22l8 11l24 15l10 14l10 14l19 18l12 17l13 17
l11 20l20 35l9 19l7 16l6 20l13 16l9 17l8 18l14 15l8 18l11 16l15 19l8 15l7 17l11 18l8 16l16 18l7 17l11 18l9 15l4 17l17 17l5 17l16 17l10 17l9 17l22 37l1 17l38 16l18 -1h11l16 -15l-10 -19l-9 -15l-15 -18l-13 -16l-1 -17l-10 -18l-24 -35l-15 -17l-8 -17l-11 -15
l-6 -19l-8 -16l-10 -18l-10 -15l-11 -17l-14 -17l-12 -18l-2 -16l-9 -17l-12 -17l-11 -19l-9 -17l-14 -16l-8 -18l-10 -17l-11 -17l-11 -15l-18 -35l-8 -17l-14 -17l-15 -15l-9 -15l-20 -14l-8 -15l-14 -13l-21 -13l-20 -10l-15 -9l-13 -10l-20 -8l-38 -10l-20 -2l-37 -2
l-19 2l-18 6l-20 9l-14 11l-17 14l-3 19l-4 19l8 16l14 35l19 13l7 12l22 13l13 9l21 11l14 8l23 7l10 6l28 3l18 4l14 2l24 1l14 -2v-11l-13 -12l-21 -1h-10z" />
    <glyph glyph-name="k" unicode="k" horiz-adv-x="493" 
d="M401 627l-12 -16l-13 -19l-8 -19l-6 -18l-13 -17l-11 -18l-9 -19l-12 -18l-10 -17l-6 -18l-16 -17l-5 -20l-13 -16l-15 -34l-15 -16l-8 -19l-12 -17l-14 -18l-5 -17l-17 -15l-3 -17l-16 -18l-11 -17l-7 -17l-8 -18l-11 -16l-5 -17l-11 -16l-8 -19l-13 -15l-13 -19l-9 -16
l-4 -17l-15 -18l-11 -16l-25 -17l-19 -2l-14 2l-11 15l7 15l10 18l7 17l13 20l5 16l16 20l6 18l7 17l16 17l11 18l5 19l14 17l7 20l14 16l3 19l9 18l19 18l6 18l12 19l5 17l12 19l27 52l13 17l8 18l17 20l10 17l8 17l5 18l17 18l3 18l11 19l12 17l12 18l5 18l11 19l14 18
l25 19l23 -1l10 -1l18 -17l-13 -17zM283 171l10 -14l17 -15l7 -15l12 -19l-5 -18l3 -21l-3 -19l1 -21l-8 -19l-16 -34l-29 -3l-35 3l-2 18l6 19l2 19l8 22l-2 19l-1 20l-2 20l-14 20l-4 16l-14 16l-15 15l-29 14l5 14l26 4l31 13l35 16l21 6l16 9l19 7l15 6l22 10l1 3l-8 15
l-4 22l6 24l10 24l28 19l21 6l27 -7l12 -9l13 -20l2 -17l-8 -25l-18 -21l-16 -8l-20 -9v-2l16 -11l17 -7l10 -5l20 -3l46 -1l58 12l23 9l11 6l18 10l21 13l25 3l3 -8l-10 -13l-16 -12l-18 -11l-23 -8l-13 -8l-18 -5l-25 -6l-22 -5l-60 -1l-16 2l-21 7l-16 7l-19 10l-15 15
h-3l-19 -9l-15 -8l-18 -7l-21 -10l-15 -8l-18 -5l-45 -16v-2l21 -7l20 -6z" />
    <glyph glyph-name="l" unicode="l" horiz-adv-x="265" 
d="M414 640l-18 -20l-2 -17l-15 -18l-4 -17l-15 -18l-6 -19l-16 -17l-6 -20l-9 -17l-12 -18l-13 -17l-3 -19l-10 -18l-20 -34l-19 -18l-9 -15l-5 -17l-13 -18l-11 -17l-8 -16l-8 -17l-12 -18l-10 -17l-12 -17l-4 -16l-17 -19l-15 -36l-13 -17l3 -21l-6 -22l-3 -19l13 -17
l23 -9l36 -2l17 7l26 7l11 11l24 12l11 12l16 14l12 16l20 16l9 15l15 19l16 11l11 -3l-13 -20l-9 -17l-5 -14l-21 -16l-5 -14l-14 -14l-17 -15l-17 -11l-18 -11l-8 -12l-19 -11l-20 -8l-18 -5l-21 -5l-16 -4l-41 -1l-18 5l-12 8l-16 10l-13 12l-5 18l-8 20l-3 19l7 20l8 20
l7 18l20 33l9 18l5 18l8 18l15 18l7 18l12 18l13 16l4 18l14 19l8 18l13 15l13 18l20 35l3 18l15 17l11 18l10 18l10 20l2 17l13 18l7 18l19 19l1 18l17 18l4 17l14 17l14 20l5 16l26 20l19 -2l23 1l6 -17l-9 -18z" />
    <glyph glyph-name="m" unicode="m" horiz-adv-x="793" 
d="M879 128l-9 -15l-8 -16l-12 -16l-13 -15l-17 -15l-20 -12l-10 -11l-21 -13l-15 -8l-20 -11l-13 -6l-18 -7l-24 -6l-20 -2h-36l-15 2l-24 9l-17 9l-3 16l-15 16l4 20l-5 18l6 19l10 20l7 18l15 34l5 14l15 17l8 16l13 14l26 35l6 18l5 19v21l-7 19l-8 15l-19 7l-39 3
l-18 -7l-20 -7l-19 -9l-15 -14l-11 -11l-18 -15l-12 -9l-18 -17l-2 -19l-22 -34l-11 -17l-4 -18l-11 -16l-14 -17l-5 -17l-14 -18l-10 -17l-8 -16l-8 -17l-14 -18l-7 -17l-11 -15l-32 -17h-14l-26 -2l-11 16l14 17l4 20l14 17l11 20l12 17l12 18l10 19l10 16l1 18l19 19
l10 19l1 18l19 36l16 18l-1 20l8 20l-4 19l-14 15l-15 10l-47 1l-18 -6l-18 -5l-13 -10l-20 -12l-12 -13l-10 -16l-20 -14l-13 -16l-5 -6l-4 -15l-12 -18l-13 -17l-5 -16l-13 -19l-12 -17l-3 -17l-18 -17l-3 -17l-14 -16l-13 -16l-7 -17l-9 -17l-8 -18l-9 -16l-30 -17
l-17 -1h-24l-12 18l18 18l2 18l13 16l8 19l8 17l19 17l10 15l4 18l13 17l5 18l11 15l15 18l12 17l10 33l9 18l24 37l7 16l11 18l5 20l27 17h13l16 -18l-6 -19l-2 -17h2l2 6l14 15l18 10l20 11l22 8l11 9l23 5l16 3l40 -1l21 -5l19 -6l19 -12l14 -13l10 -18v-18l-4 -19h2v0
l14 17l16 12l17 14l11 11l17 12l21 9l17 9l22 5l18 5l37 -1l21 -5l23 -7l12 -11l12 -12l17 -18v-18l4 -20l-3 -20l-7 -20l-9 -18l-21 -31l-21 -30l-16 -17l-9 -15l-18 -35l-7 -17v-21l-7 -21l10 -17l14 -16l16 -8h40l22 6l17 7l19 9l11 12l20 13l16 14l14 15l16 17l10 16
l9 18l20 16l9 -7z" />
    <glyph glyph-name="n" unicode="n" horiz-adv-x="538" 
d="M625 138l-30 -32l-7 -16l-17 -15l-12 -15l-10 -11l-22 -14l-13 -11l-18 -10l-17 -7l-21 -9l-19 -7l-17 -5l-20 -4l-40 2l-12 2l-19 9l-20 9l-11 15l-12 16l5 19l2 20l2 21l5 18l3 20l26 32l7 15l13 16l10 15l4 16l25 32l14 20l-2 19v23l-3 18l-10 14l-26 9l-38 1l-14 -7
l-23 -6l-13 -12l-20 -10l-14 -14l-6 -15l-17 -13l-19 -22l-5 -15l-11 -19l-11 -17l-11 -16l-13 -16l-8 -19l-8 -16l-15 -34l-14 -17l-14 -18l-11 -16l-6 -17l-8 -17l-14 -18l-23 -17h-41l-9 18l11 20l6 16l7 19l22 34l10 18l11 15l7 19l14 16l8 16l18 17l13 19l15 25l19 21
l2 18l9 17l1 23l7 18l9 18v18l32 17l17 1l19 -18l-11 -18l-5 -19v-7h2l14 11l18 14l16 11l15 13l17 7l14 8l26 6l12 5h45l23 -4l18 -6l16 -11l7 -14l17 -19l7 -19l-8 -20l2 -20l-8 -19l-9 -16l-18 -32l-13 -15l-19 -31l-16 -17l-18 -34l-5 -18l-1 -21v-19l1 -19l13 -15
l23 -9l40 1l13 5l24 8l15 10l19 11l14 13l18 16l9 14l16 16l14 18l6 16l24 16l5 -3l3 -11z" />
    <glyph glyph-name="o" unicode="o" horiz-adv-x="506" 
d="M656 275l-16 -17l-11 -14l-12 -12l-18 -13l-20 -8l-17 -10l-14 -8l-16 -5l-25 -5l-21 -3h-30l-21 4l-27 7l-6 4l-2 -2l-13 -18l-14 -24l-13 -17l-9 -16l-19 -13l-6 -15l-14 -15l-19 -13l-12 -12l-21 -9l-21 -11l-11 -11l-18 -7l-23 -9l-19 -6l-19 -4l-11 -1l-42 -1l-21 3
l-24 9l-15 10l-14 14l-1 16l-14 21l8 18l-1 20l3 20l9 21l3 20l9 17l26 37l5 16l9 15l15 18l18 15l14 13l7 14l15 14l21 13l14 10l11 13l24 9l10 9l18 9l24 8l22 5l15 4l22 5l17 1l38 -2l22 -4l13 -9l16 -10l5 -16l10 -20l-2 -17h14l15 -8l12 -13l6 -17l-4 -34l-20 -23
l-21 -11l-19 -3v-2l11 -10l18 -6h47l12 5l18 6l24 8l15 10l20 12l16 11l11 14l13 18l23 12l10 -6zM381 216l-13 23v35l8 22l10 14l15 12l21 10l-27 29l-25 9l-39 -3l-15 -4l-21 -7l-17 -8l-17 -8l-10 -9l-19 -12l-15 -14l-17 -11l-15 -16l-9 -15l-13 -13l-15 -18l-11 -15
l-11 -35l-12 -17l-8 -19l-7 -18l-1 -19l-5 -22l8 -18l6 -19l16 -13l13 -6l38 -1l19 6l26 7l17 7l13 12l17 10l20 13l14 15l11 14l18 16l9 15l12 18l18 23l17 24z" />
    <glyph glyph-name="p" unicode="p" horiz-adv-x="528" 
d="M596 107l-16 -17l-14 -16l-9 -14l-14 -14l-12 -12l-24 -13l-14 -9l-13 -10l-16 -10l-22 -8l-33 -11l-22 -5l-22 -2h-33l-19 4l-17 5l-22 13l-10 15l-3 18l4 17l-3 20l3 20l25 34l4 19l10 15l13 15l19 17l16 16l6 17l22 32l16 19l4 23l-6 21l-9 17l-9 14l-27 9l-31 1
l-25 -6l-30 -17l-14 -11l-14 -15l-14 -13l-13 -15l-22 -21l-7 -15l-11 -19l-10 -17l-15 -17l-8 -17l-9 -15l-11 -17l-7 -16l-11 -19l-7 -17l-14 -16l-5 -18l-16 -17l-5 -17l-10 -17l-13 -18l-10 -17l-7 -15l-16 -18l-6 -16l-12 -17l-9 -17l-14 -18l-10 -18l-8 -16l-6 -17
l-16 -18l-2 -17l-14 -16l-13 -17l-8 -18l-10 -16l-29 -15h-20l-24 -2l-12 15l16 13l11 16l11 15l5 16l7 15l13 19l15 16l9 17l10 16l5 19l8 17l18 16l3 17l17 18l3 17l16 16l11 19l10 19l4 16l16 19l5 17l10 20l15 17l4 16l16 17l7 18l14 17l13 19l6 20l9 15l14 19l14 33
l12 17l4 23l7 15l8 18l12 19l8 18l20 16h21l12 -16l1 -20l-12 -17l-3 -18h3l16 21l14 12l19 13l12 10l25 9l13 8l23 6l18 4l37 1l20 -4l20 -8l18 -8l19 -15l6 -18l4 -17l9 -20l-8 -22l-7 -19l-6 -17l-24 -33l-16 -15l-13 -16l-7 -16l-22 -14l-9 -16l-5 -16l-27 -37l4 -21
l-4 -21l19 -22l23 -7l36 6l43 11l28 17l24 11l13 13l14 14l17 12l14 15l6 16l21 18l19 12l9 -5z" />
    <glyph glyph-name="q" unicode="q" horiz-adv-x="540" 
d="M548 357l-3 -15l-10 -19l-17 -15l-1 -19l-10 -17l-18 -15l-9 -18l-5 -16l-15 -18l-9 -18l-10 -15l-11 -17l-4 -18l-18 -16l-3 -18l-9 -16l-13 -17l-12 -19l-5 -16l-9 -18l-25 -34l-6 -16l-13 -17l-20 -35l-10 -16l-9 -17l-8 -19l-19 -15l-4 -15l-15 -16l-12 -15l-13 -15
l-16 -15l-35 -26l-13 -8h3l29 4l13 3l23 4l17 2l19 7l28 4l10 6l20 6l20 6l25 10l21 -4v-14l-11 -6l-25 -7l-17 -8l-18 -6l-15 -7l-19 -5l-20 -6l-23 -5l-14 -4l-39 -6l-21 -5l-15 -1l-24 -4h-23l-14 -4h-27h-35l-5 19l20 19l18 6l16 4l24 9l15 11l16 10l30 29l14 14l14 16
l5 19l15 17l16 16l11 18l4 19l23 34l13 17l3 18l9 18l12 17l11 17l10 19h-2l-35 -28l-13 -9l-22 -11l-21 -9l-13 -5l-22 -8l-18 -3l-21 -3l-33 -1l-26 5l-20 7l-13 12l-18 13l-8 17l-4 19l1 21v19l9 21l5 19l6 20l13 17l17 36l7 18l20 14l11 16l6 16l13 15l14 15l19 11
l11 14l20 13l14 10l21 10l17 10l12 9l24 6l14 8l21 5l22 2l15 2l46 -1l17 -6l12 -7l15 -13l15 -15l4 -15l-3 -21v-18h3l8 15l6 19l10 17l5 19l30 18h18l23 1l12 -18zM321 99l19 24l10 18l17 18l5 10l19 35l8 19l5 16l8 21l6 19l2 20l-2 18l-9 19l-11 14l-19 7l-39 1l-21 -4
l-13 -6l-18 -10l-24 -9l-14 -8l-19 -12l-10 -13l-13 -12l-17 -14l-8 -15l-14 -14l-12 -18l-12 -16l-23 -32l-2 -20l-10 -17l-10 -19l1 -19v-20l5 -21v-16l22 -14l20 -7l30 1l26 5l19 8l20 6l17 9l16 13l18 12l13 15z" />
    <glyph glyph-name="r" unicode="r" horiz-adv-x="373" 
d="M422 306l-6 -19l-10 -19l-15 -13l-21 -10l-27 -1l-27 11l-9 24l3 25l16 17l8 10l22 6l16 2l2 2l-5 15l-10 11l-19 5l-17 -2l-22 -9l-16 -9l-38 -24l-14 -12l-13 -12l-14 -17l-11 -15l-11 -19l-17 -17v-1l-6 -16l-9 -16l-9 -17v0v0l-12 -17l-13 -17l-12 -17l-5 -19l-9 -17
l-14 -15l-11 -19l-6 -17l-15 -16l-6 -17l-33 -18l-12 2l-25 -2l-8 19l14 17l11 18l11 15l2 17l15 17l11 17l13 18l7 17l6 17l13 18l12 15l10 18l7 17l16 36l15 17l7 17l11 16l11 19l8 19l6 16l22 20h21l7 -19l-1 -17l-9 -18l-3 -18h3l9 8l11 16l14 13l14 12l21 9l12 11l17 9
l20 3h48l14 -7l14 -12l13 -16l8 -25z" />
    <glyph glyph-name="s" unicode="s" horiz-adv-x="386" 
d="M336 397l25 -11l12 -16l6 -20l3 -23l-3 -18l-7 -19l-13 -16l-18 -11l-17 -4l-25 7l-15 19l-4 16l6 16l14 13l17 5l20 -3l21 -11l2 1l-4 20l-12 17l-18 9l-17 8l-40 -2l-23 -4l-8 -10l-18 -10l-18 -30l-5 -27l4 -19l4 -19l14 -19l5 -15l13 -17l17 -18l6 -15l13 -18l7 -19
l2 -22l5 -19l-5 -20l-22 -34l-20 -12l-20 -11l-18 -11l-14 -7l-18 -3l-24 -5l-37 1l-27 3l-17 6l-21 9l-10 9l-20 14l-6 17l-10 20l-5 21v40l7 21l20 18l27 9l19 1l14 -3l12 -14l9 -19l-5 -23l-12 -14l-18 -6h-21l-18 14h-3l-1 -26l5 -20l9 -19l16 -13l18 -9l24 -10h46l22 5
l17 10l13 14l23 33l4 22l-7 20l-4 18l-11 17l-15 18l-8 18l-15 17l-5 16l-12 21l-4 18v22l2 20l3 18l18 38l22 14l18 11l10 11l42 9h51l13 -4z" />
    <glyph glyph-name="t" unicode="t" horiz-adv-x="313" 
d="M393 147l-7 -17l-20 -17l-8 -14l-12 -14l-20 -14l-12 -12l-16 -14l-21 -10l-18 -10l-19 -8l-18 -10l-13 -6l-26 -5l-19 -5l-13 -2l-47 -1l-15 5l-20 5l-19 11l-7 13l-7 19l-7 19l-1 20v20l6 17l16 19l11 36l9 16l13 18l6 18l13 16l11 17l12 18l12 17l14 16l7 17l17 28
l-18 -2l-45 2l-21 -4l-4 18l6 20l24 11l22 -2h28l21 1h11l9 17l6 17l8 17l10 18l7 15l14 18l2 18l11 15l24 18h44l9 -16l-9 -18l-10 -16l-11 -17l-3 -19l-8 -15l-15 -18l-8 -17l-10 -16l24 -1l14 -1l22 2l28 -2l13 1l16 -15l-7 -23l-32 -10l-19 -1l-20 5l-24 -2l-23 2h-19
l-13 -26l-16 -33l-11 -19l-12 -16l-11 -16l-8 -19l-4 -17l-11 -16l-14 -17l-12 -37l-9 -19l-10 -20l-4 -21l9 -21l3 -16l26 -10l40 -1l19 5l11 5l25 5l16 10l19 8l18 13l12 12l11 11l21 15l13 16l9 13l15 18l17 10l13 -6z" />
    <glyph glyph-name="u" unicode="u" 
d="M594 106l-12 -14l-18 -16l-11 -14l-18 -15l-20 -11l-9 -14l-21 -11l-22 -7l-15 -9l-22 -5l-16 -5l-43 -1l-22 5l-11 10l-19 12l-12 14l-12 19v22l-3 2l-18 -16l-24 -15l-14 -13l-16 -11l-12 -11l-23 -6l-17 -7l-28 -3l-30 -1l-26 5l-18 7l-11 10l-12 15l-13 15l1 19l2 20
l-5 20l10 20l12 18l12 33l12 18l7 18l16 19l5 18l9 17l13 18l13 16l12 17l5 17l10 16l8 19l13 19l23 16l19 2h26l9 -17l-9 -20l-10 -16l-15 -19l-7 -17l-6 -16l-10 -16l-13 -18l-8 -18l-13 -16l-14 -18l-3 -15l-11 -19l-21 -36l-8 -19l-1 -19l-8 -21l3 -19l10 -18l20 -11
l41 -1l22 5l17 8l17 10l17 12l20 12l11 15l12 15l9 17l11 15l17 36l12 17l9 17l10 15l14 19l3 17l16 17l8 17l10 15l6 19l16 17l9 18l2 18l36 16h20l15 2l8 -17l-7 -18l-10 -19l-7 -16l-8 -17l-17 -17l-8 -19l-5 -15l-12 -17l-14 -19l-6 -17l-11 -15l-9 -17l-22 -36l-4 -19
l-13 -22l1 -21l3 -20l11 -16l20 -9l38 1l18 6l16 6l26 10l10 14l20 11l9 15l16 16l18 15l13 15l11 18l17 12l6 -3l-5 -21l-9 -15z" />
    <glyph glyph-name="v" unicode="v" horiz-adv-x="489" 
d="M660 294l-12 -9l-24 -11l-19 -10l-14 -8l-13 -5l-25 -8l-19 -4l-16 -2l-40 1l-24 2l-14 5l-24 19h-2v-26l-10 -19l-9 -18l-7 -20l-9 -17l-12 -17l-8 -17l-8 -15l-17 -15l-30 -28l-19 -11l-12 -12l-32 -20l-20 -9l-16 -6l-23 -8l-14 -6l-19 -5l-19 -2l-24 -4l-21 -2l-23 9
l3 29l-4 19l-4 20l-1 19l-8 18l-3 21l3 20l1 19l3 20l7 20l14 17l3 20l28 34l13 16l12 16l6 14l17 17l19 15l12 14l11 15l30 17l13 2l25 -2l3 -18l-10 -17l-9 -15l-12 -15l-12 -15l-15 -14l-14 -17l-10 -15l-20 -34l-12 -17l-11 -18v-19l-10 -19l2 -18l-6 -22l3 -20v-20v-19
l8 -17l6 -20l12 1l17 2l12 7l18 4l25 8l14 9l23 9l14 10l15 14l11 12l12 15l13 15l14 14l11 17l9 19l13 18l9 17l2 20l2 19v33l3 20l-3 38l7 17l19 15l14 9l14 8h38l17 -13l15 -18l-3 -38l-18 -19l-10 -11l-27 -8h-17l-1 -2l6 -13l24 -18l20 -4l31 11l21 1l21 5l17 6l16 7
l26 9l11 11l21 11l15 3l4 -11z" />
    <glyph glyph-name="w" unicode="w" horiz-adv-x="732" 
d="M892 289l-13 -11l-18 -9l-15 -11l-24 -6l-11 -8l-23 -7l-21 -3l-14 -4l-47 1l-15 4l-25 6l-19 11l-2 3l-1 -3l-1 -19l-2 -18l-11 -19l-10 -20l-9 -17l-7 -18l-15 -15l-12 -18l-5 -13l-18 -16l-18 -11l-17 -12l-14 -12l-19 -11l-11 -9l-35 -15l-26 -6l-18 -7l-13 -4
l-21 -4l-17 -3h-26l-24 7l1 30l-4 20l-2 20l-3 6l-19 -18l-17 -11l-15 -10l-22 -9l-17 -10l-19 -7l-26 -4l-11 -5l-20 -5l-21 -2l-19 -3l-25 8l-7 30l-3 19l-3 19v19l1 21l-5 17l-3 20l2 20l11 20l5 19l4 21l11 18l26 33l5 18l16 14l11 17l14 15l20 13l12 16l15 15l30 18
l13 1l14 -2l17 -16l-11 -19l-18 -14l-12 -15l-6 -16l-16 -14l-17 -16l-5 -15l-23 -34l-10 -18l-7 -18l-7 -19l-8 -18l-7 -19l5 -20l-5 -22l1 -19l6 -19l1 -18l2 -20l2 -2l20 2l22 5l20 6l17 4l20 6l12 9l23 13l16 14l18 20l-4 19v18l3 22l6 18l7 19l3 21l8 18l26 34l7 16
l15 16l20 15l7 16l19 14l9 16l14 16l28 16l22 -1l13 2l15 -18l-16 -17l-8 -18l-10 -14l-13 -15l-14 -15l-13 -16l-37 -48l-7 -18l-12 -17l-7 -18l-4 -21l-3 -20l3 -19l-2 -20l-3 -21l4 -17l11 -21l17 -16l17 2l18 6l15 6l14 6l26 7l15 12l15 9l19 13l15 14l14 13l7 14l12 17
l10 18l18 16l4 18l8 21l7 17l7 22l3 19v14l-11 19l1 26l6 28l15 14l16 12l13 6l36 -1l23 -7l8 -14l10 -16l-3 -27l-13 -24l-23 -12l-14 -5l-24 -1l-2 -2l13 -12l16 -8l15 -4l38 -5l19 4l23 6l13 4l25 12l36 18l12 12l16 4l8 -7z" />
    <glyph glyph-name="x" unicode="x" horiz-adv-x="589" 
d="M625 117l-13 -14l-16 -12l-14 -12l-17 -11l-20 -10l-13 -10l-17 -10l-19 -11l-14 -6l-24 -8l-13 -8l-24 -4l-19 -7l-18 -2l-20 -2l-37 -2l-17 6l-23 7l-10 12l-12 14l-8 17l-6 19l-1 19l2 19l-1 1l-12 -17l-13 -15l-19 -14l-7 -13l-24 -12l-17 -11l-15 -9l-15 -9l-24 -7
l-17 -3l-46 1l-21 6l-14 11l-8 15l-17 16l-4 21l6 19l3 20l10 21l18 31l16 14l30 13l25 -7l14 -16l4 -20l-7 -21l-18 -12l-18 -5l-23 3l-14 11l-2 -1l-8 -18l-4 -19l2 -19l6 -16l23 -12l11 -9l43 1l20 9l17 8l15 14l16 12l7 16l14 17l14 16l10 16l17 19l7 18l13 18l14 36
l9 18l9 17l7 20v17l1 20v21l-7 19l-19 23l-42 1l-19 -6l-14 -8l-22 -11l-10 -12l-15 -16l-21 -10l-9 4l3 16l12 14l11 13l19 12l14 10l18 9l19 8l33 9l44 -3l15 -3l13 -10l14 -10l14 -18l4 -18l2 -19l4 -19v-15h2l22 27l11 16l10 14l13 12l24 11l11 13l18 10l16 6l26 7h34
l24 -6l20 -12l11 -17l4 -18l-2 -20l-7 -21l-24 -33l-13 -14l-26 -10l-31 4l-12 15v20l6 19l21 15l9 -2l18 2l15 -13l13 -4h1l8 19l-1 16l-16 17l-17 10l-33 -2l-17 -7l-16 -10l-21 -10l-16 -14l-6 -16l-13 -16l-16 -17l-15 -16l-10 -17l-9 -19l-8 -19l-20 -35l-6 -19
l-11 -16l-7 -21l4 -17l-2 -19l7 -19l2 -17l19 -14l15 -5h36l24 1l25 7l19 6l20 6l12 8l22 9l16 10l18 11l23 11l18 12l10 12l20 11l28 27l27 6l7 -6l-13 -17l-19 -15z" />
    <glyph glyph-name="y" unicode="y" horiz-adv-x="496" 
d="M662 291l-10 -12l-20 -8l-19 -10l-12 -8l-25 -8l-10 -6l-20 -2l-27 -5l-34 2l-23 3l-18 5l-19 8l-8 5l-1 -21l-3 -22l-8 -18l-16 -19l-1 -17l-15 -19l-5 -15l-21 -17l-22 -28l-18 -14l-13 -11l-15 -12l-25 -10l-12 -9l-23 -9l-20 -5l-15 -7l-20 -5l-21 -1l-2 -2l3 -20
l7 -23l4 -20l-4 -22l-6 -18l-6 -22l-7 -17l-6 -21l-15 -16l-10 -19l-6 -14l-13 -16l-22 -13l-9 -13l-23 -11l-12 -11l-22 -7l-21 -7l-22 -4l-18 -3h-39h-18l-23 6l-15 8l-15 9l-9 17l-12 16l7 20l-1 19l18 31l19 14l7 15l17 12l13 8l18 9l24 8l10 7l19 7l25 5l16 5l25 3
l11 2l20 -1l3 -12l-4 -16l-14 4l-27 -2l-13 -3l-46 -10l-18 -5l-14 -10l-14 -11l-17 -10l-14 -15l-18 -35l-8 -23l5 -18l13 -15l22 -8l36 -1l20 2l24 9l17 9l10 10l17 12l9 15l21 14l7 16l8 17l11 19l1 17l7 22v19l1 20l2 21l-5 20l2 39l-7 20l-1 19l-5 17l-7 19l2 20l-7 20
l6 22l4 18v21l5 19l16 18l5 19l21 34l11 16l16 15l13 16l19 15l9 15l12 14l15 15l30 19h33l7 -7l-2 -11l-9 -19l-11 -16l-12 -13l-9 -15l-14 -16l-17 -15l-13 -15l-22 -35l-7 -16l-4 -20l-15 -18l-6 -19v-20l-6 -19l5 -20l-1 -20l9 -22l-3 -17l3 -31l2 -2l15 7l17 3l23 8
l15 10l14 7l22 8l15 11l14 12l22 11l17 14l15 14l13 13l10 17l11 17l9 17l5 17l13 19l1 21l7 18l1 20l-1 19l-3 18l8 28l3 32l19 12l28 12l30 -1l18 -7l11 -13l10 -23l-10 -27l-12 -19l-16 -11l-17 -7l-25 -7v-2l21 -13l32 -7l35 3l20 2l14 6l16 4l23 9l15 9l24 8l15 12
l18 5l5 -8z" />
    <glyph glyph-name="z" unicode="z" horiz-adv-x="464" 
d="M479 358l-7 -16l-11 -19l-17 -16l-12 -17l-5 -17l-14 -15l-16 -16l-9 -17l-16 -15l-14 -13l-12 -17l-19 -14l-15 -13l-11 -14l-17 -13l-12 -11l-20 -11l-18 -11l-19 -11l-13 -5v-2l22 -1l20 -5l11 -9l16 -14l21 -14l3 -15l10 -19l-2 -19l1 -19l-5 -22l-2 -20l-5 -19
l-12 -17l-21 -35l-5 -16l-22 -16l-10 -16l-16 -15l-13 -13l-16 -12l-15 -10l-17 -10l-23 -9l-18 -9l-24 -7l-16 -5l-18 -6l-23 -3l-17 -2l-17 -4h-46l-18 5l-24 4l-18 9l-14 11l-11 15l-18 18l-3 20l3 18l8 22l18 34l15 12l11 12l17 11l22 8l13 7l22 7l21 4l13 2l17 2l24 -1
l2 -10l-16 -12l-23 -3l-22 -5l-17 -6l-21 -8l-31 -23l-20 -34l-13 -21l-1 -19l15 -20l6 -15l19 -9l28 -6l36 1l20 1l16 5l24 6l17 9l15 9l19 12l20 11l14 14l34 28l11 17l15 16l19 37l5 17l4 21l7 18l5 21l1 21l-7 22l-7 18l-15 14l-11 12l-53 13l-8 11l3 12l32 4l16 5l17 7
l25 20l23 11l21 27l19 16l7 15l12 18l20 14l4 19l17 17l5 15l14 17l11 17l8 18l-1 1l-19 -14l-20 -8l-11 -11l-23 -8l-19 -6l-20 -5l-19 -1h-40l-18 3l-20 7l-15 9l-12 18l-18 18v34l16 26l10 17l31 10l29 -2l21 -10l7 -17l-2 -28l-16 -25l-22 -7l-25 -1l-2 -2l14 -17l25 -7
l42 -1l15 1l21 7l18 5l22 8l14 12l18 9l22 12l15 13l13 15l27 15l16 -1h25l5 -15z" />
    <glyph glyph-name="braceleft" unicode="{" horiz-adv-x="520" 
d="M738 711l-9 -7l-32 -4l-22 -7l-15 -9l-14 -12l-20 -11l-20 -14l-14 -16l-13 -15l-6 -17l-27 -36l-12 -15l-7 -17l-9 -18l-9 -16l-10 -18l-13 -14l-19 -14l-8 -14l-17 -14l-10 -13l-19 -10l-17 -11l-20 -8l-19 -7l-21 -5l-17 -6l-19 -4l-43 -5v-2l29 -7l17 -7l15 -13
l22 -13l5 -18l10 -18v-17l6 -22l-4 -19l-2 -21l-5 -19v-20l-11 -19l-9 -17l-19 -34l-12 -20l-5 -16l-13 -18l-3 -20l-10 -19l-5 -18l1 -21l-6 -20l8 -19l14 -13l12 -17l-23 -18l-31 8l-16 8l-16 12l-4 16l-12 18v19l3 20l6 21l1 20l12 18l6 20l6 20l12 19l21 35l1 19l11 20
l10 20l3 20l7 22l-1 20l-2 21l-6 19l-16 15l-9 15l-26 11l-18 8l-14 7l-25 4l-32 2v15l15 12l49 3l43 5l20 3l16 7l19 6l24 8l14 7l13 12l19 11l19 12l11 15l11 16l12 14l15 17l5 16l15 17l21 33l7 16l12 18l10 15l13 13l17 14l20 14l13 13l19 10l16 9l18 11l16 7l27 4l14 5
l21 5l19 1l22 -7z" />
    <glyph glyph-name="bar" unicode="|" horiz-adv-x="453" 
d="M573 728l7 -17l-8 -15l-5 -19l-10 -17l-15 -15l-11 -19l-4 -16l-18 -17l-4 -16l-15 -17l-11 -19l-2 -16l-12 -16l-13 -18l-5 -17l-14 -16l-12 -19l-13 -16l-3 -18l-17 -17l-2 -17l-11 -16l-10 -18l-17 -16l-1 -17l-12 -18l-13 -15l-9 -19l-13 -15l-11 -18l-7 -18l-14 -17
l-6 -17l-10 -16l-8 -16l-11 -17l-6 -18l-15 -18l-7 -15l-10 -17l-10 -19l-12 -15l-13 -18l-6 -18l-15 -16l-6 -16l-7 -19l-15 -16l-10 -16l-27 -18h-20l-9 -1l-13 17l16 18l2 16l11 19l16 15l9 17l9 18l10 18l11 15l5 19l9 16l17 16l2 19l14 15l8 18l17 17l2 16l13 19l13 17
l6 15l16 17l19 36l6 15l11 17l11 19l12 15l6 17l10 17l14 18l3 18l17 16l7 18l8 16l12 18l5 17l10 16l13 16l10 18l11 18l15 17l8 16l9 16l13 19l9 17l11 16l1 18l17 15l4 19l31 15l22 1z" />
    <glyph glyph-name="braceright" unicode="}" horiz-adv-x="611" 
d="M601 312h-29l-22 -3l-21 -2l-20 -4l-16 -6l-23 -4l-22 -7l-18 -8l-17 -11l-19 -11l-10 -12l-17 -12l-17 -16l-8 -15l-16 -15l-8 -17l-8 -16l-14 -17l-7 -18l-24 -33l-7 -16l-17 -16l-11 -18l-7 -15l-10 -15l-18 -17l-10 -13l-14 -15l-15 -13l-17 -13l-17 -13l-15 -10
l-16 -11l-16 -8l-16 -9l-19 -6l-18 -4l-23 -5h-20l-20 3l3 9l21 12l14 4l24 8l13 7l13 13l16 10l22 16l15 14l11 15l18 17l11 16l13 18l10 18l12 18l11 18l20 35l4 18l11 17l18 16l10 17l3 14l18 16l10 15l15 13l14 13l15 12l21 13l17 9l11 10l24 6l17 8l21 5l23 5l30 8v2
l-30 4l-24 8l-15 9l-13 11l-12 17l-10 16l-11 18v18l3 21v17l6 20l14 18l13 35l16 18v19l14 18l-1 19l12 21l-3 20l-3 21l-15 11l-16 19l5 15l29 1l11 -5l19 -5l21 -11l9 -15l14 -15l-5 -20l1 -18l-1 -20l-4 -19l-9 -19l-2 -18l-11 -18l-18 -35l-8 -18l-5 -18l-9 -18l1 -20
l2 -18l14 -19l4 -15l20 -10l17 -10l16 -7l22 -5l18 -4l22 -3l28 -2l3 -14z" />
    <glyph glyph-name="asciitilde" unicode="~" horiz-adv-x="576" 
d="M184 273l-22 -23l-22 5l-4 21l17 16l12 12l15 13l14 8l28 8l20 4l32 -1l22 -4l21 -8l16 -11l21 -10l12 -10l25 -8l18 -4l40 1l21 6l15 11l25 9l11 14l12 14l12 -4l-3 -22l-11 -16l-16 -17l-17 -13l-12 -13l-16 -11l-24 -9l-18 -7l-34 2l-26 5l-21 9l-12 12l-21 13l-7 14
l-22 10l-24 8h-43l-13 -7z" />
    <glyph glyph-name="exclamdown" unicode="&#xa1;" horiz-adv-x="379" 
d="M363 378l4 -29l-11 -25l-21 -12l-33 -1l-27 13l-9 25l2 28l7 17l22 11l36 1l22 -10zM249 202l-13 -18l-3 -17l-16 -18l-7 -17l-8 -18l-7 -19l-7 -19l-18 -16l-1 -20l-17 -16l-7 -18l-8 -20l-10 -16l-7 -20l-9 -17l-6 -18l-15 -17l-7 -18l-10 -19l-10 -17l-11 -20l-2 -16
l-19 -35l-19 -20l-2 -17l-18 -17l-24 -16h-26l-18 1l-10 16l11 14l15 18l11 15l6 18l15 17l16 16l10 17l6 17l14 17l9 17l7 16l17 18l11 18l11 15l9 19l4 16l15 18l13 16l5 17l10 16l8 18l18 17l4 16l16 17l10 19l5 15l7 18l17 17l7 18l8 17l11 15l19 14l11 -2l-6 -22
l-3 -17z" />
    <glyph glyph-name="cent" unicode="&#xa2;" horiz-adv-x="574" 
d="M562 369l-2 -19l-19 -34l-19 -10l-22 -9l-32 2l-17 11l-5 14l5 20l16 19l25 8l23 -4l8 -9l2 1l6 14l-1 17l-10 17l-16 14l-19 11l-23 13l-15 -15l-10 -17l-9 -19l-8 -15l-8 -17l-14 -19l-12 -17l-7 -15l-8 -18l-13 -18l-5 -17l-12 -16l-9 -17l-8 -16l-14 -18l-8 -17
l-7 -17l-12 -16l-15 -19l-9 -13l39 4l19 2l17 3l19 6l23 5l11 8l24 10l18 11l18 11l15 12l18 9l4 -17l-23 -18l-8 -13l-23 -11l-15 -9l-21 -10l-9 -8l-18 -7l-22 -5l-20 -7l-18 -3l-15 -6l-22 -2l-33 -2l-6 -18l-8 -15l-12 -19l-10 -16l-6 -17l-23 -18l-18 1l-8 16l7 17
l12 17l15 18l9 16l9 19l-13 2l-14 5l-24 7l-18 11l-12 15l-12 17l-6 18l-2 20l4 22v19l4 21l11 20l5 17l21 37l21 32l12 16l10 16l21 15l12 14l16 14l15 11l16 13l11 12l21 10l13 7l23 9l23 8l31 7l27 4l31 -1l5 15l12 19l10 16l15 32l23 4l9 -19l-10 -16l-2 -16l-13 -17
l-14 -23l31 -11l12 -13l16 -12l6 -16l13 -18l8 -19zM395 448l-24 -7l-17 -7l-16 -10l-23 -12l-15 -14l-16 -14l-8 -16l-22 -16l-9 -15l-8 -18l-14 -17l-25 -36l-3 -19l-11 -18l4 -21l-7 -21l2 -18l8 -19l10 -16l25 -15l17 18l20 35l5 17l13 17l6 18l15 17l2 16l18 19l10 15
l9 19l12 15l9 19l9 17l3 15l14 19l15 16l9 18l7 16z" />
    <glyph glyph-name="sterling" unicode="&#xa3;" horiz-adv-x="823" 
d="M796 680h-22l-21 -5l-13 -4l-15 -5l-22 -10l-14 -8l-17 -14l-9 -12l-17 -15l-15 -13l-8 -17l-9 -17l-14 -17l-11 -17l-11 -17l-17 -18l-4 -18l-8 -20l-9 -16l-14 -20l-11 -19l14 -1l15 1l20 1l19 -2l24 2h21l12 -1l28 -1h21l11 -13l-8 -15l-7 -16l-17 -1h-37l-36 2
l-14 -2l-26 2h-42l-22 -2l-3 -6l-8 -19l-15 -19l-7 -16l-13 -20l-7 -16l-8 -17l-12 -16l-9 -18l-13 -17l-11 -16l-9 -18l-13 -16l-9 -11v-3l11 -9l19 -12l15 -8l20 -9l21 -7l21 -9l17 -4l20 -7l18 -1l23 -2l49 -2l13 4l28 5l20 6l13 9l22 11l15 14l17 16l22 11l8 -4l-11 -20
l-7 -17l-17 -17l-13 -15l-14 -13l-15 -11l-14 -12l-21 -10l-24 -8l-16 -5l-23 -4l-39 2l-37 5l-19 4l-18 8l-19 8l-14 8l-23 11l-12 9l-17 10l-23 11l-15 12l-16 15l-4 -1l-14 -19l-14 -15l-17 -13l-18 -12l-9 -12l-19 -11l-20 -8l-24 -7l-17 -5l-24 -4h-34l-24 5l-12 3
l-27 9l-8 11l-16 16l-4 17l-7 19l4 20l7 19l21 33l9 15l15 12l23 8l24 4l12 2l28 2h20l17 -3l19 -5l24 -3l21 -6l16 -7l25 -10l2 3l9 16l5 16l19 17l7 16l9 17l13 18l12 17l5 20l17 17l3 17l8 19l7 12l-9 -1l-24 1l-18 -1l-22 -1h-20l-22 1l-8 15l10 21l10 8h75l47 1l9 1
l16 36l16 17l2 17l11 18l16 17l7 17l11 17l19 18l5 16l17 17l10 15l18 15l18 14l11 12l14 12l23 11l17 11l17 8l15 5l25 6l12 4l28 4l22 1l13 -13zM250 121l-22 8l-24 9l-18 6l-18 3l-19 3l-15 3l-20 -1l-26 -4l-11 -9l-23 -12l-19 -15l-3 -29l10 -30l10 -16l12 -12l28 -6
l37 1l19 5l20 9l22 11l18 12l13 12l14 16l15 15l18 15v2z" />
    <glyph glyph-name="currency" unicode="&#xa4;" horiz-adv-x="824" 
d="M616 506l3 -3l10 -14l11 -16l7 -18l9 -18l9 -18l-1 -21l9 -17l-2 -40l-3 -21v-19l-6 -19l-11 -16l-9 -17l-11 -17l-17 -14l-4 -8h25l10 -14l14 -12l20 -13l16 -12l16 -12l17 -14l11 -12l16 -10l3 -25l-18 -15l-11 -13l-29 2l-9 15l-12 16l-9 15l-14 15l-16 16l-6 15
l-9 15l-16 16l-3 17l-17 -11l-15 -11l-15 -10l-18 -8l-45 -11l-19 -3h-38l-17 2l-22 6l-15 5l-16 10l-23 8l-8 12l-19 14l-4 5v-25l-11 -17l-14 -15l-14 -13l-19 -17l-12 -13l-7 -17l-15 -15l-10 -16l-29 -3l-6 15l-22 15l4 24l21 13l11 10l19 13l12 12l21 11l15 12l11 14
l19 12h22l-6 7l-12 13l-15 16l-7 18l-11 18l-2 19l-5 20l-6 19l3 38l2 21l6 18l8 19l2 17l16 17l2 16l18 17l3 4l-20 1l-15 13l-16 13l-18 11l-12 13l-20 13l-11 12l-20 12l-13 13l-2 23l18 14l9 14l22 -2l11 -15l14 -17l18 -16l4 -15l12 -13l13 -17l12 -13l13 -17l3 -20
l3 4l14 13l17 11l25 10l10 9l22 6l24 2l12 3l38 1l19 -2l26 -7l39 -12l16 -11l12 -11l18 -13l4 -4l1 20l9 15l12 16l13 13l19 15l12 15l14 16l4 15l12 17l28 1l15 -14l16 -12v-26l-21 -13l-18 -11l-13 -11l-11 -14l-17 -10l-13 -14l-19 -10l-18 -12zM610 380v21l-14 19
l-8 18l-10 15l-7 17l-14 12l-19 11l-23 8l-21 6l-20 5l-39 1l-18 -4l-22 -7l-9 -10l-21 -10l-19 -13l-8 -16l-10 -15l-8 -18l-11 -19l-3 -21l4 -39l-4 -20l9 -21l10 -17l14 -18l12 -13l10 -14l22 -10l12 -11l26 -6l20 -2h38l20 2l16 6l33 20l20 15l16 13l7 18l11 19l9 17
l2 21z" />
    <glyph glyph-name="yen" unicode="&#xa5;" horiz-adv-x="603" 
d="M823 594l-16 -14l-19 -9l-19 -10l-36 -16l-27 -3l-22 -6h-36l-16 6l-24 5l-19 17l-1 -20l-11 -18l-8 -19l-9 -18l-9 -17l-8 -14l-12 -17l-17 -16l-15 -15l-16 -13l-12 -14l-9 -13l-21 -12l-15 -9l-13 -12l-19 -10l-21 -9l-15 -7l-25 -7l-8 -4l2 -8h11l22 -2h40l20 2
l17 -1l21 -1l30 2l12 -16l-9 -15l-19 -15l-16 1h-26l-16 -2l-20 1l-21 -1l-25 1l-18 3l1 -14l-1 -18l-5 -22v-23l23 2l17 -1l31 2h38l9 -16l-12 -16l-18 -15l-23 2l-17 -2l-33 2h-18l-13 1l-6 -12l-9 -19l-5 -18l-9 -15l-7 -19l-13 -16l-13 -17l-26 -16h-21l-25 -1l-5 15
l11 17l19 16l4 15l14 16l9 19l15 17l8 20l-42 -4h-19l-13 2h-24l-14 -1l-21 1l-19 -2l-13 17l13 21l14 9l23 -1h11l32 -1h42l22 2h11h14v11v21l5 21l-6 20l-27 -1l-19 1h-20l-19 -1l-20 1l-7 14l3 15l9 14l30 2l24 -2l26 1h16l-1 17l-8 19l-4 19l-5 19l-5 18l-3 20l-4 20
l1 21l3 19l9 20l2 19l10 19l8 19l22 34l8 15l20 17l8 15l22 13l12 15l8 16l12 15l33 18l20 1l17 -18l-8 -18l-8 -16l-19 -14l-13 -17l-7 -13l-18 -16l-13 -17l-14 -31l-16 -18l-7 -20l-9 -19l-4 -18l-8 -21l3 -18l-4 -22l3 -20l7 -19v-19l5 -19l15 3l19 11l26 7l17 10l11 9
l18 12l19 9l10 13l20 12l15 14l16 15l8 14l13 16l11 17l14 17l7 19l3 17l14 19v14l-1 12l-7 18l-4 17l7 30l18 22l22 12l26 10l30 -1l18 -10l10 -16l2 -22l-9 -28l-21 -18l-23 -11l-19 -12l12 -10l29 -8l37 2l24 4l18 7l17 7l23 10l10 11l18 12l13 15l16 -11z" />
    <glyph glyph-name="brokenbar" unicode="&#xa6;" horiz-adv-x="453" 
d="M349 437l16 18l11 16l6 18l13 16l13 17l1 17l14 18l10 17l12 18l5 17l17 17l9 16l7 16l7 18l16 16l7 19l25 16l16 -1l24 2l7 -19l-15 -17l-1 -15l-10 -18l-14 -16l-13 -19l-4 -16l-13 -16l-10 -19l-7 -15l-14 -19l-5 -16l-14 -18l-11 -15l-14 -17l-2 -19l-15 -15l-5 -17
l-11 -18l-13 -18l-22 -17l-25 2l-13 -1l-12 18l22 34zM274 179l-14 -19l-4 -15l-16 -17l-4 -18l-12 -16l-12 -17l-10 -17l-14 -19l-2 -15l-15 -19l-10 -16l-5 -18l-19 -17l-4 -15l-13 -19l-12 -17l-2 -16l-33 -16h-17l-20 -1l-2 18l13 16l7 18l10 15l12 17l2 19l18 16l4 17
l14 16l10 18l6 18l10 17l9 17l15 15l10 19l4 16l16 17l11 16l12 19l8 17l25 16l22 -1l18 1l-1 -17l-2 -16z" />
    <glyph glyph-name="section" unicode="&#xa7;" horiz-adv-x="600" 
d="M547 725l22 -6l37 -16l17 -12l10 -12l19 -17l9 -15l4 -19l9 -18v-21l-6 -18l-15 -38l-7 -14l-16 -10l-23 -9l-34 5l-17 19v30l17 22l21 14l25 -3l13 -10l10 15l-3 19v19l-15 16l-17 12l-14 14l-37 16l-35 9l-46 -2l-17 -4l-18 -4l-23 -8l-9 -12l-21 -12l-7 -12l-27 -35
l3 -18l-5 -21l-3 -21l2 -19l10 -19l5 -19l12 -16l1 -17l15 -19l8 -14l20 -17l4 -15l18 -18l7 -15l16 -16l14 -16l3 -16l14 -17l6 -20l9 -19l4 -17l2 -22l-8 -18l2 -19l-10 -20l-8 -17l-23 -34l-18 -14l-10 -10l-18 -13l-23 -9l-10 -7l-24 -9l-16 -6l-21 -5l-19 -2l-22 -5
l-24 -1l-28 -1l-18 -1l18 -28l14 -16l17 -19l4 -15l15 -18l4 -18l10 -20l7 -19l2 -20l3 -21l-10 -20l-5 -19l-10 -18l-23 -33l-12 -14l-19 -13l-20 -10l-16 -9l-16 -9l-19 -7l-22 -5l-13 -6l-21 -3l-24 -4l-21 -2l-35 -1l-22 3l-25 4l-21 7l-14 9l-17 9l-23 10l-15 14
l-12 13l-9 16l-11 18l-13 19l-9 17l-3 20l2 20v20l9 31l21 24l19 13l23 8l30 -6l19 -18l2 -19l-10 -27l-22 -13l-20 -2l-21 2l-15 -9l-7 -21l7 -18l13 -18l9 -20l13 -16l10 -14l18 -13l14 -11l17 -8l19 -8l20 -6l21 -3l46 1l21 4l18 5l21 7l15 7l22 11l13 15l21 15l19 33
l7 21l4 18l-2 20l-4 22l-7 18l-9 18l-11 18l-10 18l-15 18l-5 16l-13 18l-17 16l-9 17l-11 18l-9 15l-16 18l-6 19l-10 17l-6 20l-1 20l-6 19l-1 19l6 21l7 20l1 20l37 48l17 14l21 11l14 11l34 17l21 6l40 6h45l25 -4l33 -10l-11 16l-10 16l-17 32l-14 16l-14 17l-8 19
l-8 17l-8 21l-3 18l-1 18v21l5 20l10 19l5 16l18 34l14 15l21 15l14 11l16 9l21 9l17 8l26 7l18 4l16 2l48 -2h20h7zM438 193l1 21l-11 22l-10 36l-22 16l-14 11l-11 10l-15 8l-23 6l-17 6l-42 -2l-39 -8l-14 -9l-14 -10l-17 -12l-19 -12l-12 -37l-12 -19l1 -20l-7 -21
l6 -19l5 -22l14 -18l2 -17l15 -20l30 -21l21 -3l46 1l19 1l19 5l18 9l13 7l22 13l13 13l15 14l26 36l3 19z" />
    <glyph glyph-name="dieresis" unicode="&#xa8;" horiz-adv-x="303" 
d="M210 542l2 32l21 25l22 12l32 -4l16 -13l11 -20l-3 -33l-7 -18l-17 -10l-35 -4l-26 15zM395 538l-1 34l14 22l25 14l33 -2l20 -11l14 -27l-1 -30l-15 -17l-19 -11l-30 2l-23 9z" />
    <glyph glyph-name="copyright" unicode="&#xa9;" horiz-adv-x="972" 
d="M508 -2l-26 4l-18 5l-20 5l-20 7l-19 7l-13 11l-19 10l-39 24l-9 12l-23 14l-9 16l-15 15l-8 15l-9 17l-14 20l-10 16l-9 20l-9 19v18l-5 20l-5 20l-9 21l4 21l3 38l1 20l-1 22l6 17l7 19v21l7 17l7 18l14 17l11 17l13 17l6 17l10 15l14 15l13 14l21 14l10 12l21 10
l18 12l9 10l22 9l15 6l22 8l22 6l16 5l15 3l19 4l19 3l47 -1l14 -2l18 -4l22 -3l25 -4l15 -6l14 -7l18 -10l18 -8l17 -11l22 -11l15 -10l13 -11l14 -14l13 -15l17 -15l12 -15l12 -14l13 -19l10 -17l9 -16l1 -18l7 -18l14 -21l4 -17l-4 -20l3 -20l10 -21l1 -38l-5 -21l-3 -19
l-9 -21l-2 -20l-5 -20l-9 -17l-10 -20l-10 -19l-4 -17l-12 -16l-15 -17l-9 -16l-18 -14l-12 -16l-16 -12l-20 -12l-10 -12l-21 -9l-19 -9l-14 -9l-27 -5l-15 -6l-23 -6l-13 -3l-26 -3l-19 -2h-43l-13 2zM648 57l14 5l19 7l26 9l9 8l23 11l15 14l12 12l22 14l9 15l10 17
l19 16l9 16l6 18l8 19l13 17l8 19l-1 22l1 19l9 20l-6 41l-3 19l2 20l-10 22l-4 19l-2 17l-8 19l-12 18l-10 17l-19 17l-4 14l-16 15l-18 15l-13 14l-20 11l-17 11l-20 9l-14 10l-23 6l-16 7l-15 5l-25 1l-20 3l-41 -1h-15l-28 -3l-18 -5l-18 -6l-14 -9l-20 -8l-20 -8
l-16 -13l-18 -12l-12 -13l-21 -13l-10 -14l-13 -18l-11 -16l-12 -16l-12 -19l-7 -18l-11 -18l-5 -19l-6 -20l-3 -20v-21l-1 -40l9 -20l3 -21l-2 -19l7 -19l13 -19l1 -19l9 -17l19 -17l3 -16l18 -16l10 -16l35 -27l16 -10l18 -13l14 -8l24 -8l11 -7l23 -8l17 -3l23 -5l17 -1
h39l44 4zM710 229l-11 -15l-14 -17l-15 -11l-10 -13l-22 -10l-13 -8l-19 -5l-22 -4l-39 -1l-13 4l-23 5l-17 9l-18 9l-15 13l-7 14l-19 14l-10 18l-2 16l-10 17l-11 20l-4 20l2 17l-4 40l5 21l-3 21l7 21l3 18l11 20l7 18l11 17l17 15l16 14l18 11l22 12l16 7l23 6l12 2
l46 2l15 -5l26 -4l11 -9l16 -12l21 -15l9 -19l7 -21l-2 -31l-11 -24l-6 -16l-20 -11l-23 -2l-25 7l-14 15l-5 26l13 23l14 8l20 2l13 16l-13 17l-12 11l-23 7l-41 1l-20 -6l-12 -9l-21 -11l-11 -13l-14 -13l-4 -19l-8 -18l-13 -18l-3 -18l-3 -20l6 -21l1 -39l6 -21l1 -20
l8 -20l12 -18l5 -16l15 -15l11 -13l26 -7l12 -6h41l17 3l22 9l12 10l15 13l10 17l16 16l6 17l19 15l7 -7v-18l-7 -18z" />
    <glyph glyph-name="ordfeminine" unicode="&#xaa;" horiz-adv-x="579" 
d="M714 497l-9 -18l-11 -14l-18 -16l-7 -14l-16 -13l-19 -11l-13 -12l-23 -9l-20 -8l-18 -5l-44 1l-20 5l-11 11l-12 12l-12 20l-2 26h-2l-24 -19l-13 -12l-21 -9l-8 -10l-25 -9l-17 -9l-18 -3l-23 -4h-40l-18 5l-19 8l-18 14l-8 19l-3 19l1 21l10 23l1 19l11 18l23 36
l11 16l6 18l17 14l12 13l19 15l14 13l15 11l17 11l13 11l24 8l14 9l17 5l25 3l14 2h38l17 -7l23 -11l6 -13l3 -34h2l12 23l16 19l31 17l22 -1l13 -16l-7 -20l-18 -17l-7 -18l-7 -16l-11 -18l-15 -17l-6 -16l-10 -16l-14 -18l-14 -35l-9 -18v-22l-1 -19l19 -11h39l19 6l15 11
l19 12l12 11l17 15l10 18l15 14l18 12l8 -5zM472 489l25 33l8 18l10 19l10 19l4 21l3 19l-2 22l-11 20l-16 11h-46l-14 -5l-16 -10l-15 -9l-25 -14l-11 -13l-15 -14l-11 -15l-17 -15l-12 -18l-24 -35l-6 -18l-8 -20l2 -19l-1 -20l8 -16l24 -12h33l25 4l16 7l15 9l14 13
l20 11l21 16z" />
    <glyph glyph-name="guillemotleft" unicode="&#xab;" horiz-adv-x="678" 
d="M403 355l-18 -12l-15 -11l-17 -9l-15 -12l-21 -11l-37 -20l-17 -8l-18 -8l-28 -15v-2l24 -11l14 -16l6 -19l10 -20l7 -18l6 -19l-4 -27l-21 -5l-12 13l-6 19l-16 15l-9 19l-13 15l-12 16l-13 17l-25 13l2 23l31 10l19 7l16 7l12 8l19 11l21 7l18 9l15 11l13 9l23 9l10 11
l26 10l12 10l13 11l22 -1l-2 -20zM601 352l-18 -12l-15 -11l-17 -9l-15 -12l-58 -31l-17 -8l-18 -8l-28 -15v-2l24 -11l14 -16l6 -19l10 -20l7 -18l6 -19l-4 -27l-21 -5l-12 13l-6 19l-16 15l-9 19l-13 15l-12 16l-13 17l-25 13l2 23l31 10l19 7l16 7l12 9l19 11l21 7l18 9
l15 11l13 9l23 9l10 11l26 10l13 10l13 11l22 -1l-2 -20z" />
    <glyph glyph-name="logicalnot" unicode="&#xac;" horiz-adv-x="824" 
d="M712 224l9 -17l1 -19l15 -17l4 -15l-19 -12l-25 20l-13 33l7 21v18l13 27h-27l-18 2l-15 -1l-24 1h-20l-20 -2l-15 2l-27 -1l-16 1l-20 -2l-19 1h-46l-16 1l-24 -2h-17l-21 2l-13 -1l-23 1l-20 -2l-20 1l-25 -1l-19 1h-22l-16 1l-21 -2l-22 2l-17 -1l-7 15l7 16l28 14
l16 -1l26 2l12 -2l20 1h25l19 1l20 -2h16l24 2l22 -2h34l23 2h21l22 -2h57l18 1l26 1l14 -2h22l17 2l24 -1l20 1l18 -1l22 -1l18 1h17l6 -16l-7 -15l-5 -16l-14 -18z" />
    <glyph glyph-name="registered" unicode="&#xae;" horiz-adv-x="972" 
d="M925 294l-4 -19l-6 -21l-10 -18l-8 -20l-8 -18l-8 -19l-5 -16l-15 -19l-6 -15l-19 -15l-12 -15l-18 -15l-15 -13l-11 -11l-19 -13l-14 -9l-26 -9l-14 -8l-22 -7l-17 -6l-18 -6l-26 -4l-16 -2l-21 -3l-36 1l-45 4l-17 6l-21 4l-20 5l-24 7l-19 9l-19 10l-14 8l-18 13
l-14 10l-15 14l-12 14l-15 14l-15 17l-15 17l-12 16l-3 19l-12 18l-13 18l-6 19l-7 20l3 20l-5 20l-3 18l-9 21l1 41v20l12 20l-4 18l7 18l3 19l13 19l4 19l16 18l4 15l13 19l14 16l11 13l8 17l20 14l10 12l12 11l16 12l23 12l13 10l20 7l18 10l20 5l19 7l21 6l15 3l21 2
l15 4l47 -2l20 -2l21 -1l16 -6l22 -3l10 -6l24 -9l12 -8l24 -8l19 -11l15 -9l18 -11l16 -13l7 -13l15 -14l17 -15l7 -14l13 -18l13 -17l6 -16l12 -18l11 -18v-18l13 -18l-2 -21l8 -17l4 -22l1 -18l-3 -42v-19zM878 378l-9 20l3 18l-9 20l-1 19l-10 20l-8 17l-6 18l-16 18
l-10 16l-16 16l-17 16l-13 13l-12 13l-15 13l-16 9l-20 12l-23 7l-20 7l-19 5l-18 6l-20 2l-20 3h-43l-40 -5l-15 -6l-22 -5l-18 -6l-15 -10l-23 -8l-16 -13l-9 -11l-18 -12l-22 -14l-11 -17l-11 -16l-13 -14l-13 -18l-11 -19l-8 -16l-8 -20l-1 -20l-4 -18l-3 -22l1 -20
l-3 -39l5 -21l-2 -19l8 -21l5 -18l2 -20l16 -17l5 -18l7 -18l12 -17l16 -14l13 -16l20 -14l17 -13l9 -11l16 -13l20 -10l25 -8l18 -7l13 -5l27 -6l11 -1l28 -4l38 1l55 9l25 6l21 7l12 10l23 10l10 11l23 11l13 13l18 14l16 16l7 16l11 14l14 17l8 19l14 17l-2 20l6 19
l12 21l3 20v18zM616 299l15 -18l13 -15l8 -18l13 -14l28 -33l8 -17l16 -15l-11 -13l-12 -2h-24l-23 19l-15 15l-11 18l-14 18l-7 18l-9 16l-13 20l-15 32l-3 21h-16l-11 14l4 10l38 1l19 5l18 6l12 12l8 17l8 15l14 18v39l-12 21l-9 15l-9 14l-21 7l-24 2h-33l-28 3l-5 -20
v-19l9 -20l-4 -40l1 -20l-1 -22l-4 -18l8 -20l-1 -20l-5 -21v-20l6 -20l-9 -21l7 -18l-5 -22l6 -18l-5 -20l-20 -22l-19 1l-21 20l6 17l-1 21l-7 20l7 20l-6 19l2 19l-1 21l-3 20l2 21l6 18l-7 22l6 18l-5 22l2 19l-3 20l8 17l-11 42l19 24l21 1h32l16 1l43 1l21 -1l17 -4
l22 -6l20 -7l20 -12l9 -15l17 -18l10 -20l-8 -40l-7 -18l-11 -17l-9 -17l-16 -13l-14 -11l-19 -10l-14 -6l-23 -3l-15 -3z" />
    <glyph glyph-name="macron" unicode="&#xaf;" horiz-adv-x="264" 
d="M271 566l18 1l23 -1h37l24 2l24 -1l12 1l27 -2l36 10l-9 -31l-18 -19l-37 -2l-18 2l-25 -1l-15 1h-19l-18 -2l-25 1h-15l-25 -1h-17l-40 1l7 21l16 21l42 1z" />
    <glyph glyph-name="degree" unicode="&#xb0;" horiz-adv-x="600" 
d="M425 468l-13 12l-12 11l-16 15l-11 14l-8 17l-14 17l-6 20l-4 19l-1 39l10 19l1 19l15 17l6 17l7 16l16 15l16 12l17 10l19 8l23 4l16 5l42 1l19 -5l13 -5l24 -8l14 -11l16 -11l14 -16l10 -14l15 -18l7 -18l5 -19l3 -18l-6 -39l-3 -19l-6 -20v-18l-15 -15l-12 -17
l-11 -12l-16 -13l-18 -9l-15 -10l-21 -5l-22 -3l-40 -2l-12 4zM561 523l20 12l16 16l12 20l-1 19l-2 43l-1 19l-6 21l-13 15l-25 14l-19 8l-12 7h-50l-15 -6l-21 -10l-13 -14l-13 -15l-16 -19l-6 -20l7 -41l6 -20l8 -20l15 -17l12 -13l22 -10l15 -6l43 2l20 6z" />
    <glyph glyph-name="plusminus" unicode="&#xb1;" horiz-adv-x="534" 
d="M482 277l-24 -15l-22 -2l-16 1l-19 -1l-28 1l-14 1l-16 -1l-21 -1l-8 -19l-10 -18l-19 -20l-5 -18l-16 -17l-3 -17l-30 -19l-29 -1l-5 18l9 16l8 16l20 14l3 19l14 17l16 16l7 13h-9l-19 -2l-24 2l-15 -1h-18l-24 1h-19l-6 15l2 13l17 17l24 -1h32l17 -1h68l11 12l5 16
l9 16l15 17l7 17l9 17l14 28l28 6l15 -15l-5 -17l-17 -18l-2 -20l-10 -16l-12 -18l-15 -18l-1 -8h73l17 2h25l18 -2l9 -13zM354 34l-12 -16l-29 -16h-31l-26 1l-21 -1l-12 1l-28 1l-19 -2l-15 1l-22 -1l-24 2l-15 -1h-23l-23 1l-17 -1h-14l-23 1l-15 14l7 16l29 15l27 -1
l14 -1h23l13 2l21 -2h57l18 2l20 -2l43 2l12 -1l26 1h20l17 -1z" />
    <glyph glyph-name="uni00B2" unicode="&#xb2;" horiz-adv-x="501" 
d="M648 868l23 -8l19 -9l13 -15l13 -17l2 -20l2 -19l-6 -19l-5 -19l-1 -21l-23 -34l-9 -15l-18 -15l-9 -15l-14 -12l-20 -13l-13 -11l-18 -10l-19 -9l-17 -9l-15 -8l-23 -9l-13 -8l-19 -6l-26 -6l-17 -7l-13 -8l-20 -8l-19 -10l-18 -9l-18 -7l-18 -11l-13 -11l-18 -11
l-11 -14l-13 -16l-9 -17l1 -2l20 4l15 1l21 3l23 -1l14 1l24 1l17 2l28 2l39 -1l13 2l29 2l17 -1l20 1l21 -2l11 -14l-12 -17l-3 -15h-41h-25l-18 1h-17l-16 1l-22 -2h-21l-24 1l-12 1l-27 -1h-16l-18 -1l-25 2l-16 -2l-40 -1l-8 19l7 16l16 15l11 17l17 14l15 15l11 12
l23 11l10 11l22 10l13 10l21 10l16 10l18 6l22 10l40 17l11 7l23 10l11 11l19 11l20 10l11 13l20 15l13 14l12 17l19 34l8 17l3 20l3 19l1 20l-3 19l-18 16l-14 11l-20 6l-40 1l-16 -5l-19 -5l-18 -9l-17 -13l-15 -13l-11 -27l-14 -26l-6 -19l7 -19l16 -15l17 -9l10 -11
l-8 -9h-16l-18 4l-17 6l-19 8l-13 12l-10 18l-4 18l5 17l3 19l20 32l16 15l20 13l30 17l20 8l18 6l40 8l17 3h35l28 -2z" />
    <glyph glyph-name="uni00B3" unicode="&#xb3;" horiz-adv-x="465" 
d="M684 776l-9 -20l-17 -35l-10 -15l-14 -14l-17 -13l-16 -10l-12 -8l-16 -10l-26 -5l-14 -6l-24 -4l-31 -3v-2l43 -13l12 -7l16 -14l8 -16l7 -20l7 -19v-21l-13 -19l-15 -34l-11 -17l-11 -14l-16 -12l-19 -14l-29 -17l-24 -7l-11 -6l-20 -6h-26l-33 -2l-48 12l-18 9l-17 13
l-9 13l-16 16l-7 19l-1 22l19 6l16 -37l4 -14l21 -14l13 -10l23 -7l20 -4l38 2l17 4l24 9l8 11l23 11l12 15l10 17l18 37l4 18l11 20l-6 22v19l-9 16l-19 13l-21 8l-26 5l-8 10l6 13l38 1l20 3l41 14l17 9l16 11l13 13l13 13l16 16l16 35l8 19l-4 19l1 20l-12 15l-18 11
l-17 5l-35 2l-25 -4l-13 -7l-25 -12l-14 -18l-12 -28l-3 -18l-1 -19l18 -13l12 -12l-9 -8h-16l-23 5l-17 10l-5 14l-10 21l7 27l15 27l13 13l14 14l26 9l16 8l22 4l14 4l21 5h42l20 -3l19 -7l20 -6l17 -11l16 -15l11 -17l3 -20z" />
    <glyph glyph-name="acute" unicode="&#xb4;" horiz-adv-x="117" 
d="M214 532l21 14l8 14l18 16l11 17l12 17l15 17l23 6l20 -13l-1 -27l-11 -15l-21 -16l-9 -11l-20 -14l-16 -12l-15 -13l-13 -11l-22 -10l-18 -9l-13 -6l-11 6l14 22l10 12z" />
    <glyph glyph-name="paragraph" unicode="&#xb6;" horiz-adv-x="927" 
d="M971 474l-4 -20l-12 -20l1 -18l-28 -35l-11 -14l-11 -17l-9 -13l-18 -12l-12 -14l-25 -9l-10 -12l-17 -9l-21 -8l-13 -6l-21 -7l-44 -8l-21 -1h-18l-19 -1l-21 2l-16 3l-11 -12l-11 -17l-7 -18l-13 -16l-5 -19l-12 -15l-12 -19l-5 -16l-7 -18l-18 -16l-5 -18l-13 -17
l-12 -17l-6 -17l-11 -15l-7 -17l-9 -18l-10 -18l-11 -15l-15 -17l-8 -17l-14 -17l-5 -17l-34 -18l-24 1l-12 17l12 15l9 17l9 18l9 17l10 18l10 16l16 17l4 18l18 17l7 16l12 18l10 16l3 16l9 18l17 17l5 18l11 16l12 17l7 17l8 17l13 17l7 16l16 19l4 15l18 19l11 16l1 18
l12 17l9 18l11 19l10 18l15 19l5 18l15 18l9 18l13 17l1 19l14 16l9 19l15 18l3 17l10 19l16 19l3 16l20 20l16 23l-13 5l-18 9l-17 7l-14 7l-31 5l-9 -21v-16l-10 -19l-8 -16l-17 -16l-9 -17l-9 -20l-6 -17l-14 -19l-9 -16l-3 -18l-15 -18l-6 -20l-15 -18l-12 -16l-4 -20
l-13 -18l-12 -18l-6 -18l-9 -17l-8 -18l-19 -18l-2 -17l-14 -18l-14 -20l-3 -16l-14 -20l-14 -35l-13 -16l-8 -20l-16 -18l-11 -17l-2 -18l-14 -18l-13 -18l-11 -15l-5 -18l-14 -16l-12 -19l-4 -15l-7 -18l-18 -18l-6 -16l-12 -17l-13 -17l-6 -16l-9 -19l-31 -16l-21 -2
l-16 18l7 18l12 15l15 19l9 17l4 15l13 18l9 16l9 19l9 17l22 33l15 19l11 16l7 18l9 16l6 17l9 16l26 37l13 17l10 17l2 15l12 17l11 18l10 17l9 18l10 15l14 19l6 17l7 16l11 18l14 16l9 17l9 16l7 19l15 17l8 17l7 16l14 18l9 18l10 19l7 19l13 18l11 17l12 18l11 19
l2 18l16 17l9 18l-26 2h-60h-17l-37 -5l-24 -5l-17 -5l-19 -5l-21 -8l-16 -7l-21 -10l-16 -8l-16 -12l-21 -13l-13 -12l-5 -16l-25 -35l-8 -20l-2 -18l-2 -22l9 -17l13 -13l22 -6h38l23 5l24 6l13 13l22 11l7 15l13 18l26 9l7 -13l-15 -27l-20 -14l-16 -14l-14 -10l-19 -10
l-19 -8l-26 -5l-13 -5h-39l-23 2l-14 4l-27 5l-15 12l-12 12l-13 17l-6 18l4 17l4 21l3 17l17 33l17 15l17 15l13 13l15 11l19 12l18 9l16 10l21 8l17 7l20 8l23 6l15 4l24 3l19 5l44 4l13 4l22 1h42l17 -2l28 -3h20l18 -3l14 -6l27 -5l16 -4l24 -7l10 -7l27 -7l13 -8
l22 -12l19 -10l11 -12l16 -14l21 -13l14 -16l4 -15l14 -17l5 -19l7 -17l10 -21l5 -19v-19zM896 526l5 21l-6 19l-13 18l-4 16l-12 15l-18 17l-11 10l-6 -24l-15 -17l-8 -18l-5 -17l-14 -16l-4 -18l-12 -18l-8 -15l-10 -18l-12 -18l-13 -16l-8 -18l-10 -17l-12 -16l-5 -18
l-8 -16l-16 -18l-4 -16l-18 -16l-6 -19l-9 -12l21 3l19 2l19 2l19 7l26 4l17 8l16 9l17 13l16 10l13 15l18 14l10 15l18 34l9 18l10 19l10 18l2 21l8 20z" />
    <glyph glyph-name="periodcentered" unicode="&#xb7;" horiz-adv-x="298" 
d="M132 213l4 29l14 17l26 12l27 -2l18 -12l12 -16l4 -21l-2 -20l-14 -17l-21 -13h-34l-24 16z" />
    <glyph glyph-name="cedilla" unicode="&#xb8;" horiz-adv-x="184" 
d="M-33 -55v-28l14 -20l7 -19l-12 -23l-15 -38l-15 -13l-16 -10l-18 -10l-22 -2h-42l-13 4l-19 11l-7 17l-8 19l1 17l-2 25l14 10h19l13 -30l1 -17l-4 -17l17 -14h41l18 7l17 12l15 37v20l-7 17l-18 8l-2 22l7 18l13 17l15 17l31 15l-4 -16l-9 -17z" />
    <glyph glyph-name="uni00B9" unicode="&#xb9;" horiz-adv-x="380" 
d="M621 826l-12 -17l-7 -16l-12 -17l-5 -19l-12 -18l-16 -16l-4 -16l-8 -18l-13 -18l-9 -15l-8 -18l-19 -16l-3 -17l-8 -18l-15 -18l-14 -16l-7 -16l-13 -17l-1 -17l-11 -17l-17 -19l-2 -15l-13 -17l-11 -17l-7 -17l-24 -19h-45l-7 19l13 17l6 17l15 18l11 17l7 17l12 18
l7 20l14 17l7 17l11 16l4 18l19 16l5 18l6 15l13 19l15 17l6 17l7 16l10 17l13 15l15 18v2l-18 -10l-18 -12l-16 -11l-13 -9l-25 -8l-14 -8l-20 -4l-14 -5l-25 -4l-14 -3l-18 1l-6 11l17 15l28 2l19 4l15 6l27 6l18 8l15 9l17 11l14 13l23 12l15 13l13 15l14 17l13 16l28 17
h18l17 1l10 -16z" />
    <glyph glyph-name="ordmasculine" unicode="&#xba;" horiz-adv-x="463" 
d="M704 590l-18 -14l-13 -13l-20 -9l-21 -9l-15 -9l-22 -2l-27 -3l-24 7l-14 6l-14 -16l-16 -18l-4 -15l-21 -17l-11 -14l-14 -14l-10 -12l-17 -12l-17 -11l-15 -10l-18 -10l-27 -8l-20 -3l-15 -4l-45 1l-18 3l-15 10l-14 14l-13 19l2 18l-8 21l9 23l9 18l9 19l19 36l14 18
l8 14l8 15l23 14l12 16l17 12l10 12l23 12l18 10l17 8l14 6l15 6l19 5l25 3l37 -3l22 -5l16 -11l12 -15v-18l24 -11l8 -23l-5 -26l-19 -25l-28 -7l-1 -2l27 -8l30 -6l25 5l15 13l19 12l15 11l10 15l18 13l19 9l8 -15zM498 563l-7 25v29l13 23l20 12l-3 10l-25 11l-38 1
l-16 -7l-18 -9l-18 -12l-13 -12l-15 -11l-20 -16l-17 -13l-7 -18l-18 -15l-17 -35l-11 -19l-5 -19l-3 -21l5 -18l9 -17l15 -10l37 -3l24 5l38 17l16 12l8 13l17 13l16 17l8 14l11 17l24 29z" />
    <glyph glyph-name="guillemotright" unicode="&#xbb;" horiz-adv-x="694" 
d="M149 137l8 10l19 13l18 10l19 12l14 12l23 8l18 11l17 10l34 18l24 8v3l-13 16l-16 17l-13 19l-8 20l-11 19l-11 27l19 20l23 -11l18 -16l12 -19l13 -15l12 -18l11 -14l14 -17l14 -20l-3 -17l-23 -10l-21 -6l-17 -9l-18 -7l-20 -11l-8 -8l-23 -10l-11 -8l-18 -8l-19 -12
l-17 -10l-17 -10l-21 -10l-11 -11l-21 -2l-14 8zM348 136l8 10l19 13l18 10l19 12l14 12l23 8l18 11l17 10l34 18l25 8v3l-13 16l-16 17l-13 20l-7 20l-11 19l-11 27l19 20l23 -11l18 -16l12 -19l13 -15l12 -18l11 -14l14 -17l14 -20l-3 -17l-23 -10l-21 -6l-17 -9l-18 -7
l-20 -11l-8 -8l-23 -10l-11 -8l-18 -8l-19 -11l-17 -10l-17 -10l-21 -10l-11 -11l-21 -2l-14 8z" />
    <glyph glyph-name="questiondown" unicode="&#xbf;" horiz-adv-x="471" 
d="M436 379l4 -30l-15 -26l-18 -12l-33 2l-27 11l-11 24l2 31l14 16l20 12h31l22 -11zM-1 -297l-22 6l-14 6l-20 12l-20 11l-5 16l-9 20l-8 19l5 21v20l4 19l21 33l19 15l12 16l8 12l12 13l16 13l15 10l19 10l20 12l10 10l14 11l23 13l14 12l20 11l14 12l33 25l11 16l12 12
l16 17l19 13l12 16l15 18l13 15l5 17l11 18l15 17l18 11l10 -2l-7 -21l-7 -17l-15 -16l-9 -16l-15 -15l-11 -17l-11 -17l-11 -15l-20 -14l-8 -15l-15 -13l-17 -15l-10 -13l-15 -14l-18 -13l-21 -12l-14 -14l-12 -13l-13 -13l-16 -14l-17 -12l-8 -17l-12 -13l-18 -18l-3 -15
l-21 -34l-7 -19l-9 -20v-22l6 -19l10 -14l16 -14l47 -11l37 1l13 3l22 7l16 7l24 11l8 10l16 12l20 17l19 33v20l11 18l-6 21l-8 16l-14 13l-17 6l-18 11l5 12l23 -2l14 -1l25 -6l20 -5l16 -11l11 -16l7 -19l8 -18l-3 -20l-5 -18l-20 -35l-16 -13l-18 -15l-17 -11l-9 -13
l-17 -9l-20 -6l-20 -8l-23 -6l-16 -5l-23 -3l-21 -2h-31l-21 4z" />
    <glyph glyph-name="Agrave" unicode="&#xc0;" horiz-adv-x="773" 
d="M753 912l4 16l11 24l18 5l26 -22l-1 -18v-21l-2 -37l5 -20l6 -22l3 -16l1 -25l-15 -5l-13 19l-8 15l-1 16l-14 22l-9 17l-4 32zM863 656l-7 -16l-10 -19l-9 -15l-11 -18l-6 -18l-11 -16l-16 -17l-3 -17l-18 -17l-8 -16l-8 -18l-13 -17l-7 -16l-9 -18l-14 -16l-4 -5l5 1
h25h21l18 2l20 -1l24 -12l-4 -13l-35 -2h-16l-22 -1l-41 -2l-5 -1v-1l-12 -19l-9 -16l-14 -17l-10 -17l-1 -18l-15 -16l-14 -17l-9 -18l-13 -32l-13 -19l-11 -17l-8 -19l-5 -18l-5 -19v-20l6 -20l4 -17l9 -15l16 -11l23 -5h37l22 4l14 4l17 8l21 9l15 13l11 11l19 14l12 13
l13 16l13 13l7 18l18 -1l7 -11l-6 -17l-12 -15l-21 -14l-6 -15l-16 -13l-19 -11l-8 -12l-21 -10l-12 -8l-23 -10l-18 -6l-15 -4l-22 -3l-45 1l-14 1l-25 5l-19 8l-13 12l-8 15l-9 16l-15 20l6 18l-7 21l4 19v20l10 22l6 20l14 17l5 19l24 38l1 17l12 17l11 15l13 19l8 15
l15 18l1 2l-17 -2l-25 -3l-20 -3l-12 -1l-20 -5l-22 -2l-24 9l-9 -1l-31 -18l-6 -12l-13 -19l-13 -18l-4 -19l-17 -17l-3 -19l-17 -16l-4 -18l-18 -17l-12 -15l-8 -18l-6 -17l-13 -15l-19 -16l-10 -17l-10 -16l-23 -15l-12 -14l-19 -13l-16 -12l-9 -8l-23 -8l-21 -8l-20 -2
l-37 -2l-18 5l-23 8l-14 11l-17 15l-8 19l-4 22l4 21l9 19l18 35l16 15l9 15l18 15l12 12l10 14l19 10l17 14l20 9l10 12l17 11l16 7l25 9l12 10l24 8l13 8l26 7l37 13l19 5l18 8l17 4l24 7v0l4 4l4 19l17 36l19 18l6 18l5 20l20 17l9 15l11 19l9 17l18 15l4 15l14 16l14 15
l22 12l13 14l16 11l21 13l12 8l19 9l16 10l39 10l27 4l17 5l21 2l54 1l27 -1l4 -16zM775 656l-20 -4l-18 -5l-25 -3l-22 -6l-9 -8l-20 -10l-17 -11l-20 -10l-12 -11l-21 -14l-15 -13l-6 -16l-21 -15l-9 -18l-9 -15l-13 -18l-16 -16l-7 -20l-15 -16l-6 -19l-17 -37l-14 -17
v-1l13 3l18 3l19 5l17 2l20 4l20 3l21 4l21 2l23 1l10 1l2 4l14 17l5 18l17 16l9 18l7 17l14 17l15 17l11 15l7 18l15 17l4 18l17 17l8 17l8 15l12 19l13 17zM397 318l-10 -5l-20 -7l-22 -6l-16 -6l-23 -6l-15 -9l-18 -7l-26 -7l-17 -11l-16 -7l-16 -11l-15 -11l-19 -9
l-15 -12l-18 -14l-11 -12l-14 -15l-21 -15l-9 -15l-15 -35l-10 -18l-6 -19l11 -18l8 -17l13 -12l18 -5l38 -2l9 4l16 7l20 9l13 9l17 11l16 14l14 13l13 16l8 15l19 16l12 17l5 17l14 15l9 18l18 17l11 20l9 17l11 17l5 18l12 20l13 17v4z" />
    </font>
</defs>
</svg>
